<?xml version="1.0" encoding="UTF-8" standalone="no"?>
<!DOCTYPE svg PUBLIC "-//W3C//DTD SVG 1.1//EN" "http://www.w3.org/Graphics/SVG/1.1/DTD/svg11.dtd">
<svg width="12px" height="12px" viewBox="0 0 71 71" version="1.1" xmlns="http://www.w3.org/2000/svg" xmlns:xlink="http://www.w3.org/1999/xlink" xml:space="preserve" xmlns:serif="http://www.serif.com/" style="fill-rule:evenodd;clip-rule:evenodd;stroke-linejoin:round;stroke-miterlimit:2;">
    <g transform="matrix(1,0,0,1,-14.8,-14.9)">
        <path d="M14.8,71.1C14.8,78.8 21.1,85.1 28.8,85.1L64.8,85.1C72.5,85.1 78.8,78.8 78.8,71.1L78.8,49.1C78.8,46.9 77,45.1 74.8,45.1C72.6,45.1 70.8,46.9 70.8,49.1L70.8,71.1C70.8,74.4 68.1,77.1 64.8,77.1L28.8,77.1C25.5,77.1 22.8,74.4 22.8,71.1L22.8,35.1C22.8,31.8 25.5,29.1 28.8,29.1L50.8,29.1C53,29.1 54.8,27.3 54.8,25.1C54.8,22.9 53,21.1 50.8,21.1L28.8,21.1C21.1,21.1 14.8,27.4 14.8,35.1L14.8,71.1Z"
              style="fill:currentColor;fill-rule:nonzero;"/>
        <path d="M85.2,18.9C85.2,18.6 85.2,18.4 85.1,18.1C85.1,18 85.1,18 85,17.9C85,17.7 84.9,17.5 84.8,17.4C84.8,17.3 84.7,17.2 84.7,17.2C84.6,17 84.5,16.9 84.5,16.7C84.2,16.3 83.8,15.9 83.4,15.6C83.3,15.5 83.1,15.4 83,15.4C82.9,15.4 82.8,15.3 82.7,15.3C82.5,15.2 82.4,15.2 82.2,15.1L82,15C81.8,15 81.5,14.9 81.3,14.9L62.8,14.9C60.6,14.9 58.8,16.7 58.8,18.9C58.8,21.1 60.6,22.9 62.8,22.9L71.5,22.9L45.7,48.7C44.2,50.3 44.2,52.8 45.8,54.4C47.3,55.9 49.8,55.9 51.3,54.4L77.2,28.6L77.2,37.3C77.2,39.5 79,41.3 81.2,41.3C83.4,41.3 85.2,39.5 85.2,37.3L85.2,18.9Z"
              style="fill:currentColor;fill-rule:nonzero;"/>
    </g>
</svg>
