<?xml version="1.0" encoding="UTF-8" standalone="no"?>
<!DOCTYPE svg PUBLIC "-//W3C//DTD SVG 1.1//EN" "http://www.w3.org/Graphics/SVG/1.1/DTD/svg11.dtd">
<svg width="100%" height="100%" viewBox="0 0 372 60" version="1.1" xmlns="http://www.w3.org/2000/svg" xmlns:xlink="http://www.w3.org/1999/xlink" xml:space="preserve" xmlns:serif="http://www.serif.com/" style="fill-rule:evenodd;clip-rule:evenodd;stroke-linejoin:round;stroke-miterlimit:2;">
    <g transform="matrix(0.49938,0,0,0.49938,-78.9819,-191.781)">
        <g transform="matrix(0.519957,0,0,0.519957,732.827,498.513)">
            <g transform="matrix(132,0,0,132,0,0)">
                <path d="M0.246,-0.096C0.246,-0.067 0.236,-0.042 0.216,-0.022C0.196,-0.001 0.171,0.009 0.142,0.009C0.113,0.009 0.088,-0.001 0.067,-0.022C0.047,-0.042 0.036,-0.067 0.036,-0.096C0.036,-0.125 0.047,-0.15 0.067,-0.171C0.088,-0.191 0.113,-0.201 0.142,-0.201C0.16,-0.201 0.178,-0.196 0.194,-0.187C0.211,-0.178 0.223,-0.165 0.232,-0.149C0.242,-0.133 0.246,-0.115 0.246,-0.096Z" style="fill:black;fill-rule:nonzero;"/>
            </g>
            <g transform="matrix(132,0,0,132,37.0605,0)">
                <path d="M0.482,-0.023C0.467,-0.017 0.452,-0.012 0.436,-0.008C0.419,-0.003 0.401,0.001 0.381,0.004C0.36,0.007 0.338,0.009 0.314,0.009C0.26,0.009 0.214,-0 0.176,-0.019C0.138,-0.037 0.109,-0.06 0.089,-0.088C0.069,-0.116 0.055,-0.144 0.047,-0.173C0.039,-0.202 0.035,-0.228 0.035,-0.25C0.035,-0.272 0.039,-0.298 0.047,-0.327C0.055,-0.356 0.069,-0.384 0.089,-0.411C0.109,-0.438 0.137,-0.46 0.175,-0.479C0.213,-0.497 0.259,-0.506 0.314,-0.506C0.351,-0.506 0.381,-0.503 0.404,-0.498C0.427,-0.493 0.45,-0.486 0.474,-0.477L0.474,-0.339C0.417,-0.357 0.372,-0.366 0.34,-0.366C0.309,-0.366 0.281,-0.357 0.257,-0.338C0.232,-0.319 0.22,-0.29 0.22,-0.25C0.22,-0.224 0.226,-0.201 0.238,-0.183C0.25,-0.165 0.266,-0.152 0.284,-0.144C0.303,-0.135 0.321,-0.131 0.34,-0.131C0.357,-0.131 0.377,-0.133 0.4,-0.139C0.422,-0.144 0.45,-0.151 0.482,-0.161L0.482,-0.023Z" style="fill:black;fill-rule:nonzero;"/>
            </g>
            <g transform="matrix(132,0,0,132,104.543,0)">
                <path d="M0.605,-0.249C0.605,-0.2 0.594,-0.155 0.573,-0.117C0.551,-0.078 0.519,-0.047 0.476,-0.025C0.434,-0.002 0.381,0.009 0.32,0.009C0.258,0.009 0.206,-0.002 0.163,-0.025C0.121,-0.047 0.088,-0.078 0.067,-0.117C0.046,-0.155 0.035,-0.2 0.035,-0.249C0.035,-0.286 0.041,-0.32 0.053,-0.351C0.065,-0.382 0.083,-0.409 0.107,-0.432C0.131,-0.456 0.161,-0.474 0.197,-0.487C0.232,-0.5 0.273,-0.506 0.32,-0.506C0.367,-0.506 0.408,-0.499 0.444,-0.487C0.48,-0.474 0.51,-0.456 0.533,-0.433C0.557,-0.41 0.575,-0.382 0.587,-0.352C0.599,-0.321 0.605,-0.286 0.605,-0.249ZM0.42,-0.249C0.42,-0.288 0.411,-0.319 0.394,-0.342C0.377,-0.364 0.352,-0.375 0.32,-0.375C0.288,-0.375 0.263,-0.364 0.246,-0.342C0.229,-0.319 0.22,-0.288 0.22,-0.249C0.22,-0.21 0.229,-0.179 0.246,-0.156C0.263,-0.133 0.288,-0.122 0.32,-0.122C0.352,-0.122 0.377,-0.133 0.394,-0.156C0.411,-0.179 0.42,-0.21 0.42,-0.249Z" style="fill:black;fill-rule:nonzero;"/>
            </g>
            <g transform="matrix(132,0,0,132,189.041,0)">
                <path d="M0.942,-0L0.766,-0L0.766,-0.265C0.766,-0.3 0.76,-0.327 0.749,-0.344C0.737,-0.361 0.719,-0.37 0.694,-0.37C0.669,-0.37 0.649,-0.363 0.634,-0.348C0.618,-0.333 0.603,-0.314 0.587,-0.292L0.587,-0L0.411,-0L0.411,-0.265C0.411,-0.299 0.406,-0.325 0.395,-0.343C0.384,-0.361 0.365,-0.37 0.338,-0.37C0.325,-0.37 0.313,-0.368 0.302,-0.362C0.291,-0.357 0.282,-0.351 0.275,-0.345C0.269,-0.338 0.26,-0.329 0.25,-0.316C0.241,-0.303 0.235,-0.295 0.232,-0.292L0.232,-0L0.056,-0L0.056,-0.497L0.232,-0.497L0.232,-0.426C0.258,-0.454 0.285,-0.474 0.313,-0.487C0.34,-0.5 0.371,-0.506 0.407,-0.506C0.424,-0.506 0.44,-0.504 0.456,-0.501C0.471,-0.498 0.486,-0.493 0.501,-0.485C0.516,-0.478 0.529,-0.468 0.541,-0.455C0.553,-0.442 0.563,-0.426 0.57,-0.409C0.598,-0.441 0.628,-0.465 0.658,-0.481C0.688,-0.498 0.723,-0.506 0.763,-0.506C0.803,-0.506 0.836,-0.498 0.863,-0.482C0.89,-0.466 0.91,-0.443 0.923,-0.413C0.935,-0.383 0.942,-0.346 0.942,-0.303L0.942,-0Z" style="fill:black;fill-rule:nonzero;"/>
            </g>
        </g>
        <g transform="matrix(1,0,0,1,150.748,502.259)">
            <g transform="matrix(132,0,0,132,0,0)">
                <path d="M0.587,-0L0.411,-0L0.411,-0.258C0.411,-0.26 0.412,-0.269 0.412,-0.275C0.412,-0.299 0.407,-0.32 0.396,-0.34C0.386,-0.36 0.367,-0.37 0.339,-0.37C0.317,-0.37 0.297,-0.363 0.28,-0.348C0.263,-0.333 0.247,-0.314 0.232,-0.292L0.232,-0L0.056,-0L0.056,-0.677L0.232,-0.677L0.232,-0.426C0.261,-0.457 0.29,-0.478 0.318,-0.489C0.346,-0.5 0.376,-0.506 0.408,-0.506C0.527,-0.506 0.587,-0.439 0.587,-0.305L0.587,-0Z" style="fill:black;fill-rule:nonzero;"/>
            </g>
            <g transform="matrix(132,0,0,132,83.9824,0)">
                <path d="M0.227,-0.612C0.227,-0.591 0.22,-0.574 0.205,-0.56C0.19,-0.545 0.173,-0.538 0.153,-0.538C0.139,-0.538 0.127,-0.541 0.115,-0.548C0.104,-0.554 0.095,-0.563 0.089,-0.574C0.082,-0.586 0.079,-0.598 0.079,-0.612C0.079,-0.632 0.086,-0.649 0.101,-0.664C0.115,-0.679 0.132,-0.686 0.153,-0.686C0.173,-0.686 0.19,-0.679 0.205,-0.664C0.22,-0.649 0.227,-0.632 0.227,-0.612ZM0.241,-0L0.065,-0L0.065,-0.497L0.241,-0.497L0.241,-0Z" style="fill:black;fill-rule:nonzero;"/>
            </g>
        </g>
        <g transform="matrix(1,0,0,1,234.748,502.259)">
            <g transform="matrix(132,0,0,132,0,0)">
                <path d="M0.227,-0.612C0.227,-0.591 0.22,-0.574 0.205,-0.56C0.19,-0.545 0.173,-0.538 0.153,-0.538C0.139,-0.538 0.127,-0.541 0.115,-0.548C0.104,-0.554 0.095,-0.563 0.089,-0.574C0.082,-0.586 0.079,-0.598 0.079,-0.612C0.079,-0.632 0.086,-0.649 0.101,-0.664C0.115,-0.679 0.132,-0.686 0.153,-0.686C0.173,-0.686 0.19,-0.679 0.205,-0.664C0.22,-0.649 0.227,-0.632 0.227,-0.612ZM0.241,-0L0.065,-0L0.065,-0.497L0.241,-0.497L0.241,-0Z" style="fill:rgb(255,128,28);fill-rule:nonzero;"/>
            </g>
            <g transform="matrix(132,0,0,132,40.4121,0)">
                <path d="M0.227,-0.612C0.227,-0.591 0.22,-0.574 0.205,-0.56C0.19,-0.545 0.173,-0.538 0.153,-0.538C0.139,-0.538 0.127,-0.541 0.115,-0.548C0.104,-0.554 0.095,-0.563 0.089,-0.574C0.082,-0.586 0.079,-0.598 0.079,-0.612C0.079,-0.632 0.086,-0.649 0.101,-0.664C0.115,-0.679 0.132,-0.686 0.153,-0.686C0.173,-0.686 0.19,-0.679 0.205,-0.664C0.22,-0.649 0.227,-0.632 0.227,-0.612ZM0.241,-0L0.065,-0L0.065,-0.497L0.241,-0.497L0.241,-0Z" style="fill:rgb(255,128,28);fill-rule:nonzero;"/>
            </g>
        </g>
        <g transform="matrix(1,0,0,1,275.248,502.259)">
            <g transform="matrix(132,0,0,132,0,0)">
                <path d="M0.227,-0.612C0.227,-0.591 0.22,-0.574 0.205,-0.56C0.19,-0.545 0.173,-0.538 0.153,-0.538C0.139,-0.538 0.127,-0.541 0.115,-0.548C0.104,-0.554 0.095,-0.563 0.089,-0.574C0.082,-0.586 0.079,-0.598 0.079,-0.612C0.079,-0.632 0.086,-0.649 0.101,-0.664C0.115,-0.679 0.132,-0.686 0.153,-0.686C0.173,-0.686 0.19,-0.679 0.205,-0.664C0.22,-0.649 0.227,-0.632 0.227,-0.612ZM0.241,-0L0.065,-0L0.065,-0.497L0.241,-0.497L0.241,-0Z" style="fill:black;fill-rule:nonzero;"/>
            </g>
            <g transform="matrix(132,0,0,132,40.4121,0)">
                <path d="M0.58,-0.497L0.354,-0L0.224,-0L0.003,-0.497L0.192,-0.497L0.295,-0.237L0.409,-0.497L0.58,-0.497Z" style="fill:black;fill-rule:nonzero;"/>
            </g>
            <g transform="matrix(132,0,0,132,115.5,0)">
                <path d="M0.566,-0.206L0.216,-0.206C0.223,-0.176 0.239,-0.151 0.266,-0.132C0.293,-0.113 0.323,-0.103 0.357,-0.103C0.416,-0.103 0.482,-0.12 0.553,-0.153L0.553,-0.044C0.528,-0.031 0.496,-0.018 0.46,-0.008C0.423,0.003 0.376,0.009 0.32,0.009C0.259,0.009 0.207,-0.003 0.164,-0.025C0.121,-0.048 0.088,-0.079 0.067,-0.118C0.046,-0.157 0.035,-0.201 0.035,-0.251C0.035,-0.3 0.046,-0.344 0.067,-0.382C0.088,-0.421 0.121,-0.451 0.164,-0.473C0.207,-0.495 0.259,-0.506 0.32,-0.506C0.36,-0.506 0.399,-0.497 0.437,-0.48C0.474,-0.462 0.505,-0.434 0.53,-0.394C0.554,-0.355 0.566,-0.304 0.566,-0.241L0.566,-0.206ZM0.401,-0.293C0.401,-0.325 0.393,-0.35 0.377,-0.369C0.361,-0.388 0.339,-0.398 0.309,-0.398C0.28,-0.398 0.256,-0.388 0.238,-0.369C0.22,-0.35 0.211,-0.324 0.211,-0.293L0.401,-0.293Z" style="fill:black;fill-rule:nonzero;"/>
            </g>
        </g>
        <g transform="matrix(1,0,0,1,469.748,502.259)">
            <g transform="matrix(132,0,0,132,0,0)">
                <rect x="0.065" y="-0.677" width="0.176" height="0.677" style="fill:rgb(255,128,28);fill-rule:nonzero;"/>
            </g>
            <g transform="matrix(132,0,0,132,40.4121,0)">
                <path d="M0.572,-0.025C0.546,-0.015 0.522,-0.007 0.5,-0C0.479,0.006 0.452,0.009 0.422,0.009C0.393,0.009 0.373,0.004 0.361,-0.007C0.35,-0.017 0.342,-0.029 0.337,-0.044C0.318,-0.029 0.297,-0.016 0.274,-0.006C0.251,0.004 0.221,0.009 0.183,0.009C0.147,0.009 0.118,0.003 0.095,-0.01C0.073,-0.023 0.058,-0.038 0.049,-0.057C0.04,-0.076 0.035,-0.096 0.035,-0.116C0.035,-0.147 0.043,-0.172 0.058,-0.192C0.074,-0.212 0.095,-0.229 0.121,-0.241C0.147,-0.254 0.181,-0.267 0.224,-0.281C0.249,-0.289 0.267,-0.295 0.28,-0.299C0.292,-0.303 0.301,-0.306 0.308,-0.308C0.314,-0.31 0.32,-0.313 0.327,-0.317C0.327,-0.341 0.322,-0.36 0.313,-0.374C0.303,-0.387 0.282,-0.394 0.249,-0.394C0.211,-0.394 0.175,-0.386 0.142,-0.369C0.109,-0.352 0.079,-0.33 0.052,-0.303L0.052,-0.438C0.074,-0.454 0.097,-0.466 0.123,-0.476C0.148,-0.486 0.174,-0.494 0.202,-0.499C0.23,-0.503 0.258,-0.506 0.286,-0.506C0.358,-0.506 0.412,-0.492 0.448,-0.464C0.485,-0.436 0.503,-0.398 0.503,-0.349L0.503,-0.157C0.503,-0.139 0.505,-0.125 0.508,-0.116C0.511,-0.108 0.518,-0.103 0.527,-0.103C0.538,-0.103 0.553,-0.108 0.572,-0.117L0.572,-0.025ZM0.327,-0.12L0.327,-0.238C0.285,-0.221 0.255,-0.206 0.236,-0.192C0.217,-0.179 0.207,-0.16 0.207,-0.137C0.207,-0.121 0.212,-0.108 0.221,-0.099C0.231,-0.09 0.242,-0.086 0.255,-0.086C0.267,-0.086 0.279,-0.089 0.291,-0.096C0.303,-0.103 0.315,-0.111 0.327,-0.12Z" style="fill:rgb(255,128,28);fill-rule:nonzero;"/>
            </g>
            <g transform="matrix(132,0,0,132,117.627,0)">
                <path d="M0.602,-0.245C0.602,-0.188 0.591,-0.14 0.568,-0.102C0.546,-0.064 0.517,-0.036 0.482,-0.018C0.448,-0 0.412,0.009 0.376,0.009C0.35,0.009 0.327,0.006 0.308,-0C0.289,-0.006 0.274,-0.013 0.264,-0.02C0.253,-0.027 0.242,-0.035 0.231,-0.045L0.231,-0L0.055,-0L0.055,-0.677L0.231,-0.677L0.231,-0.468C0.244,-0.478 0.262,-0.487 0.285,-0.494C0.307,-0.502 0.334,-0.506 0.364,-0.506C0.404,-0.506 0.439,-0.499 0.47,-0.484C0.5,-0.47 0.525,-0.45 0.545,-0.425C0.564,-0.401 0.578,-0.373 0.588,-0.342C0.597,-0.311 0.602,-0.279 0.602,-0.245ZM0.417,-0.249C0.417,-0.292 0.407,-0.324 0.388,-0.346C0.369,-0.369 0.346,-0.38 0.32,-0.38C0.293,-0.38 0.264,-0.369 0.231,-0.348L0.231,-0.158C0.256,-0.135 0.285,-0.123 0.32,-0.123C0.342,-0.123 0.363,-0.132 0.385,-0.15C0.406,-0.167 0.417,-0.201 0.417,-0.249Z" style="fill:rgb(255,128,28);fill-rule:nonzero;"/>
            </g>
            <g transform="matrix(132,0,0,132,201.738,0)">
                <path d="M0.445,-0.145C0.445,-0.099 0.428,-0.062 0.395,-0.034C0.361,-0.005 0.312,0.009 0.246,0.009C0.209,0.009 0.177,0.005 0.148,-0.001C0.119,-0.008 0.088,-0.017 0.054,-0.03L0.054,-0.155C0.084,-0.138 0.11,-0.125 0.131,-0.116C0.153,-0.107 0.177,-0.103 0.203,-0.103C0.247,-0.103 0.269,-0.115 0.269,-0.139C0.269,-0.147 0.266,-0.155 0.26,-0.161C0.253,-0.167 0.242,-0.174 0.226,-0.182C0.211,-0.19 0.189,-0.2 0.163,-0.211C0.131,-0.225 0.103,-0.244 0.08,-0.269C0.057,-0.293 0.046,-0.322 0.046,-0.357C0.046,-0.382 0.053,-0.405 0.069,-0.428C0.084,-0.451 0.107,-0.47 0.137,-0.484C0.168,-0.499 0.205,-0.506 0.248,-0.506C0.258,-0.506 0.272,-0.505 0.288,-0.504C0.304,-0.502 0.324,-0.498 0.349,-0.492C0.373,-0.486 0.397,-0.477 0.419,-0.466L0.419,-0.344C0.409,-0.35 0.4,-0.356 0.393,-0.36C0.386,-0.364 0.376,-0.369 0.365,-0.374C0.353,-0.379 0.339,-0.384 0.323,-0.388C0.308,-0.392 0.292,-0.394 0.275,-0.394C0.255,-0.394 0.241,-0.39 0.233,-0.382C0.226,-0.375 0.222,-0.367 0.222,-0.359C0.222,-0.351 0.226,-0.343 0.234,-0.336C0.242,-0.329 0.259,-0.32 0.286,-0.31C0.325,-0.295 0.356,-0.28 0.38,-0.264C0.403,-0.248 0.42,-0.231 0.43,-0.212C0.44,-0.193 0.445,-0.171 0.445,-0.145Z" style="fill:rgb(255,128,28);fill-rule:nonzero;"/>
            </g>
        </g>
    </g>
</svg>
