<?xml version="1.0" standalone="no"?>
<!DOCTYPE svg PUBLIC "-//W3C//DTD SVG 20010904//EN"
 "http://www.w3.org/TR/2001/REC-SVG-20010904/DTD/svg10.dtd">
<svg version="1.0" xmlns="http://www.w3.org/2000/svg"
 width="512.000000pt" height="512.000000pt" viewBox="0 0 512.000000 512.000000"
 preserveAspectRatio="xMidYMid meet">
<metadata>
Created by potrace 1.14, written by Peter Selinger 2001-2017
</metadata>
<g transform="translate(0.000000,512.000000) scale(0.100000,-0.100000)"
fill="#000000" stroke="none">
<path d="M823 5090 c-392 -45 -698 -320 -781 -705 -16 -74 -17 -207 -17 -1825
0 -1618 1 -1751 17 -1825 76 -349 336 -611 687 -692 71 -17 187 -18 1831 -15
1934 4 1828 0 1983 67 128 54 187 95 287 195 100 100 141 159 195 287 69 160
65 45 65 1983 0 1938 4 1823 -65 1983 -54 128 -95 187 -195 287 -100 100 -159
141 -287 195 -155 67 -54 63 -1938 69 -940 2 -1743 1 -1782 -4z m1896 -292
c190 -1241 300 -2154 289 -2397 -3 -67 -6 -76 -30 -94 -40 -30 -171 -34 -318
-11 -63 10 -137 18 -165 18 l-50 1 -6 -120 c-4 -66 -7 -240 -8 -387 l-1 -266
-67 15 c-106 23 -230 88 -463 243 -336 223 -429 259 -498 190 -51 -50 -57 -85
-57 -300 1 -214 11 -290 67 -485 42 -147 97 -281 152 -368 50 -82 171 -204
263 -265 144 -97 347 -178 511 -203 l82 -12 0 -124 0 -124 -822 3 c-818 4
-823 4 -896 26 -147 45 -250 106 -355 209 -100 99 -163 206 -210 358 l-22 70
-3 1740 c-2 1185 1 1762 8 1809 53 346 322 619 665 675 28 5 466 9 975 10
l926 1 33 -212z m1686 184 c296 -83 499 -288 577 -582 l23 -85 0 -1755 0
-1755 -23 -85 c-78 -294 -281 -499 -577 -582 -80 -23 -81 -23 -992 -26 l-913
-3 0 79 c0 44 3 100 6 126 l7 46 46 0 c191 0 547 212 733 437 194 234 275 414
394 870 30 118 64 234 75 259 10 25 19 56 19 69 0 47 -105 104 -165 89 -35 -9
-90 -64 -220 -223 -135 -163 -129 -157 -190 -207 -66 -54 -120 -81 -213 -105
-89 -23 -282 -35 -395 -25 l-77 8 0 350 c0 315 2 350 16 344 9 -3 70 -13 137
-22 264 -35 404 9 423 133 9 59 -18 452 -51 747 -46 400 -146 1122 -238 1714
l-33 213 775 -3 c769 -4 777 -4 856 -26z m-2821 -3084 c33 -17 141 -84 240
-151 303 -202 387 -245 539 -277 291 -61 611 -44 784 40 38 19 95 62 144 108
l82 77 -6 -125 c-10 -202 -56 -354 -117 -385 -64 -33 -809 -36 -1140 -5 -136
13 -341 45 -425 66 -74 19 -187 60 -207 77 -39 30 -73 412 -49 529 21 97 40
103 155 46z m746 -1113 c120 -23 315 -90 372 -126 76 -49 102 -123 56 -153
-54 -34 -158 -56 -268 -56 -265 0 -534 105 -729 286 l-64 59 59 7 c108 11 482
1 574 -17z"/>
<path d="M1620 4244 c-197 -45 -411 -204 -535 -398 -86 -135 -152 -313 -181
-485 -21 -130 -15 -343 15 -472 68 -300 250 -551 478 -660 102 -48 151 -60
279 -66 111 -5 129 -3 215 21 341 98 595 412 680 841 9 45 14 132 13 240 -1
188 -18 288 -76 435 -104 263 -298 458 -530 532 -85 26 -269 33 -358 12z m321
-90 c253 -75 447 -300 529 -610 96 -368 -7 -797 -255 -1062 -353 -379 -874
-300 -1118 168 -129 247 -157 534 -81 828 77 297 281 553 517 649 129 53 286
63 408 27z"/>
<path d="M1945 3226 c-153 -72 -192 -257 -81 -383 52 -59 104 -83 181 -83 77
0 129 24 181 83 111 126 72 311 -81 383 -32 15 -68 24 -100 24 -32 0 -68 -9
-100 -24z m93 -27 c77 -27 87 -141 16 -179 -28 -16 -75 -16 -103 0 -53 28 -63
116 -18 157 37 34 58 38 105 22z"/>
<path d="M4277 3616 c-109 -121 -235 -195 -417 -244 -85 -22 -117 -25 -295
-27 -186 -2 -200 -4 -212 -22 -16 -23 -9 -48 15 -59 32 -14 272 -16 370 -4
250 31 476 140 604 292 61 72 71 93 58 118 -21 38 -53 24 -123 -54z"/>
<path d="M3357 3202 c-21 -23 -21 -36 -1 -56 14 -14 75 -16 519 -16 444 0 505
2 519 16 21 20 20 37 -2 57 -17 15 -67 17 -519 17 -472 0 -501 -1 -516 -18z"/>
<path d="M3357 3072 c-21 -23 -21 -36 -1 -56 11 -12 36 -16 97 -16 113 0 243
-17 362 -47 194 -48 336 -120 456 -230 74 -67 110 -79 129 -43 15 28 3 47 -76
118 -194 175 -536 291 -860 292 -76 0 -94 -3 -107 -18z"/>
</g>
</svg>
