<svg id="Layer_6_copy" data-name="Layer 6 copy" xmlns="http://www.w3.org/2000/svg" xmlns:xlink="http://www.w3.org/1999/xlink" viewBox="0 0 151.04 151.04"><defs><style>.cls-1{fill:#fbb040;}.cls-2{fill:#231f20;}.cls-3,.cls-4{stroke:#231f20;stroke-miterlimit:10;}.cls-3{fill:url(#radial-gradient);}.cls-4{fill:none;}</style><radialGradient id="radial-gradient" cx="205.49" cy="245.63" r="75.02" gradientTransform="matrix(-0.09, 1, -1.42, -0.12, 573.31, 71.54)" gradientUnits="userSpaceOnUse"><stop offset="0.57" stop-color="#130c0e" stop-opacity="0"/><stop offset="0.8" stop-color="#130c0e" stop-opacity="0.65"/><stop offset="0.82" stop-color="#130c0e" stop-opacity="0.7"/><stop offset="1" stop-color="#130c0e" stop-opacity="0.95"/></radialGradient></defs><title>hiive-logo</title><path class="cls-1" d="M255.36,189.61q.68.6,1.33,1.21Q256,190.21,255.36,189.61Z" transform="translate(-129.96 -170.11)"/><path class="cls-1" d="M131.71,232.2l5.82-18.25A75.11,75.11,0,0,0,131.71,232.2Z" transform="translate(-129.96 -170.11)"/><path class="cls-1" d="M269.26,206.15q.44.71.85,1.4C269.83,207.08,269.55,206.62,269.26,206.15Z" transform="translate(-129.96 -170.11)"/><path class="cls-1" d="M173.81,313.62l0,0-.06,0Z" transform="translate(-129.96 -170.11)"/><path class="cls-1" d="M177.53,315.23l-.35-.14Z" transform="translate(-129.96 -170.11)"/><path class="cls-1" d="M192.71,273.09c-34.94-16.29-60.88-35.22-61.09-40.31a74.51,74.51,0,0,0-1,17.15h0a1.71,1.71,0,0,0,.11,1.38A75.21,75.21,0,0,0,134,268.16l-3-16.4c3.35,6,26.22,20.77,55.63,34.48S242,308,248.75,306.69l-14.51,8.23a75.22,75.22,0,0,0,15-8.34,1.71,1.71,0,0,0,1.13-.8h0A74.51,74.51,0,0,0,262.87,294C258.84,297.09,227.66,289.39,192.71,273.09Z" transform="translate(-129.96 -170.11)"/><path class="cls-1" d="M134.82,270.65a75.32,75.32,0,0,0,8.29,16.61,9.86,9.86,0,0,0,2.36,3.33q1.09,1.46,2.26,2.87c-.64-.82-1.21-1.6-1.7-2.31,5,4.9,15.69,12.26,29.55,18.72,12.91,6,24.66,9.46,31.82,10.42a74,74,0,0,1-24.31-3.15c-.86-.24-1.79-.54-2.77-.88a74.51,74.51,0,0,0,29.37,4.26,9.86,9.86,0,0,0,4.07-.34,75.32,75.32,0,0,0,18-4.33c-7.06.46-28.16-5.41-51.45-16.27S139,276.36,134.82,270.65Z" transform="translate(-129.96 -170.11)"/><path class="cls-1" d="M160.39,185.73a74.5,74.5,0,0,0-12.19,11.54l.11-.07Z" transform="translate(-129.96 -170.11)"/><path class="cls-1" d="M271.54,210.06l.07.14Z" transform="translate(-129.96 -170.11)"/><path class="cls-1" d="M273.48,277.34l-10.24,16.2A75.1,75.1,0,0,0,273.48,277.34Z" transform="translate(-129.96 -170.11)"/><path class="cls-1" d="M233.55,176.09l.23.09Z" transform="translate(-129.96 -170.11)"/><path d="M223.56,206.86c27.68,12.91,51.84,19.67,53.45,16.23v0c.2-.47,0-1.11-.59-1.91a69.14,69.14,0,0,0-4.81-10.95l-.07-.14c-.44-.82-.92-1.65-1.43-2.51q-.41-.69-.85-1.4l-.29-.46q-.56-.89-1.17-1.79a1.33,1.33,0,0,1,.1,1.1c-1.32,2.84-17.88-2.08-38.1-11.51s-34.63-18.95-33.31-21.78a1,1,0,0,1,.3-.35A80.93,80.93,0,0,0,182,174.45c-1.3.41-2.39.78-3.22,1.1-1.08.06-1.78.31-2,.8v0C175.29,179.87,196,194,223.56,206.86Z" transform="translate(-129.96 -170.11)"/><path d="M245.42,182.14l.49.31Z" transform="translate(-129.96 -170.11)"/><path d="M248,183.81l.24.16Z" transform="translate(-129.96 -170.11)"/><path d="M265.69,201.35a15.54,15.54,0,0,1,1.18,1.2,75.86,75.86,0,0,0-9.38-11l-.8-.76q-.65-.61-1.33-1.21l-1-.86A65,65,0,0,1,265.69,201.35Z" transform="translate(-129.96 -170.11)"/><path d="M253.51,188l-.54-.46-.58-.47Z" transform="translate(-129.96 -170.11)"/><path d="M200.5,171q.81.1,1.75.27a88,88,0,0,1,22.53,2.14c-1.62-.23-2.7-.1-3,.45-.72,1.53,5,5.73,12.83,9.36s14.71,5.34,15.42,3.81c.49-1.05-2.05-3.35-6.2-5.86l-.29-.17-.6-.35h0l-.1-.06c-1.1-.63-2.29-1.28-3.55-1.91l-.19-.1c-.63-.31-1.27-.63-1.93-.94h0l-.07,0c-1.15-.53-2.28-1-3.37-1.47l-.23-.09c-1-.42-2-.79-3-1.12l-1.58-.52A75.31,75.31,0,0,0,200.5,171Z" transform="translate(-129.96 -170.11)"/><path d="M250.88,185.91l-.49-.38-.06,0Z" transform="translate(-129.96 -170.11)"/><path class="cls-1" d="M196.49,171.7c-1.32,2.84,13.09,12.36,33.31,21.78s36.77,14.35,38.1,11.51a1.33,1.33,0,0,0-.1-1.1q.61.91,1.17,1.79c-.41-.65-.81-1.29-1.23-1.93a6,6,0,0,0-.83-1.18,74.58,74.58,0,0,0-9.41-11,75.86,75.86,0,0,1,9.38,11,15.54,15.54,0,0,0-1.18-1.2,65,65,0,0,0-11.32-12.6l-.5-.43-.91-.76.54.46-1.13-.93q-.73-.59-1.5-1.17l-.56-.42.06,0-.22-.17q-.95-.7-1.95-1.4l-.24-.16-.66-.45-.18-.12-1.22-.79-.49-.31-1.26-.77-.28-.17c4.15,2.51,6.69,4.81,6.2,5.86-.72,1.53-7.62-.17-15.42-3.81s-13.55-7.83-12.83-9.36c.26-.55,1.33-.68,3-.45a88,88,0,0,0-22.53-2.14q-.95-.18-1.75-.27A75.31,75.31,0,0,1,229,174.44l1.58.52a74.49,74.49,0,0,0-31.31-4,6,6,0,0,0-1.9.16A75.27,75.27,0,0,0,182,174.45a80.93,80.93,0,0,1,14.79-3.09A1,1,0,0,0,196.49,171.7Z" transform="translate(-129.96 -170.11)"/><path class="cls-1" d="M239.18,178.63l.19.1Z" transform="translate(-129.96 -170.11)"/><path class="cls-1" d="M237.22,177.68h0l-.05,0Z" transform="translate(-129.96 -170.11)"/><path class="cls-1" d="M243.58,181l-.57-.33h0Z" transform="translate(-129.96 -170.11)"/><path d="M208.35,239.48c36.32,16.94,69,23.69,70.94,19.56a1,1,0,0,0,.09-.42h0a1.62,1.62,0,0,0,0-.31l1-17c-1.93,4.13-30.29-5-63.36-20.44s-58.31-31.27-56.39-35.4l-.24.23L148.3,197.21l-.11.07a1.14,1.14,0,0,0-.43.44s0,0,0,.07C146.11,202.06,172.21,222.63,208.35,239.48Z" transform="translate(-129.96 -170.11)"/><path d="M192.71,273.09c34.94,16.29,66.13,24,70.15,20.88a1.18,1.18,0,0,0,.36-.41v0l10.24-16.2c-2.52,5.4-35.4-3.5-72.91-21s-65.47-37-63-42.36l-.08,0-5.82,18.25v0a1.18,1.18,0,0,0-.08.55C131.83,237.87,157.78,256.8,192.71,273.09Z" transform="translate(-129.96 -170.11)"/><path d="M186.58,286.24c-29.41-13.71-52.28-28.48-55.63-34.48l3,16.4v0c-.25.55,0,1.39.84,2.46,4.19,5.71,22.24,18.09,45.53,29s44.38,16.73,51.45,16.27c1.33-.09,2.17-.4,2.42-.94l0,0,14.51-8.23C242,308,216,299.95,186.58,286.24Z" transform="translate(-129.96 -170.11)"/><path d="M207.38,320.3c-7.16-1-18.91-4.4-31.82-10.42C161.7,303.41,151,296.06,146,291.16c.49.71,1.07,1.49,1.7,2.31a69,69,0,0,0,22.7,18.47l.82.43.68.34c.6.3,1.2.59,1.83.88l0,0,.06,0c1.13.53,2.24,1,3.32,1.45l.35.14c1,.39,1.89.74,2.77,1s1.91.64,2.77.88A74,74,0,0,0,207.38,320.3Z" transform="translate(-129.96 -170.11)"/><path class="cls-1" d="M200.57,256.35c37.52,17.5,70.4,26.39,72.91,21a75.06,75.06,0,0,0,5.9-18.72,1,1,0,0,1-.09.42c-1.93,4.13-34.62-2.63-70.94-19.56-36.14-16.85-62.24-37.42-60.6-41.7a75.11,75.11,0,0,0-10.21,16.16l.08,0C135.1,219.39,163.05,238.85,200.57,256.35Z" transform="translate(-129.96 -170.11)"/><path class="cls-1" d="M217,220.9c33.07,15.42,61.43,24.57,63.36,20.44l-1,17a1.62,1.62,0,0,1,0,.31,74.52,74.52,0,0,0,1-17.36,1.44,1.44,0,0,0-.08-1.05A75.21,75.21,0,0,0,277,223.06v0c-1.6,3.44-25.77-3.32-53.45-16.23s-48.27-27-46.8-30.48a75.22,75.22,0,0,0-15.06,8.39,1.51,1.51,0,0,0-1.08.73C158.7,189.64,183.95,205.48,217,220.9Z" transform="translate(-129.96 -170.11)"/><path class="cls-1" d="M255.36,189.61q.68.6,1.33,1.21Q256,190.21,255.36,189.61Z" transform="translate(-129.96 -170.11)"/><path class="cls-1" d="M131.71,232.2l5.82-18.25A75.11,75.11,0,0,0,131.71,232.2Z" transform="translate(-129.96 -170.11)"/><path class="cls-1" d="M269.26,206.15q.44.71.85,1.4C269.83,207.08,269.55,206.62,269.26,206.15Z" transform="translate(-129.96 -170.11)"/><path class="cls-1" d="M173.81,313.62l0,0-.06,0Z" transform="translate(-129.96 -170.11)"/><path class="cls-1" d="M177.53,315.23l-.35-.14Z" transform="translate(-129.96 -170.11)"/><path class="cls-1" d="M160.39,185.73a74.5,74.5,0,0,0-12.19,11.54l.11-.07Z" transform="translate(-129.96 -170.11)"/><path class="cls-1" d="M271.54,210.06l.07.14Z" transform="translate(-129.96 -170.11)"/><path class="cls-1" d="M273.48,277.34l-10.24,16.2A75.1,75.1,0,0,0,273.48,277.34Z" transform="translate(-129.96 -170.11)"/><path class="cls-1" d="M233.55,176.09l.23.09Z" transform="translate(-129.96 -170.11)"/><path d="M245.42,182.14l.49.31Z" transform="translate(-129.96 -170.11)"/><path d="M248,183.81l.24.16Z" transform="translate(-129.96 -170.11)"/><path d="M265.69,201.35a15.54,15.54,0,0,1,1.18,1.2,75.86,75.86,0,0,0-9.38-11l-.8-.76q-.65-.61-1.33-1.21l-1-.86A65,65,0,0,1,265.69,201.35Z" transform="translate(-129.96 -170.11)"/><path d="M253.51,188l-.54-.46-.58-.47Z" transform="translate(-129.96 -170.11)"/><path d="M250.88,185.91l-.49-.38-.06,0Z" transform="translate(-129.96 -170.11)"/><path class="cls-1" d="M239.18,178.63l.19.1Z" transform="translate(-129.96 -170.11)"/><path class="cls-1" d="M237.22,177.68h0l-.05,0Z" transform="translate(-129.96 -170.11)"/><path class="cls-1" d="M243.58,181l-.57-.33h0Z" transform="translate(-129.96 -170.11)"/><path class="cls-1" d="M221.83,173.88c-.45,1,1.64,3,5.19,5.23a22.26,22.26,0,0,1,10.16-1.45h0c-1.15-.53-2.28-1-3.37-1.47l-.23-.09c-1-.42-2-.79-3-1.12l-1.58-.52A75.31,75.31,0,0,0,200.5,171q.81.1,1.75.27a88,88,0,0,1,22.53,2.14C223.16,173.2,222.08,173.33,221.83,173.88Z" transform="translate(-129.96 -170.11)"/><path class="cls-2" d="M229,174.44l-.21-.06c.6.2,1.2.37,1.8.58Z" transform="translate(-129.96 -170.11)"/><path class="cls-2" d="M227,179.11c-3.54-2.26-5.63-4.27-5.19-5.23.26-.55,1.33-.68,3-.45a88,88,0,0,0-22.53-2.14q-.95-.18-1.75-.27a75.37,75.37,0,0,1,28.28,3.36,74.5,74.5,0,0,0-29.52-3.46,6,6,0,0,0-1.9.16A75.27,75.27,0,0,0,182,174.45a80.93,80.93,0,0,1,14.79-3.09,1,1,0,0,0-.3.35c-1,2.07,6.45,7.7,18.38,14.25A48.89,48.89,0,0,1,227,179.11Z" transform="translate(-129.96 -170.11)"/><path class="cls-1" d="M214.87,186c-11.93-6.55-19.34-12.18-18.38-14.25a1,1,0,0,1,.3-.35A80.93,80.93,0,0,0,182,174.45c-1.3.41-2.39.78-3.22,1.1-1.08.06-1.78.31-2,.8v0c-1.08,2.55,9.68,10.78,26.33,20.05A98.54,98.54,0,0,1,214.87,186Z" transform="translate(-129.96 -170.11)"/><path class="cls-2" d="M203.1,196.43c-16.65-9.27-27.41-17.5-26.33-20.05a75.22,75.22,0,0,0-15.06,8.39,1.51,1.51,0,0,0-1.08.73c-1.41,3,11.76,12.33,31.89,23.15A148.74,148.74,0,0,1,203.1,196.43Z" transform="translate(-129.96 -170.11)"/><path class="cls-1" d="M192.52,208.66c-20.13-10.82-33.3-20.13-31.89-23.15l-.24.23L148.3,197.21l-.11.07a1.14,1.14,0,0,0-.43.44s0,0,0,.07c-1.19,3.1,12.25,14.79,33.52,27.41A153.6,153.6,0,0,1,192.52,208.66Z" transform="translate(-129.96 -170.11)"/><path class="cls-2" d="M177.39,232.53c1-2.23,2.35-4.71,3.88-7.33-21.27-12.62-34.7-24.31-33.52-27.41a75.11,75.11,0,0,0-10.21,16.16l.08,0c-1.86,4,12.9,15.64,35.85,28.51A98.88,98.88,0,0,1,177.39,232.53Z" transform="translate(-129.96 -170.11)"/><path class="cls-1" d="M173.47,242.5C150.52,229.63,135.76,218,137.62,214l-.08,0-5.82,18.25v0a1.18,1.18,0,0,0-.08.55c.16,3.83,14.84,15.46,36.95,27.92A157.77,157.77,0,0,1,173.47,242.5Z" transform="translate(-129.96 -170.11)"/><path class="cls-2" d="M166.2,276a146.57,146.57,0,0,1,2.37-15.34c-22.11-12.46-36.79-24.09-36.95-27.92a74.51,74.51,0,0,0-1,17.15h0a1.71,1.71,0,0,0,.11,1.38A75.21,75.21,0,0,0,134,268.16l-3-16.4C133.48,256.28,147.07,265.77,166.2,276Z" transform="translate(-129.96 -170.11)"/><path class="cls-1" d="M166.2,276c-19.12-10.27-32.72-19.76-35.24-24.28l3,16.4v0c-.25.55,0,1.39.84,2.46,3.27,4.46,15,13,31.06,21.68A95.33,95.33,0,0,1,166.2,276Z" transform="translate(-129.96 -170.11)"/><path class="cls-2" d="M169.07,306.67a44.4,44.4,0,0,1-3.2-14.34c-16.07-8.69-27.79-17.22-31.06-21.68a75.32,75.32,0,0,0,8.29,16.61,9.86,9.86,0,0,0,2.36,3.33q1.09,1.46,2.26,2.87c-.64-.82-1.21-1.6-1.7-2.31C150.16,295.26,158.37,301.09,169.07,306.67Z" transform="translate(-129.96 -170.11)"/><path class="cls-1" d="M169.07,306.67c-10.7-5.58-18.91-11.41-23.06-15.51.49.71,1.07,1.49,1.7,2.31a69,69,0,0,0,22.7,18.47l.82.43.68.34c.6.3,1.2.59,1.83.88l0,0A21,21,0,0,1,169.07,306.67Z" transform="translate(-129.96 -170.11)"/><circle class="cls-3" cx="205.49" cy="245.63" r="75" transform="translate(-239.78 19.44) rotate(-40)"/><circle class="cls-4" cx="205.48" cy="245.63" r="75" transform="translate(-233.94 157.94) rotate(-65)"/></svg>