<svg xmlns="http://www.w3.org/2000/svg" width="2481.0px" height="3510.0px" version="1.1"><polygon points="75.0,0.0 37.50000000000001,64.9519052838329 -37.499999999999986,64.9519052838329 -75.0,9.184850993605149e-15 -37.500000000000036,-64.95190528383287 37.50000000000001,-64.9519052838329" stroke="#FFFFFFFF" fill="#F36619E5" stroke-width="15.0" /><polygon points="187.5,64.9519052838329 150.0,129.9038105676658 75.00000000000001,129.9038105676658 37.5,64.95190528383291 74.99999999999997,2.842170943040401e-14 150.0,0.0" stroke="#FFFFFFFF" fill="#F36619DA" stroke-width="15.0" /><polygon points="300.0,0.0 262.5,64.9519052838329 187.5,64.9519052838329 150.0,9.184850993605149e-15 187.49999999999997,-64.95190528383287 262.5,-64.9519052838329" stroke="#FFFFFFFF" fill="#F36619E5" stroke-width="15.0" /><polygon points="412.5,64.9519052838329 375.0,129.9038105676658 300.0,129.9038105676658 262.5,64.95190528383291 299.99999999999994,2.842170943040401e-14 375.0,0.0" stroke="#FFFFFFFF" fill="#F36619DA" stroke-width="15.0" /><polygon points="525.0,0.0 487.5,64.9519052838329 412.5,64.9519052838329 375.0,9.184850993605149e-15 412.49999999999994,-64.95190528383287 487.5,-64.9519052838329" stroke="#FFFFFFFF" fill="#F36619E5" stroke-width="15.0" /><polygon points="637.5,64.9519052838329 600.0,129.9038105676658 525.0,129.9038105676658 487.5,64.95190528383291 525.0,2.842170943040401e-14 600.0,0.0" stroke="#FFFFFFFF" fill="#F36619DA" stroke-width="15.0" /><polygon points="750.0,0.0 712.5,64.9519052838329 637.5,64.9519052838329 600.0,9.184850993605149e-15 637.5,-64.95190528383287 712.5,-64.9519052838329" stroke="#FFFFFFFF" fill="#F36619E5" stroke-width="15.0" /><polygon points="862.5,64.9519052838329 825.0,129.9038105676658 750.0,129.9038105676658 712.5,64.95190528383291 750.0,2.842170943040401e-14 825.0,0.0" stroke="#FFFFFFFF" fill="#F36619DA" stroke-width="15.0" /><polygon points="975.0,0.0 937.5,64.9519052838329 862.5,64.9519052838329 825.0,9.184850993605149e-15 862.5,-64.95190528383287 937.5,-64.9519052838329" stroke="#FFFFFFFF" fill="#F36619E5" stroke-width="15.0" /><polygon points="1087.5,64.9519052838329 1050.0,129.9038105676658 975.0,129.9038105676658 937.5,64.95190528383291 975.0,2.842170943040401e-14 1050.0,0.0" stroke="#FFFFFFFF" fill="#F36619DA" stroke-width="15.0" /><polygon points="1200.0,0.0 1162.5,64.9519052838329 1087.5,64.9519052838329 1050.0,9.184850993605149e-15 1087.5,-64.95190528383287 1162.5,-64.9519052838329" stroke="#FFFFFFFF" fill="#F36619E5" stroke-width="15.0" /><polygon points="1312.5,64.9519052838329 1275.0,129.9038105676658 1200.0,129.9038105676658 1162.5,64.95190528383291 1200.0,2.842170943040401e-14 1275.0,0.0" stroke="#FFFFFFFF" fill="#F36619DA" stroke-width="15.0" /><polygon points="1425.0,0.0 1387.5,64.9519052838329 1312.5,64.9519052838329 1275.0,9.184850993605149e-15 1312.5,-64.95190528383287 1387.5,-64.9519052838329" stroke="#FFFFFFFF" fill="#F36619E5" stroke-width="15.0" /><polygon points="1537.5,64.9519052838329 1500.0,129.9038105676658 1425.0,129.9038105676658 1387.5,64.95190528383291 1425.0,2.842170943040401e-14 1500.0,0.0" stroke="#FFFFFFFF" fill="#F36619DA" stroke-width="15.0" /><polygon points="1650.0,0.0 1612.5,64.9519052838329 1537.5,64.9519052838329 1500.0,9.184850993605149e-15 1537.5,-64.95190528383287 1612.5,-64.9519052838329" stroke="#FFFFFFFF" fill="#F36619E5" stroke-width="15.0" /><polygon points="1762.5,64.9519052838329 1725.0,129.9038105676658 1650.0,129.9038105676658 1612.5,64.95190528383291 1650.0,2.842170943040401e-14 1725.0,0.0" stroke="#FFFFFFFF" fill="#F36619DA" stroke-width="15.0" /><polygon points="1875.0,0.0 1837.5,64.9519052838329 1762.5,64.9519052838329 1725.0,9.184850993605149e-15 1762.5,-64.95190528383287 1837.5,-64.9519052838329" stroke="#FFFFFFFF" fill="#F36619E5" stroke-width="15.0" /><polygon points="1987.5,64.9519052838329 1950.0,129.9038105676658 1875.0,129.9038105676658 1837.5,64.95190528383291 1875.0,2.842170943040401e-14 1950.0,0.0" stroke="#FFFFFFFF" fill="#F36619DA" stroke-width="15.0" /><polygon points="2100.0,0.0 2062.5,64.9519052838329 1987.5,64.9519052838329 1950.0,9.184850993605149e-15 1987.5,-64.95190528383287 2062.5,-64.9519052838329" stroke="#FFFFFFFF" fill="#F36619E5" stroke-width="15.0" /><polygon points="2212.5,64.9519052838329 2175.0,129.9038105676658 2100.0,129.9038105676658 2062.5,64.95190528383291 2100.0,2.842170943040401e-14 2175.0,0.0" stroke="#FFFFFFFF" fill="#F36619DA" stroke-width="15.0" /><polygon points="2325.0,0.0 2287.5,64.9519052838329 2212.5,64.9519052838329 2175.0,9.184850993605149e-15 2212.5,-64.95190528383287 2287.5,-64.9519052838329" stroke="#FFFFFFFF" fill="#F36619E5" stroke-width="15.0" /><polygon points="2437.5,64.9519052838329 2400.0,129.9038105676658 2325.0,129.9038105676658 2287.5,64.95190528383291 2325.0,2.842170943040401e-14 2400.0,0.0" stroke="#FFFFFFFF" fill="#F36619DA" stroke-width="15.0" /><polygon points="2550.0,0.0 2512.5,64.9519052838329 2437.5,64.9519052838329 2400.0,9.184850993605149e-15 2437.5,-64.95190528383287 2512.5,-64.9519052838329" stroke="#FFFFFFFF" fill="#F36619E5" stroke-width="15.0" /><polygon points="75.0,129.9038105676658 37.50000000000001,194.8557158514987 -37.499999999999986,194.8557158514987 -75.0,129.9038105676658 -37.500000000000036,64.95190528383293 37.50000000000001,64.9519052838329" stroke="#FFFFFFFF" fill="#F36619D0" stroke-width="15.0" /><polygon points="187.5,194.8557158514987 150.0,259.8076211353316 75.00000000000001,259.8076211353316 37.5,194.8557158514987 74.99999999999997,129.90381056766583 150.0,129.9038105676658" stroke="#FFFFFFFF" fill="#F36619C5" stroke-width="15.0" /><polygon points="300.0,129.9038105676658 262.5,194.8557158514987 187.5,194.8557158514987 150.0,129.9038105676658 187.49999999999997,64.95190528383293 262.5,64.9519052838329" stroke="#FFFFFFFF" fill="#F36619D0" stroke-width="15.0" /><polygon points="412.5,194.8557158514987 375.0,259.8076211353316 300.0,259.8076211353316 262.5,194.8557158514987 299.99999999999994,129.90381056766583 375.0,129.9038105676658" stroke="#FFFFFFFF" fill="#F36619C5" stroke-width="15.0" /><polygon points="525.0,129.9038105676658 487.5,194.8557158514987 412.5,194.8557158514987 375.0,129.9038105676658 412.49999999999994,64.95190528383293 487.5,64.9519052838329" stroke="#FFFFFFFF" fill="#F36619D0" stroke-width="15.0" /><polygon points="637.5,194.8557158514987 600.0,259.8076211353316 525.0,259.8076211353316 487.5,194.8557158514987 525.0,129.90381056766583 600.0,129.9038105676658" stroke="#FFFFFFFF" fill="#F36619C5" stroke-width="15.0" /><polygon points="750.0,129.9038105676658 712.5,194.8557158514987 637.5,194.8557158514987 600.0,129.9038105676658 637.5,64.95190528383293 712.5,64.9519052838329" stroke="#FFFFFFFF" fill="#404040D0" stroke-width="15.0" /><polygon points="975.0,129.9038105676658 937.5,194.8557158514987 862.5,194.8557158514987 825.0,129.9038105676658 862.5,64.95190528383293 937.5,64.9519052838329" stroke="#FFFFFFFF" fill="#F36619D0" stroke-width="15.0" /><polygon points="1087.5,194.8557158514987 1050.0,259.8076211353316 975.0,259.8076211353316 937.5,194.8557158514987 975.0,129.90381056766583 1050.0,129.9038105676658" stroke="#FFFFFFFF" fill="#F36619C5" stroke-width="15.0" /><polygon points="1200.0,129.9038105676658 1162.5,194.8557158514987 1087.5,194.8557158514987 1050.0,129.9038105676658 1087.5,64.95190528383293 1162.5,64.9519052838329" stroke="#FFFFFFFF" fill="#F36619D0" stroke-width="15.0" /><polygon points="1312.5,194.8557158514987 1275.0,259.8076211353316 1200.0,259.8076211353316 1162.5,194.8557158514987 1200.0,129.90381056766583 1275.0,129.9038105676658" stroke="#FFFFFFFF" fill="#404040C5" stroke-width="15.0" /><polygon points="1425.0,129.9038105676658 1387.5,194.8557158514987 1312.5,194.8557158514987 1275.0,129.9038105676658 1312.5,64.95190528383293 1387.5,64.9519052838329" stroke="#FFFFFFFF" fill="#404040D0" stroke-width="15.0" /><polygon points="1537.5,194.8557158514987 1500.0,259.8076211353316 1425.0,259.8076211353316 1387.5,194.8557158514987 1425.0,129.90381056766583 1500.0,129.9038105676658" stroke="#FFFFFFFF" fill="#F36619C5" stroke-width="15.0" /><polygon points="1650.0,129.9038105676658 1612.5,194.8557158514987 1537.5,194.8557158514987 1500.0,129.9038105676658 1537.5,64.95190528383293 1612.5,64.9519052838329" stroke="#FFFFFFFF" fill="#F36619D0" stroke-width="15.0" /><polygon points="1762.5,194.8557158514987 1725.0,259.8076211353316 1650.0,259.8076211353316 1612.5,194.8557158514987 1650.0,129.90381056766583 1725.0,129.9038105676658" stroke="#FFFFFFFF" fill="#F36619C5" stroke-width="15.0" /><polygon points="1875.0,129.9038105676658 1837.5,194.8557158514987 1762.5,194.8557158514987 1725.0,129.9038105676658 1762.5,64.95190528383293 1837.5,64.9519052838329" stroke="#FFFFFFFF" fill="#F36619D0" stroke-width="15.0" /><polygon points="1987.5,194.8557158514987 1950.0,259.8076211353316 1875.0,259.8076211353316 1837.5,194.8557158514987 1875.0,129.90381056766583 1950.0,129.9038105676658" stroke="#FFFFFFFF" fill="#F36619C5" stroke-width="15.0" /><polygon points="2100.0,129.9038105676658 2062.5,194.8557158514987 1987.5,194.8557158514987 1950.0,129.9038105676658 1987.5,64.95190528383293 2062.5,64.9519052838329" stroke="#FFFFFFFF" fill="#F36619D0" stroke-width="15.0" /><polygon points="2212.5,194.8557158514987 2175.0,259.8076211353316 2100.0,259.8076211353316 2062.5,194.8557158514987 2100.0,129.90381056766583 2175.0,129.9038105676658" stroke="#FFFFFFFF" fill="#F36619C5" stroke-width="15.0" /><polygon points="2325.0,129.9038105676658 2287.5,194.8557158514987 2212.5,194.8557158514987 2175.0,129.9038105676658 2212.5,64.95190528383293 2287.5,64.9519052838329" stroke="#FFFFFFFF" fill="#F36619D0" stroke-width="15.0" /><polygon points="2437.5,194.8557158514987 2400.0,259.8076211353316 2325.0,259.8076211353316 2287.5,194.8557158514987 2325.0,129.90381056766583 2400.0,129.9038105676658" stroke="#FFFFFFFF" fill="#F36619C5" stroke-width="15.0" /><polygon points="2550.0,129.9038105676658 2512.5,194.8557158514987 2437.5,194.8557158514987 2400.0,129.9038105676658 2437.5,64.95190528383293 2512.5,64.9519052838329" stroke="#FFFFFFFF" fill="#F36619D0" stroke-width="15.0" /><polygon points="75.0,259.8076211353316 37.50000000000001,324.7595264191645 -37.499999999999986,324.7595264191645 -75.0,259.8076211353316 -37.500000000000036,194.85571585149873 37.50000000000001,194.8557158514987" stroke="#FFFFFFFF" fill="#F36619BB" stroke-width="15.0" /><polygon points="187.5,324.7595264191645 150.0,389.7114317029974 75.00000000000001,389.7114317029974 37.5,324.7595264191645 74.99999999999997,259.8076211353316 150.0,259.8076211353316" stroke="#FFFFFFFF" fill="#404040B0" stroke-width="15.0" /><polygon points="300.0,259.8076211353316 262.5,324.7595264191645 187.5,324.7595264191645 150.0,259.8076211353316 187.49999999999997,194.85571585149873 262.5,194.8557158514987" stroke="#FFFFFFFF" fill="#F36619BB" stroke-width="15.0" /><polygon points="412.5,324.7595264191645 375.0,389.7114317029974 300.0,389.7114317029974 262.5,324.7595264191645 299.99999999999994,259.8076211353316 375.0,259.8076211353316" stroke="#FFFFFFFF" fill="#F36619B0" stroke-width="15.0" /><polygon points="525.0,259.8076211353316 487.5,324.7595264191645 412.5,324.7595264191645 375.0,259.8076211353316 412.49999999999994,194.85571585149873 487.5,194.8557158514987" stroke="#FFFFFFFF" fill="#F36619BB" stroke-width="15.0" /><polygon points="637.5,324.7595264191645 600.0,389.7114317029974 525.0,389.7114317029974 487.5,324.7595264191645 525.0,259.8076211353316 600.0,259.8076211353316" stroke="#FFFFFFFF" fill="#F36619B0" stroke-width="15.0" /><polygon points="975.0,259.8076211353316 937.5,324.7595264191645 862.5,324.7595264191645 825.0,259.8076211353316 862.5,194.85571585149873 937.5,194.8557158514987" stroke="#FFFFFFFF" fill="#F36619BB" stroke-width="15.0" /><polygon points="1087.5,324.7595264191645 1050.0,389.7114317029974 975.0,389.7114317029974 937.5,324.7595264191645 975.0,259.8076211353316 1050.0,259.8076211353316" stroke="#FFFFFFFF" fill="#F36619B0" stroke-width="15.0" /><polygon points="1200.0,259.8076211353316 1162.5,324.7595264191645 1087.5,324.7595264191645 1050.0,259.8076211353316 1087.5,194.85571585149873 1162.5,194.8557158514987" stroke="#FFFFFFFF" fill="#F36619BB" stroke-width="15.0" /><polygon points="1312.5,324.7595264191645 1275.0,389.7114317029974 1200.0,389.7114317029974 1162.5,324.7595264191645 1200.0,259.8076211353316 1275.0,259.8076211353316" stroke="#FFFFFFFF" fill="#F36619B0" stroke-width="15.0" /><polygon points="1425.0,259.8076211353316 1387.5,324.7595264191645 1312.5,324.7595264191645 1275.0,259.8076211353316 1312.5,194.85571585149873 1387.5,194.8557158514987" stroke="#FFFFFFFF" fill="#F36619BB" stroke-width="15.0" /><polygon points="1537.5,324.7595264191645 1500.0,389.7114317029974 1425.0,389.7114317029974 1387.5,324.7595264191645 1425.0,259.8076211353316 1500.0,259.8076211353316" stroke="#FFFFFFFF" fill="#F36619B0" stroke-width="15.0" /><polygon points="1762.5,324.7595264191645 1725.0,389.7114317029974 1650.0,389.7114317029974 1612.5,324.7595264191645 1650.0,259.8076211353316 1725.0,259.8076211353316" stroke="#FFFFFFFF" fill="#F36619B0" stroke-width="15.0" /><polygon points="1875.0,259.8076211353316 1837.5,324.7595264191645 1762.5,324.7595264191645 1725.0,259.8076211353316 1762.5,194.85571585149873 1837.5,194.8557158514987" stroke="#FFFFFFFF" fill="#F36619BB" stroke-width="15.0" /><polygon points="2100.0,259.8076211353316 2062.5,324.7595264191645 1987.5,324.7595264191645 1950.0,259.8076211353316 1987.5,194.85571585149873 2062.5,194.8557158514987" stroke="#FFFFFFFF" fill="#F36619BB" stroke-width="15.0" /><polygon points="2212.5,324.7595264191645 2175.0,389.7114317029974 2100.0,389.7114317029974 2062.5,324.7595264191645 2100.0,259.8076211353316 2175.0,259.8076211353316" stroke="#FFFFFFFF" fill="#F36619B0" stroke-width="15.0" /><polygon points="2325.0,259.8076211353316 2287.5,324.7595264191645 2212.5,324.7595264191645 2175.0,259.8076211353316 2212.5,194.85571585149873 2287.5,194.8557158514987" stroke="#FFFFFFFF" fill="#F36619BB" stroke-width="15.0" /><polygon points="2437.5,324.7595264191645 2400.0,389.7114317029974 2325.0,389.7114317029974 2287.5,324.7595264191645 2325.0,259.8076211353316 2400.0,259.8076211353316" stroke="#FFFFFFFF" fill="#F36619B0" stroke-width="15.0" /><polygon points="2550.0,259.8076211353316 2512.5,324.7595264191645 2437.5,324.7595264191645 2400.0,259.8076211353316 2437.5,194.85571585149873 2512.5,194.8557158514987" stroke="#FFFFFFFF" fill="#F36619BB" stroke-width="15.0" /><polygon points="75.0,389.7114317029974 37.50000000000001,454.6633369868303 -37.499999999999986,454.6633369868303 -75.0,389.7114317029974 -37.500000000000036,324.75952641916456 37.50000000000001,324.7595264191645" stroke="#FFFFFFFF" fill="#F36619A5" stroke-width="15.0" /><polygon points="187.5,454.6633369868303 150.0,519.6152422706632 75.00000000000001,519.6152422706632 37.5,454.6633369868303 74.99999999999997,389.7114317029974 150.0,389.7114317029974" stroke="#FFFFFFFF" fill="#F366199B" stroke-width="15.0" /><polygon points="300.0,389.7114317029974 262.5,454.6633369868303 187.5,454.6633369868303 150.0,389.7114317029974 187.49999999999997,324.75952641916456 262.5,324.7595264191645" stroke="#FFFFFFFF" fill="#F36619A5" stroke-width="15.0" /><polygon points="412.5,454.6633369868303 375.0,519.6152422706632 300.0,519.6152422706632 262.5,454.6633369868303 299.99999999999994,389.7114317029974 375.0,389.7114317029974" stroke="#FFFFFFFF" fill="#F366199B" stroke-width="15.0" /><polygon points="525.0,389.7114317029974 487.5,454.6633369868303 412.5,454.6633369868303 375.0,389.7114317029974 412.49999999999994,324.75952641916456 487.5,324.7595264191645" stroke="#FFFFFFFF" fill="#F36619A5" stroke-width="15.0" /><polygon points="637.5,454.6633369868303 600.0,519.6152422706632 525.0,519.6152422706632 487.5,454.6633369868303 525.0,389.7114317029974 600.0,389.7114317029974" stroke="#FFFFFFFF" fill="#4040409B" stroke-width="15.0" /><polygon points="750.0,389.7114317029974 712.5,454.6633369868303 637.5,454.6633369868303 600.0,389.7114317029974 637.5,324.75952641916456 712.5,324.7595264191645" stroke="#FFFFFFFF" fill="#F36619A5" stroke-width="15.0" /><polygon points="975.0,389.7114317029974 937.5,454.6633369868303 862.5,454.6633369868303 825.0,389.7114317029974 862.5,324.75952641916456 937.5,324.7595264191645" stroke="#FFFFFFFF" fill="#F36619A5" stroke-width="15.0" /><polygon points="1087.5,454.6633369868303 1050.0,519.6152422706632 975.0,519.6152422706632 937.5,454.6633369868303 975.0,389.7114317029974 1050.0,389.7114317029974" stroke="#FFFFFFFF" fill="#F366199B" stroke-width="15.0" /><polygon points="1425.0,389.7114317029974 1387.5,454.6633369868303 1312.5,454.6633369868303 1275.0,389.7114317029974 1312.5,324.75952641916456 1387.5,324.7595264191645" stroke="#FFFFFFFF" fill="#F36619A5" stroke-width="15.0" /><polygon points="1537.5,454.6633369868303 1500.0,519.6152422706632 1425.0,519.6152422706632 1387.5,454.6633369868303 1425.0,389.7114317029974 1500.0,389.7114317029974" stroke="#FFFFFFFF" fill="#F366199B" stroke-width="15.0" /><polygon points="1762.5,454.6633369868303 1725.0,519.6152422706632 1650.0,519.6152422706632 1612.5,454.6633369868303 1650.0,389.7114317029974 1725.0,389.7114317029974" stroke="#FFFFFFFF" fill="#F366199B" stroke-width="15.0" /><polygon points="1875.0,389.7114317029974 1837.5,454.6633369868303 1762.5,454.6633369868303 1725.0,389.7114317029974 1762.5,324.75952641916456 1837.5,324.7595264191645" stroke="#FFFFFFFF" fill="#F36619A5" stroke-width="15.0" /><polygon points="2325.0,389.7114317029974 2287.5,454.6633369868303 2212.5,454.6633369868303 2175.0,389.7114317029974 2212.5,324.75952641916456 2287.5,324.7595264191645" stroke="#FFFFFFFF" fill="#F36619A5" stroke-width="15.0" /><polygon points="2437.5,454.6633369868303 2400.0,519.6152422706632 2325.0,519.6152422706632 2287.5,454.6633369868303 2325.0,389.7114317029974 2400.0,389.7114317029974" stroke="#FFFFFFFF" fill="#F366199B" stroke-width="15.0" /><polygon points="2550.0,389.7114317029974 2512.5,454.6633369868303 2437.5,454.6633369868303 2400.0,389.7114317029974 2437.5,324.75952641916456 2512.5,324.7595264191645" stroke="#FFFFFFFF" fill="#F36619A5" stroke-width="15.0" /><polygon points="75.0,519.6152422706632 37.50000000000001,584.5671475544962 -37.499999999999986,584.5671475544962 -75.0,519.6152422706632 -37.500000000000036,454.66333698683036 37.50000000000001,454.6633369868303" stroke="#FFFFFFFF" fill="#F3661990" stroke-width="15.0" /><polygon points="187.5,584.5671475544962 150.0,649.5190528383291 75.00000000000001,649.5190528383291 37.5,584.5671475544962 74.99999999999997,519.6152422706633 150.0,519.6152422706632" stroke="#FFFFFFFF" fill="#F3661985" stroke-width="15.0" /><polygon points="300.0,519.6152422706632 262.5,584.5671475544962 187.5,584.5671475544962 150.0,519.6152422706632 187.49999999999997,454.66333698683036 262.5,454.6633369868303" stroke="#FFFFFFFF" fill="#F3661990" stroke-width="15.0" /><polygon points="412.5,584.5671475544962 375.0,649.5190528383291 300.0,649.5190528383291 262.5,584.5671475544962 299.99999999999994,519.6152422706633 375.0,519.6152422706632" stroke="#FFFFFFFF" fill="#F3661985" stroke-width="15.0" /><polygon points="525.0,519.6152422706632 487.5,584.5671475544962 412.5,584.5671475544962 375.0,519.6152422706632 412.49999999999994,454.66333698683036 487.5,454.6633369868303" stroke="#FFFFFFFF" fill="#F3661990" stroke-width="15.0" /><polygon points="637.5,584.5671475544962 600.0,649.5190528383291 525.0,649.5190528383291 487.5,584.5671475544962 525.0,519.6152422706633 600.0,519.6152422706632" stroke="#FFFFFFFF" fill="#F3661985" stroke-width="15.0" /><polygon points="862.5,584.5671475544962 825.0,649.5190528383291 750.0,649.5190528383291 712.5,584.5671475544962 750.0,519.6152422706633 825.0,519.6152422706632" stroke="#FFFFFFFF" fill="#F3661985" stroke-width="15.0" /><polygon points="975.0,519.6152422706632 937.5,584.5671475544962 862.5,584.5671475544962 825.0,519.6152422706632 862.5,454.66333698683036 937.5,454.6633369868303" stroke="#FFFFFFFF" fill="#F3661990" stroke-width="15.0" /><polygon points="1087.5,584.5671475544962 1050.0,649.5190528383291 975.0,649.5190528383291 937.5,584.5671475544962 975.0,519.6152422706633 1050.0,519.6152422706632" stroke="#FFFFFFFF" fill="#F3661985" stroke-width="15.0" /><polygon points="1425.0,519.6152422706632 1387.5,584.5671475544962 1312.5,584.5671475544962 1275.0,519.6152422706632 1312.5,454.66333698683036 1387.5,454.6633369868303" stroke="#FFFFFFFF" fill="#F3661990" stroke-width="15.0" /><polygon points="1762.5,584.5671475544962 1725.0,649.5190528383291 1650.0,649.5190528383291 1612.5,584.5671475544962 1650.0,519.6152422706633 1725.0,519.6152422706632" stroke="#FFFFFFFF" fill="#40404085" stroke-width="15.0" /><polygon points="1875.0,519.6152422706632 1837.5,584.5671475544962 1762.5,584.5671475544962 1725.0,519.6152422706632 1762.5,454.66333698683036 1837.5,454.6633369868303" stroke="#FFFFFFFF" fill="#F3661990" stroke-width="15.0" /><polygon points="2212.5,584.5671475544962 2175.0,649.5190528383291 2100.0,649.5190528383291 2062.5,584.5671475544962 2100.0,519.6152422706633 2175.0,519.6152422706632" stroke="#FFFFFFFF" fill="#F3661985" stroke-width="15.0" /><polygon points="2325.0,519.6152422706632 2287.5,584.5671475544962 2212.5,584.5671475544962 2175.0,519.6152422706632 2212.5,454.66333698683036 2287.5,454.6633369868303" stroke="#FFFFFFFF" fill="#F3661990" stroke-width="15.0" /><polygon points="2437.5,584.5671475544962 2400.0,649.5190528383291 2325.0,649.5190528383291 2287.5,584.5671475544962 2325.0,519.6152422706633 2400.0,519.6152422706632" stroke="#FFFFFFFF" fill="#F3661985" stroke-width="15.0" /><polygon points="2550.0,519.6152422706632 2512.5,584.5671475544962 2437.5,584.5671475544962 2400.0,519.6152422706632 2437.5,454.66333698683036 2512.5,454.6633369868303" stroke="#FFFFFFFF" fill="#F3661990" stroke-width="15.0" /><polygon points="75.0,649.519052838329 37.50000000000001,714.4709581221618 -37.499999999999986,714.4709581221618 -75.0,649.519052838329 -37.500000000000036,584.5671475544962 37.50000000000001,584.5671475544962" stroke="#FFFFFFFF" fill="#4040407B" stroke-width="15.0" /><polygon points="412.5,714.4709581221618 375.0,779.4228634059948 300.0,779.4228634059948 262.5,714.4709581221618 299.99999999999994,649.519052838329 375.0,649.5190528383289" stroke="#FFFFFFFF" fill="#F3661970" stroke-width="15.0" /><polygon points="750.0,649.519052838329 712.5,714.4709581221618 637.5,714.4709581221618 600.0,649.519052838329 637.5,584.5671475544962 712.5,584.5671475544962" stroke="#FFFFFFFF" fill="#F366197B" stroke-width="15.0" /><polygon points="862.5,714.4709581221618 825.0,779.4228634059948 750.0,779.4228634059948 712.5,714.4709581221618 750.0,649.519052838329 825.0,649.5190528383289" stroke="#FFFFFFFF" fill="#F3661970" stroke-width="15.0" /><polygon points="1425.0,649.519052838329 1387.5,714.4709581221618 1312.5,714.4709581221618 1275.0,649.519052838329 1312.5,584.5671475544962 1387.5,584.5671475544962" stroke="#FFFFFFFF" fill="#F366197B" stroke-width="15.0" /><polygon points="1650.0,649.519052838329 1612.5,714.4709581221618 1537.5,714.4709581221618 1500.0,649.519052838329 1537.5,584.5671475544962 1612.5,584.5671475544962" stroke="#FFFFFFFF" fill="#F366197B" stroke-width="15.0" /><polygon points="1762.5,714.4709581221618 1725.0,779.4228634059948 1650.0,779.4228634059948 1612.5,714.4709581221618 1650.0,649.519052838329 1725.0,649.5190528383289" stroke="#FFFFFFFF" fill="#F3661970" stroke-width="15.0" /><polygon points="1987.5,714.4709581221618 1950.0,779.4228634059948 1875.0,779.4228634059948 1837.5,714.4709581221618 1875.0,649.519052838329 1950.0,649.5190528383289" stroke="#FFFFFFFF" fill="#F3661970" stroke-width="15.0" /><polygon points="2212.5,714.4709581221618 2175.0,779.4228634059948 2100.0,779.4228634059948 2062.5,714.4709581221618 2100.0,649.519052838329 2175.0,649.5190528383289" stroke="#FFFFFFFF" fill="#F3661970" stroke-width="15.0" /><polygon points="2437.5,714.4709581221618 2400.0,779.4228634059948 2325.0,779.4228634059948 2287.5,714.4709581221618 2325.0,649.519052838329 2400.0,649.5190528383289" stroke="#FFFFFFFF" fill="#F3661970" stroke-width="15.0" /><polygon points="2550.0,649.519052838329 2512.5,714.4709581221618 2437.5,714.4709581221618 2400.0,649.519052838329 2437.5,584.5671475544962 2512.5,584.5671475544962" stroke="#FFFFFFFF" fill="#F366197B" stroke-width="15.0" /><polygon points="75.0,779.4228634059948 37.50000000000001,844.3747686898278 -37.499999999999986,844.3747686898278 -75.0,779.4228634059948 -37.500000000000036,714.470958122162 37.50000000000001,714.4709581221618" stroke="#FFFFFFFF" fill="#F3661966" stroke-width="15.0" /><polygon points="300.0,779.4228634059948 262.5,844.3747686898278 187.5,844.3747686898278 150.0,779.4228634059948 187.49999999999997,714.470958122162 262.5,714.4709581221618" stroke="#FFFFFFFF" fill="#40404066" stroke-width="15.0" /><polygon points="525.0,779.4228634059948 487.5,844.3747686898278 412.5,844.3747686898278 375.0,779.4228634059948 412.49999999999994,714.470958122162 487.5,714.4709581221618" stroke="#FFFFFFFF" fill="#40404066" stroke-width="15.0" /><polygon points="637.5,844.3747686898278 600.0,909.3266739736607 525.0,909.3266739736607 487.5,844.3747686898278 525.0,779.4228634059949 600.0,779.4228634059948" stroke="#FFFFFFFF" fill="#F366195B" stroke-width="15.0" /><polygon points="862.5,844.3747686898278 825.0,909.3266739736607 750.0,909.3266739736607 712.5,844.3747686898278 750.0,779.4228634059949 825.0,779.4228634059948" stroke="#FFFFFFFF" fill="#F366195B" stroke-width="15.0" /><polygon points="975.0,779.4228634059948 937.5,844.3747686898278 862.5,844.3747686898278 825.0,779.4228634059948 862.5,714.470958122162 937.5,714.4709581221618" stroke="#FFFFFFFF" fill="#F3661966" stroke-width="15.0" /><polygon points="1425.0,779.4228634059948 1387.5,844.3747686898278 1312.5,844.3747686898278 1275.0,779.4228634059948 1312.5,714.470958122162 1387.5,714.4709581221618" stroke="#FFFFFFFF" fill="#F3661966" stroke-width="15.0" /><polygon points="1650.0,779.4228634059948 1612.5,844.3747686898278 1537.5,844.3747686898278 1500.0,779.4228634059948 1537.5,714.470958122162 1612.5,714.4709581221618" stroke="#FFFFFFFF" fill="#F3661966" stroke-width="15.0" /><polygon points="1762.5,844.3747686898278 1725.0,909.3266739736607 1650.0,909.3266739736607 1612.5,844.3747686898278 1650.0,779.4228634059949 1725.0,779.4228634059948" stroke="#FFFFFFFF" fill="#F366195B" stroke-width="15.0" /><polygon points="1987.5,844.3747686898278 1950.0,909.3266739736607 1875.0,909.3266739736607 1837.5,844.3747686898278 1875.0,779.4228634059949 1950.0,779.4228634059948" stroke="#FFFFFFFF" fill="#4040405B" stroke-width="15.0" /><polygon points="2325.0,779.4228634059948 2287.5,844.3747686898278 2212.5,844.3747686898278 2175.0,779.4228634059948 2212.5,714.470958122162 2287.5,714.4709581221618" stroke="#FFFFFFFF" fill="#F3661966" stroke-width="15.0" /><polygon points="2437.5,844.3747686898278 2400.0,909.3266739736607 2325.0,909.3266739736607 2287.5,844.3747686898278 2325.0,779.4228634059949 2400.0,779.4228634059948" stroke="#FFFFFFFF" fill="#F366195B" stroke-width="15.0" /><polygon points="2550.0,779.4228634059948 2512.5,844.3747686898278 2437.5,844.3747686898278 2400.0,779.4228634059948 2437.5,714.470958122162 2512.5,714.4709581221618" stroke="#FFFFFFFF" fill="#F3661966" stroke-width="15.0" /><polygon points="75.0,909.3266739736606 37.50000000000001,974.2785792574934 -37.499999999999986,974.2785792574934 -75.0,909.3266739736606 -37.500000000000036,844.3747686898278 37.50000000000001,844.3747686898278" stroke="#FFFFFFFF" fill="#F3661950" stroke-width="15.0" /><polygon points="187.5,974.2785792574934 150.0,1039.2304845413264 75.00000000000001,1039.2304845413264 37.5,974.2785792574934 74.99999999999997,909.3266739736606 150.0,909.3266739736605" stroke="#FFFFFFFF" fill="#F3661946" stroke-width="15.0" /><polygon points="300.0,909.3266739736606 262.5,974.2785792574934 187.5,974.2785792574934 150.0,909.3266739736606 187.49999999999997,844.3747686898278 262.5,844.3747686898278" stroke="#FFFFFFFF" fill="#F3661950" stroke-width="15.0" /><polygon points="862.5,974.2785792574934 825.0,1039.2304845413264 750.0,1039.2304845413264 712.5,974.2785792574934 750.0,909.3266739736606 825.0,909.3266739736605" stroke="#FFFFFFFF" fill="#F3661946" stroke-width="15.0" /><polygon points="1087.5,974.2785792574934 1050.0,1039.2304845413264 975.0,1039.2304845413264 937.5,974.2785792574934 975.0,909.3266739736606 1050.0,909.3266739736605" stroke="#FFFFFFFF" fill="#F3661946" stroke-width="15.0" /><polygon points="1200.0,909.3266739736606 1162.5,974.2785792574934 1087.5,974.2785792574934 1050.0,909.3266739736606 1087.5,844.3747686898278 1162.5,844.3747686898278" stroke="#FFFFFFFF" fill="#40404050" stroke-width="15.0" /><polygon points="1425.0,909.3266739736606 1387.5,974.2785792574934 1312.5,974.2785792574934 1275.0,909.3266739736606 1312.5,844.3747686898278 1387.5,844.3747686898278" stroke="#FFFFFFFF" fill="#F3661950" stroke-width="15.0" /><polygon points="1762.5,974.2785792574934 1725.0,1039.2304845413264 1650.0,1039.2304845413264 1612.5,974.2785792574934 1650.0,909.3266739736606 1725.0,909.3266739736605" stroke="#FFFFFFFF" fill="#F3661946" stroke-width="15.0" /><polygon points="1987.5,974.2785792574934 1950.0,1039.2304845413264 1875.0,1039.2304845413264 1837.5,974.2785792574934 1875.0,909.3266739736606 1950.0,909.3266739736605" stroke="#FFFFFFFF" fill="#F3661946" stroke-width="15.0" /><polygon points="2212.5,974.2785792574934 2175.0,1039.2304845413264 2100.0,1039.2304845413264 2062.5,974.2785792574934 2100.0,909.3266739736606 2175.0,909.3266739736605" stroke="#FFFFFFFF" fill="#40404046" stroke-width="15.0" /><polygon points="2437.5,974.2785792574934 2400.0,1039.2304845413264 2325.0,1039.2304845413264 2287.5,974.2785792574934 2325.0,909.3266739736606 2400.0,909.3266739736605" stroke="#FFFFFFFF" fill="#40404046" stroke-width="15.0" /><polygon points="2550.0,909.3266739736606 2512.5,974.2785792574934 2437.5,974.2785792574934 2400.0,909.3266739736606 2437.5,844.3747686898278 2512.5,844.3747686898278" stroke="#FFFFFFFF" fill="#F3661950" stroke-width="15.0" /><polygon points="300.0,1039.2304845413264 262.5,1104.1823898251594 187.5,1104.1823898251594 150.0,1039.2304845413264 187.49999999999997,974.2785792574936 262.5,974.2785792574934" stroke="#FFFFFFFF" fill="#F366193B" stroke-width="15.0" /><polygon points="862.5,1104.1823898251594 825.0,1169.1342951089923 750.0,1169.1342951089923 712.5,1104.1823898251594 750.0,1039.2304845413264 825.0,1039.2304845413264" stroke="#FFFFFFFF" fill="#F3661931" stroke-width="15.0" /><polygon points="975.0,1039.2304845413264 937.5,1104.1823898251594 862.5,1104.1823898251594 825.0,1039.2304845413264 862.5,974.2785792574936 937.5,974.2785792574934" stroke="#FFFFFFFF" fill="#F366193B" stroke-width="15.0" /><polygon points="1087.5,1104.1823898251594 1050.0,1169.1342951089923 975.0,1169.1342951089923 937.5,1104.1823898251594 975.0,1039.2304845413264 1050.0,1039.2304845413264" stroke="#FFFFFFFF" fill="#40404031" stroke-width="15.0" /><polygon points="1200.0,1039.2304845413264 1162.5,1104.1823898251594 1087.5,1104.1823898251594 1050.0,1039.2304845413264 1087.5,974.2785792574936 1162.5,974.2785792574934" stroke="#FFFFFFFF" fill="#F366193B" stroke-width="15.0" /><polygon points="1312.5,1104.1823898251594 1275.0,1169.1342951089923 1200.0,1169.1342951089923 1162.5,1104.1823898251594 1200.0,1039.2304845413264 1275.0,1039.2304845413264" stroke="#FFFFFFFF" fill="#40404031" stroke-width="15.0" /><polygon points="1537.5,1104.1823898251594 1500.0,1169.1342951089923 1425.0,1169.1342951089923 1387.5,1104.1823898251594 1425.0,1039.2304845413264 1500.0,1039.2304845413264" stroke="#FFFFFFFF" fill="#F3661931" stroke-width="15.0" /><polygon points="1987.5,1104.1823898251594 1950.0,1169.1342951089923 1875.0,1169.1342951089923 1837.5,1104.1823898251594 1875.0,1039.2304845413264 1950.0,1039.2304845413264" stroke="#FFFFFFFF" fill="#F3661931" stroke-width="15.0" /><polygon points="187.5,1234.0862003928253 150.0,1299.0381056766582 75.00000000000001,1299.0381056766582 37.5,1234.0862003928253 74.99999999999997,1169.1342951089923 150.0,1169.1342951089923" stroke="#FFFFFFFF" fill="#F366191B" stroke-width="15.0" /><polygon points="525.0,1169.1342951089923 487.5,1234.0862003928253 412.5,1234.0862003928253 375.0,1169.1342951089923 412.49999999999994,1104.1823898251594 487.5,1104.1823898251594" stroke="#FFFFFFFF" fill="#F3661926" stroke-width="15.0" /><polygon points="637.5,1234.0862003928253 600.0,1299.0381056766582 525.0,1299.0381056766582 487.5,1234.0862003928253 525.0,1169.1342951089923 600.0,1169.1342951089923" stroke="#FFFFFFFF" fill="#4040401B" stroke-width="15.0" /><polygon points="975.0,1169.1342951089923 937.5,1234.0862003928253 862.5,1234.0862003928253 825.0,1169.1342951089923 862.5,1104.1823898251594 937.5,1104.1823898251594" stroke="#FFFFFFFF" fill="#40404026" stroke-width="15.0" /><polygon points="1650.0,1169.1342951089923 1612.5,1234.0862003928253 1537.5,1234.0862003928253 1500.0,1169.1342951089923 1537.5,1104.1823898251594 1612.5,1104.1823898251594" stroke="#FFFFFFFF" fill="#F3661926" stroke-width="15.0" /><polygon points="2437.5,1234.0862003928253 2400.0,1299.0381056766582 2325.0,1299.0381056766582 2287.5,1234.0862003928253 2325.0,1169.1342951089923 2400.0,1169.1342951089923" stroke="#FFFFFFFF" fill="#F366191B" stroke-width="15.0" /><polygon points="975.0,1299.038105676658 937.5,1363.990010960491 862.5,1363.990010960491 825.0,1299.038105676658 862.5,1234.086200392825 937.5,1234.086200392825" stroke="#FFFFFFFF" fill="#F3661911" stroke-width="15.0" /><polygon points="1650.0,1299.038105676658 1612.5,1363.990010960491 1537.5,1363.990010960491 1500.0,1299.038105676658 1537.5,1234.086200392825 1612.5,1234.086200392825" stroke="#FFFFFFFF" fill="#F3661911" stroke-width="15.0" /><polygon points="2100.0,1299.038105676658 2062.5,1363.990010960491 1987.5,1363.990010960491 1950.0,1299.038105676658 1987.5,1234.086200392825 2062.5,1234.086200392825" stroke="#FFFFFFFF" fill="#F3661911" stroke-width="15.0" /><polygon points="2550.0,1299.038105676658 2512.5,1363.990010960491 2437.5,1363.990010960491 2400.0,1299.038105676658 2437.5,1234.086200392825 2512.5,1234.086200392825" stroke="#FFFFFFFF" fill="#F3661911" stroke-width="15.0" /><polygon points="187.5,2143.4128743664855 150.0,2208.3647796503183 75.00000000000001,2208.3647796503183 37.5,2143.4128743664855 74.99999999999997,2078.460969082653 150.0,2078.460969082653" stroke="#FFFFFFFF" fill="#40404006" stroke-width="15.0" /><polygon points="637.5,2143.4128743664855 600.0,2208.3647796503183 525.0,2208.3647796503183 487.5,2143.4128743664855 525.0,2078.460969082653 600.0,2078.460969082653" stroke="#FFFFFFFF" fill="#F3661906" stroke-width="15.0" /><polygon points="862.5,2143.4128743664855 825.0,2208.3647796503183 750.0,2208.3647796503183 712.5,2143.4128743664855 750.0,2078.460969082653 825.0,2078.460969082653" stroke="#FFFFFFFF" fill="#F3661906" stroke-width="15.0" /><polygon points="2212.5,2143.4128743664855 2175.0,2208.3647796503183 2100.0,2208.3647796503183 2062.5,2143.4128743664855 2100.0,2078.460969082653 2175.0,2078.460969082653" stroke="#FFFFFFFF" fill="#40404006" stroke-width="15.0" /><polygon points="300.0,2208.3647796503187 262.5,2273.3166849341515 187.5,2273.3166849341515 150.0,2208.3647796503187 187.49999999999997,2143.412874366486 262.5,2143.412874366486" stroke="#FFFFFFFF" fill="#40404010" stroke-width="15.0" /><polygon points="637.5,2273.3166849341515 600.0,2338.268590217984 525.0,2338.268590217984 487.5,2273.3166849341515 525.0,2208.3647796503187 600.0,2208.3647796503187" stroke="#FFFFFFFF" fill="#F366191B" stroke-width="15.0" /><polygon points="412.5,2403.2204955018174 375.0,2468.17240078565 300.0,2468.17240078565 262.5,2403.2204955018174 299.99999999999994,2338.2685902179846 375.0,2338.2685902179846" stroke="#FFFFFFFF" fill="#F3661930" stroke-width="15.0" /><polygon points="750.0,2338.2685902179846 712.5,2403.2204955018174 637.5,2403.2204955018174 600.0,2338.2685902179846 637.5,2273.316684934152 712.5,2273.316684934152" stroke="#FFFFFFFF" fill="#F3661925" stroke-width="15.0" /><polygon points="1087.5,2403.2204955018174 1050.0,2468.17240078565 975.0,2468.17240078565 937.5,2403.2204955018174 975.0,2338.2685902179846 1050.0,2338.2685902179846" stroke="#FFFFFFFF" fill="#F3661930" stroke-width="15.0" /><polygon points="1875.0,2338.2685902179846 1837.5,2403.2204955018174 1762.5,2403.2204955018174 1725.0,2338.2685902179846 1762.5,2273.316684934152 1837.5,2273.316684934152" stroke="#FFFFFFFF" fill="#F3661925" stroke-width="15.0" /><polygon points="75.0,2468.17240078565 37.50000000000001,2533.124306069483 -37.499999999999986,2533.124306069483 -75.0,2468.17240078565 -37.500000000000036,2403.2204955018174 37.50000000000001,2403.2204955018174" stroke="#FFFFFFFF" fill="#F366193B" stroke-width="15.0" /><polygon points="300.0,2468.17240078565 262.5,2533.124306069483 187.5,2533.124306069483 150.0,2468.17240078565 187.49999999999997,2403.2204955018174 262.5,2403.2204955018174" stroke="#FFFFFFFF" fill="#F366193B" stroke-width="15.0" /><polygon points="637.5,2533.124306069483 600.0,2598.0762113533156 525.0,2598.0762113533156 487.5,2533.124306069483 525.0,2468.17240078565 600.0,2468.17240078565" stroke="#FFFFFFFF" fill="#40404045" stroke-width="15.0" /><polygon points="750.0,2468.17240078565 712.5,2533.124306069483 637.5,2533.124306069483 600.0,2468.17240078565 637.5,2403.2204955018174 712.5,2403.2204955018174" stroke="#FFFFFFFF" fill="#F366193B" stroke-width="15.0" /><polygon points="862.5,2533.124306069483 825.0,2598.0762113533156 750.0,2598.0762113533156 712.5,2533.124306069483 750.0,2468.17240078565 825.0,2468.17240078565" stroke="#FFFFFFFF" fill="#F3661945" stroke-width="15.0" /><polygon points="1200.0,2468.17240078565 1162.5,2533.124306069483 1087.5,2533.124306069483 1050.0,2468.17240078565 1087.5,2403.2204955018174 1162.5,2403.2204955018174" stroke="#FFFFFFFF" fill="#F366193B" stroke-width="15.0" /><polygon points="1312.5,2533.124306069483 1275.0,2598.0762113533156 1200.0,2598.0762113533156 1162.5,2533.124306069483 1200.0,2468.17240078565 1275.0,2468.17240078565" stroke="#FFFFFFFF" fill="#F3661945" stroke-width="15.0" /><polygon points="1537.5,2533.124306069483 1500.0,2598.0762113533156 1425.0,2598.0762113533156 1387.5,2533.124306069483 1425.0,2468.17240078565 1500.0,2468.17240078565" stroke="#FFFFFFFF" fill="#F3661945" stroke-width="15.0" /><polygon points="1650.0,2468.17240078565 1612.5,2533.124306069483 1537.5,2533.124306069483 1500.0,2468.17240078565 1537.5,2403.2204955018174 1612.5,2403.2204955018174" stroke="#FFFFFFFF" fill="#4040403B" stroke-width="15.0" /><polygon points="1875.0,2468.17240078565 1837.5,2533.124306069483 1762.5,2533.124306069483 1725.0,2468.17240078565 1762.5,2403.2204955018174 1837.5,2403.2204955018174" stroke="#FFFFFFFF" fill="#F366193B" stroke-width="15.0" /><polygon points="2100.0,2468.17240078565 2062.5,2533.124306069483 1987.5,2533.124306069483 1950.0,2468.17240078565 1987.5,2403.2204955018174 2062.5,2403.2204955018174" stroke="#FFFFFFFF" fill="#F366193B" stroke-width="15.0" /><polygon points="75.0,2598.076211353316 37.50000000000001,2663.0281166371487 -37.499999999999986,2663.0281166371487 -75.0,2598.076211353316 -37.500000000000036,2533.1243060694833 37.50000000000001,2533.1243060694833" stroke="#FFFFFFFF" fill="#F3661950" stroke-width="15.0" /><polygon points="300.0,2598.076211353316 262.5,2663.0281166371487 187.5,2663.0281166371487 150.0,2598.076211353316 187.49999999999997,2533.1243060694833 262.5,2533.1243060694833" stroke="#FFFFFFFF" fill="#F3661950" stroke-width="15.0" /><polygon points="412.5,2663.0281166371487 375.0,2727.9800219209815 300.0,2727.9800219209815 262.5,2663.0281166371487 299.99999999999994,2598.076211353316 375.0,2598.076211353316" stroke="#FFFFFFFF" fill="#F366195B" stroke-width="15.0" /><polygon points="525.0,2598.076211353316 487.5,2663.0281166371487 412.5,2663.0281166371487 375.0,2598.076211353316 412.49999999999994,2533.1243060694833 487.5,2533.1243060694833" stroke="#FFFFFFFF" fill="#F3661950" stroke-width="15.0" /><polygon points="637.5,2663.0281166371487 600.0,2727.9800219209815 525.0,2727.9800219209815 487.5,2663.0281166371487 525.0,2598.076211353316 600.0,2598.076211353316" stroke="#FFFFFFFF" fill="#4040405B" stroke-width="15.0" /><polygon points="1087.5,2663.0281166371487 1050.0,2727.9800219209815 975.0,2727.9800219209815 937.5,2663.0281166371487 975.0,2598.076211353316 1050.0,2598.076211353316" stroke="#FFFFFFFF" fill="#4040405B" stroke-width="15.0" /><polygon points="1425.0,2598.076211353316 1387.5,2663.0281166371487 1312.5,2663.0281166371487 1275.0,2598.076211353316 1312.5,2533.1243060694833 1387.5,2533.1243060694833" stroke="#FFFFFFFF" fill="#F3661950" stroke-width="15.0" /><polygon points="1875.0,2598.076211353316 1837.5,2663.0281166371487 1762.5,2663.0281166371487 1725.0,2598.076211353316 1762.5,2533.1243060694833 1837.5,2533.1243060694833" stroke="#FFFFFFFF" fill="#F3661950" stroke-width="15.0" /><polygon points="1987.5,2663.0281166371487 1950.0,2727.9800219209815 1875.0,2727.9800219209815 1837.5,2663.0281166371487 1875.0,2598.076211353316 1950.0,2598.076211353316" stroke="#FFFFFFFF" fill="#4040405B" stroke-width="15.0" /><polygon points="2325.0,2598.076211353316 2287.5,2663.0281166371487 2212.5,2663.0281166371487 2175.0,2598.076211353316 2212.5,2533.1243060694833 2287.5,2533.1243060694833" stroke="#FFFFFFFF" fill="#40404050" stroke-width="15.0" /><polygon points="187.5,2792.9319272048147 150.0,2857.8838324886474 75.00000000000001,2857.8838324886474 37.5,2792.9319272048147 74.99999999999997,2727.980021920982 150.0,2727.980021920982" stroke="#FFFFFFFF" fill="#F3661970" stroke-width="15.0" /><polygon points="300.0,2727.980021920982 262.5,2792.9319272048147 187.5,2792.9319272048147 150.0,2727.980021920982 187.49999999999997,2663.028116637149 262.5,2663.028116637149" stroke="#FFFFFFFF" fill="#40404065" stroke-width="15.0" /><polygon points="525.0,2727.980021920982 487.5,2792.9319272048147 412.5,2792.9319272048147 375.0,2727.980021920982 412.49999999999994,2663.028116637149 487.5,2663.028116637149" stroke="#FFFFFFFF" fill="#F3661965" stroke-width="15.0" /><polygon points="637.5,2792.9319272048147 600.0,2857.8838324886474 525.0,2857.8838324886474 487.5,2792.9319272048147 525.0,2727.980021920982 600.0,2727.980021920982" stroke="#FFFFFFFF" fill="#F3661970" stroke-width="15.0" /><polygon points="750.0,2727.980021920982 712.5,2792.9319272048147 637.5,2792.9319272048147 600.0,2727.980021920982 637.5,2663.028116637149 712.5,2663.028116637149" stroke="#FFFFFFFF" fill="#40404065" stroke-width="15.0" /><polygon points="862.5,2792.9319272048147 825.0,2857.8838324886474 750.0,2857.8838324886474 712.5,2792.9319272048147 750.0,2727.980021920982 825.0,2727.980021920982" stroke="#FFFFFFFF" fill="#F3661970" stroke-width="15.0" /><polygon points="975.0,2727.980021920982 937.5,2792.9319272048147 862.5,2792.9319272048147 825.0,2727.980021920982 862.5,2663.028116637149 937.5,2663.028116637149" stroke="#FFFFFFFF" fill="#F3661965" stroke-width="15.0" /><polygon points="1087.5,2792.9319272048147 1050.0,2857.8838324886474 975.0,2857.8838324886474 937.5,2792.9319272048147 975.0,2727.980021920982 1050.0,2727.980021920982" stroke="#FFFFFFFF" fill="#F3661970" stroke-width="15.0" /><polygon points="1200.0,2727.980021920982 1162.5,2792.9319272048147 1087.5,2792.9319272048147 1050.0,2727.980021920982 1087.5,2663.028116637149 1162.5,2663.028116637149" stroke="#FFFFFFFF" fill="#F3661965" stroke-width="15.0" /><polygon points="1312.5,2792.9319272048147 1275.0,2857.8838324886474 1200.0,2857.8838324886474 1162.5,2792.9319272048147 1200.0,2727.980021920982 1275.0,2727.980021920982" stroke="#FFFFFFFF" fill="#F3661970" stroke-width="15.0" /><polygon points="1650.0,2727.980021920982 1612.5,2792.9319272048147 1537.5,2792.9319272048147 1500.0,2727.980021920982 1537.5,2663.028116637149 1612.5,2663.028116637149" stroke="#FFFFFFFF" fill="#F3661965" stroke-width="15.0" /><polygon points="2212.5,2792.9319272048147 2175.0,2857.8838324886474 2100.0,2857.8838324886474 2062.5,2792.9319272048147 2100.0,2727.980021920982 2175.0,2727.980021920982" stroke="#FFFFFFFF" fill="#F3661970" stroke-width="15.0" /><polygon points="2325.0,2727.980021920982 2287.5,2792.9319272048147 2212.5,2792.9319272048147 2175.0,2727.980021920982 2212.5,2663.028116637149 2287.5,2663.028116637149" stroke="#FFFFFFFF" fill="#F3661965" stroke-width="15.0" /><polygon points="75.0,2857.8838324886474 37.50000000000001,2922.83573777248 -37.499999999999986,2922.83573777248 -75.0,2857.8838324886474 -37.500000000000036,2792.9319272048147 37.50000000000001,2792.9319272048147" stroke="#FFFFFFFF" fill="#F366197A" stroke-width="15.0" /><polygon points="187.5,2922.83573777248 150.0,2987.787643056313 75.00000000000001,2987.787643056313 37.5,2922.83573777248 74.99999999999997,2857.8838324886474 150.0,2857.8838324886474" stroke="#FFFFFFFF" fill="#F3661985" stroke-width="15.0" /><polygon points="300.0,2857.8838324886474 262.5,2922.83573777248 187.5,2922.83573777248 150.0,2857.8838324886474 187.49999999999997,2792.9319272048147 262.5,2792.9319272048147" stroke="#FFFFFFFF" fill="#F366197A" stroke-width="15.0" /><polygon points="637.5,2922.83573777248 600.0,2987.787643056313 525.0,2987.787643056313 487.5,2922.83573777248 525.0,2857.8838324886474 600.0,2857.8838324886474" stroke="#FFFFFFFF" fill="#F3661985" stroke-width="15.0" /><polygon points="750.0,2857.8838324886474 712.5,2922.83573777248 637.5,2922.83573777248 600.0,2857.8838324886474 637.5,2792.9319272048147 712.5,2792.9319272048147" stroke="#FFFFFFFF" fill="#F366197A" stroke-width="15.0" /><polygon points="862.5,2922.83573777248 825.0,2987.787643056313 750.0,2987.787643056313 712.5,2922.83573777248 750.0,2857.8838324886474 825.0,2857.8838324886474" stroke="#FFFFFFFF" fill="#F3661985" stroke-width="15.0" /><polygon points="1087.5,2922.83573777248 1050.0,2987.787643056313 975.0,2987.787643056313 937.5,2922.83573777248 975.0,2857.8838324886474 1050.0,2857.8838324886474" stroke="#FFFFFFFF" fill="#F3661985" stroke-width="15.0" /><polygon points="1312.5,2922.83573777248 1275.0,2987.787643056313 1200.0,2987.787643056313 1162.5,2922.83573777248 1200.0,2857.8838324886474 1275.0,2857.8838324886474" stroke="#FFFFFFFF" fill="#F3661985" stroke-width="15.0" /><polygon points="1650.0,2857.8838324886474 1612.5,2922.83573777248 1537.5,2922.83573777248 1500.0,2857.8838324886474 1537.5,2792.9319272048147 1612.5,2792.9319272048147" stroke="#FFFFFFFF" fill="#F366197A" stroke-width="15.0" /><polygon points="1762.5,2922.83573777248 1725.0,2987.787643056313 1650.0,2987.787643056313 1612.5,2922.83573777248 1650.0,2857.8838324886474 1725.0,2857.8838324886474" stroke="#FFFFFFFF" fill="#F3661985" stroke-width="15.0" /><polygon points="1875.0,2857.8838324886474 1837.5,2922.83573777248 1762.5,2922.83573777248 1725.0,2857.8838324886474 1762.5,2792.9319272048147 1837.5,2792.9319272048147" stroke="#FFFFFFFF" fill="#F366197A" stroke-width="15.0" /><polygon points="1987.5,2922.83573777248 1950.0,2987.787643056313 1875.0,2987.787643056313 1837.5,2922.83573777248 1875.0,2857.8838324886474 1950.0,2857.8838324886474" stroke="#FFFFFFFF" fill="#F3661985" stroke-width="15.0" /><polygon points="2100.0,2857.8838324886474 2062.5,2922.83573777248 1987.5,2922.83573777248 1950.0,2857.8838324886474 1987.5,2792.9319272048147 2062.5,2792.9319272048147" stroke="#FFFFFFFF" fill="#F366197A" stroke-width="15.0" /><polygon points="2437.5,2922.83573777248 2400.0,2987.787643056313 2325.0,2987.787643056313 2287.5,2922.83573777248 2325.0,2857.8838324886474 2400.0,2857.8838324886474" stroke="#FFFFFFFF" fill="#F3661985" stroke-width="15.0" /><polygon points="2550.0,2857.8838324886474 2512.5,2922.83573777248 2437.5,2922.83573777248 2400.0,2857.8838324886474 2437.5,2792.9319272048147 2512.5,2792.9319272048147" stroke="#FFFFFFFF" fill="#F366197A" stroke-width="15.0" /><polygon points="75.0,2987.7876430563133 37.50000000000001,3052.739548340146 -37.499999999999986,3052.739548340146 -75.0,2987.7876430563133 -37.500000000000036,2922.8357377724806 37.50000000000001,2922.8357377724806" stroke="#FFFFFFFF" fill="#F3661990" stroke-width="15.0" /><polygon points="187.5,3052.739548340146 150.0,3117.6914536239788 75.00000000000001,3117.6914536239788 37.5,3052.739548340146 74.99999999999997,2987.7876430563133 150.0,2987.7876430563133" stroke="#FFFFFFFF" fill="#F366199A" stroke-width="15.0" /><polygon points="300.0,2987.7876430563133 262.5,3052.739548340146 187.5,3052.739548340146 150.0,2987.7876430563133 187.49999999999997,2922.8357377724806 262.5,2922.8357377724806" stroke="#FFFFFFFF" fill="#F3661990" stroke-width="15.0" /><polygon points="412.5,3052.739548340146 375.0,3117.6914536239788 300.0,3117.6914536239788 262.5,3052.739548340146 299.99999999999994,2987.7876430563133 375.0,2987.7876430563133" stroke="#FFFFFFFF" fill="#F366199A" stroke-width="15.0" /><polygon points="525.0,2987.7876430563133 487.5,3052.739548340146 412.5,3052.739548340146 375.0,2987.7876430563133 412.49999999999994,2922.8357377724806 487.5,2922.8357377724806" stroke="#FFFFFFFF" fill="#F3661990" stroke-width="15.0" /><polygon points="637.5,3052.739548340146 600.0,3117.6914536239788 525.0,3117.6914536239788 487.5,3052.739548340146 525.0,2987.7876430563133 600.0,2987.7876430563133" stroke="#FFFFFFFF" fill="#F366199A" stroke-width="15.0" /><polygon points="750.0,2987.7876430563133 712.5,3052.739548340146 637.5,3052.739548340146 600.0,2987.7876430563133 637.5,2922.8357377724806 712.5,2922.8357377724806" stroke="#FFFFFFFF" fill="#F3661990" stroke-width="15.0" /><polygon points="862.5,3052.739548340146 825.0,3117.6914536239788 750.0,3117.6914536239788 712.5,3052.739548340146 750.0,2987.7876430563133 825.0,2987.7876430563133" stroke="#FFFFFFFF" fill="#F366199A" stroke-width="15.0" /><polygon points="975.0,2987.7876430563133 937.5,3052.739548340146 862.5,3052.739548340146 825.0,2987.7876430563133 862.5,2922.8357377724806 937.5,2922.8357377724806" stroke="#FFFFFFFF" fill="#F3661990" stroke-width="15.0" /><polygon points="1312.5,3052.739548340146 1275.0,3117.6914536239788 1200.0,3117.6914536239788 1162.5,3052.739548340146 1200.0,2987.7876430563133 1275.0,2987.7876430563133" stroke="#FFFFFFFF" fill="#F366199A" stroke-width="15.0" /><polygon points="1650.0,2987.7876430563133 1612.5,3052.739548340146 1537.5,3052.739548340146 1500.0,2987.7876430563133 1537.5,2922.8357377724806 1612.5,2922.8357377724806" stroke="#FFFFFFFF" fill="#F3661990" stroke-width="15.0" /><polygon points="1875.0,2987.7876430563133 1837.5,3052.739548340146 1762.5,3052.739548340146 1725.0,2987.7876430563133 1762.5,2922.8357377724806 1837.5,2922.8357377724806" stroke="#FFFFFFFF" fill="#F3661990" stroke-width="15.0" /><polygon points="1987.5,3052.739548340146 1950.0,3117.6914536239788 1875.0,3117.6914536239788 1837.5,3052.739548340146 1875.0,2987.7876430563133 1950.0,2987.7876430563133" stroke="#FFFFFFFF" fill="#F366199A" stroke-width="15.0" /><polygon points="2100.0,2987.7876430563133 2062.5,3052.739548340146 1987.5,3052.739548340146 1950.0,2987.7876430563133 1987.5,2922.8357377724806 2062.5,2922.8357377724806" stroke="#FFFFFFFF" fill="#F3661990" stroke-width="15.0" /><polygon points="2212.5,3052.739548340146 2175.0,3117.6914536239788 2100.0,3117.6914536239788 2062.5,3052.739548340146 2100.0,2987.7876430563133 2175.0,2987.7876430563133" stroke="#FFFFFFFF" fill="#4040409A" stroke-width="15.0" /><polygon points="2550.0,2987.7876430563133 2512.5,3052.739548340146 2437.5,3052.739548340146 2400.0,2987.7876430563133 2437.5,2922.8357377724806 2512.5,2922.8357377724806" stroke="#FFFFFFFF" fill="#F3661990" stroke-width="15.0" /><polygon points="412.5,3182.643358907812 375.0,3247.5952641916447 300.0,3247.5952641916447 262.5,3182.643358907812 299.99999999999994,3117.691453623979 375.0,3117.691453623979" stroke="#FFFFFFFF" fill="#F36619AF" stroke-width="15.0" /><polygon points="525.0,3117.691453623979 487.5,3182.643358907812 412.5,3182.643358907812 375.0,3117.691453623979 412.49999999999994,3052.7395483401465 487.5,3052.7395483401465" stroke="#FFFFFFFF" fill="#F36619A5" stroke-width="15.0" /><polygon points="637.5,3182.643358907812 600.0,3247.5952641916447 525.0,3247.5952641916447 487.5,3182.643358907812 525.0,3117.691453623979 600.0,3117.691453623979" stroke="#FFFFFFFF" fill="#F36619AF" stroke-width="15.0" /><polygon points="862.5,3182.643358907812 825.0,3247.5952641916447 750.0,3247.5952641916447 712.5,3182.643358907812 750.0,3117.691453623979 825.0,3117.691453623979" stroke="#FFFFFFFF" fill="#F36619AF" stroke-width="15.0" /><polygon points="975.0,3117.691453623979 937.5,3182.643358907812 862.5,3182.643358907812 825.0,3117.691453623979 862.5,3052.7395483401465 937.5,3052.7395483401465" stroke="#FFFFFFFF" fill="#F36619A5" stroke-width="15.0" /><polygon points="1087.5,3182.643358907812 1050.0,3247.5952641916447 975.0,3247.5952641916447 937.5,3182.643358907812 975.0,3117.691453623979 1050.0,3117.691453623979" stroke="#FFFFFFFF" fill="#404040AF" stroke-width="15.0" /><polygon points="1537.5,3182.643358907812 1500.0,3247.5952641916447 1425.0,3247.5952641916447 1387.5,3182.643358907812 1425.0,3117.691453623979 1500.0,3117.691453623979" stroke="#FFFFFFFF" fill="#F36619AF" stroke-width="15.0" /><polygon points="1650.0,3117.691453623979 1612.5,3182.643358907812 1537.5,3182.643358907812 1500.0,3117.691453623979 1537.5,3052.7395483401465 1612.5,3052.7395483401465" stroke="#FFFFFFFF" fill="#404040A5" stroke-width="15.0" /><polygon points="1875.0,3117.691453623979 1837.5,3182.643358907812 1762.5,3182.643358907812 1725.0,3117.691453623979 1762.5,3052.7395483401465 1837.5,3052.7395483401465" stroke="#FFFFFFFF" fill="#F36619A5" stroke-width="15.0" /><polygon points="1987.5,3182.643358907812 1950.0,3247.5952641916447 1875.0,3247.5952641916447 1837.5,3182.643358907812 1875.0,3117.691453623979 1950.0,3117.691453623979" stroke="#FFFFFFFF" fill="#F36619AF" stroke-width="15.0" /><polygon points="2325.0,3117.691453623979 2287.5,3182.643358907812 2212.5,3182.643358907812 2175.0,3117.691453623979 2212.5,3052.7395483401465 2287.5,3052.7395483401465" stroke="#FFFFFFFF" fill="#F36619A5" stroke-width="15.0" /><polygon points="2437.5,3182.643358907812 2400.0,3247.5952641916447 2325.0,3247.5952641916447 2287.5,3182.643358907812 2325.0,3117.691453623979 2400.0,3117.691453623979" stroke="#FFFFFFFF" fill="#F36619AF" stroke-width="15.0" /><polygon points="75.0,3247.595264191645 37.50000000000001,3312.547169475478 -37.499999999999986,3312.547169475478 -75.0,3247.595264191645 -37.500000000000036,3182.6433589078124 37.50000000000001,3182.6433589078124" stroke="#FFFFFFFF" fill="#F36619BA" stroke-width="15.0" /><polygon points="187.5,3312.547169475478 150.0,3377.4990747593106 75.00000000000001,3377.4990747593106 37.5,3312.547169475478 74.99999999999997,3247.595264191645 150.0,3247.595264191645" stroke="#FFFFFFFF" fill="#F36619C5" stroke-width="15.0" /><polygon points="300.0,3247.595264191645 262.5,3312.547169475478 187.5,3312.547169475478 150.0,3247.595264191645 187.49999999999997,3182.6433589078124 262.5,3182.6433589078124" stroke="#FFFFFFFF" fill="#F36619BA" stroke-width="15.0" /><polygon points="412.5,3312.547169475478 375.0,3377.4990747593106 300.0,3377.4990747593106 262.5,3312.547169475478 299.99999999999994,3247.595264191645 375.0,3247.595264191645" stroke="#FFFFFFFF" fill="#404040C5" stroke-width="15.0" /><polygon points="525.0,3247.595264191645 487.5,3312.547169475478 412.5,3312.547169475478 375.0,3247.595264191645 412.49999999999994,3182.6433589078124 487.5,3182.6433589078124" stroke="#FFFFFFFF" fill="#F36619BA" stroke-width="15.0" /><polygon points="750.0,3247.595264191645 712.5,3312.547169475478 637.5,3312.547169475478 600.0,3247.595264191645 637.5,3182.6433589078124 712.5,3182.6433589078124" stroke="#FFFFFFFF" fill="#F36619BA" stroke-width="15.0" /><polygon points="862.5,3312.547169475478 825.0,3377.4990747593106 750.0,3377.4990747593106 712.5,3312.547169475478 750.0,3247.595264191645 825.0,3247.595264191645" stroke="#FFFFFFFF" fill="#F36619C5" stroke-width="15.0" /><polygon points="1087.5,3312.547169475478 1050.0,3377.4990747593106 975.0,3377.4990747593106 937.5,3312.547169475478 975.0,3247.595264191645 1050.0,3247.595264191645" stroke="#FFFFFFFF" fill="#F36619C5" stroke-width="15.0" /><polygon points="1200.0,3247.595264191645 1162.5,3312.547169475478 1087.5,3312.547169475478 1050.0,3247.595264191645 1087.5,3182.6433589078124 1162.5,3182.6433589078124" stroke="#FFFFFFFF" fill="#F36619BA" stroke-width="15.0" /><polygon points="1537.5,3312.547169475478 1500.0,3377.4990747593106 1425.0,3377.4990747593106 1387.5,3312.547169475478 1425.0,3247.595264191645 1500.0,3247.595264191645" stroke="#FFFFFFFF" fill="#F36619C5" stroke-width="15.0" /><polygon points="1650.0,3247.595264191645 1612.5,3312.547169475478 1537.5,3312.547169475478 1500.0,3247.595264191645 1537.5,3182.6433589078124 1612.5,3182.6433589078124" stroke="#FFFFFFFF" fill="#F36619BA" stroke-width="15.0" /><polygon points="1762.5,3312.547169475478 1725.0,3377.4990747593106 1650.0,3377.4990747593106 1612.5,3312.547169475478 1650.0,3247.595264191645 1725.0,3247.595264191645" stroke="#FFFFFFFF" fill="#F36619C5" stroke-width="15.0" /><polygon points="1875.0,3247.595264191645 1837.5,3312.547169475478 1762.5,3312.547169475478 1725.0,3247.595264191645 1762.5,3182.6433589078124 1837.5,3182.6433589078124" stroke="#FFFFFFFF" fill="#F36619BA" stroke-width="15.0" /><polygon points="1987.5,3312.547169475478 1950.0,3377.4990747593106 1875.0,3377.4990747593106 1837.5,3312.547169475478 1875.0,3247.595264191645 1950.0,3247.595264191645" stroke="#FFFFFFFF" fill="#F36619C5" stroke-width="15.0" /><polygon points="2100.0,3247.595264191645 2062.5,3312.547169475478 1987.5,3312.547169475478 1950.0,3247.595264191645 1987.5,3182.6433589078124 2062.5,3182.6433589078124" stroke="#FFFFFFFF" fill="#F36619BA" stroke-width="15.0" /><polygon points="2212.5,3312.547169475478 2175.0,3377.4990747593106 2100.0,3377.4990747593106 2062.5,3312.547169475478 2100.0,3247.595264191645 2175.0,3247.595264191645" stroke="#FFFFFFFF" fill="#F36619C5" stroke-width="15.0" /><polygon points="2325.0,3247.595264191645 2287.5,3312.547169475478 2212.5,3312.547169475478 2175.0,3247.595264191645 2212.5,3182.6433589078124 2287.5,3182.6433589078124" stroke="#FFFFFFFF" fill="#F36619BA" stroke-width="15.0" /><polygon points="2437.5,3312.547169475478 2400.0,3377.4990747593106 2325.0,3377.4990747593106 2287.5,3312.547169475478 2325.0,3247.595264191645 2400.0,3247.595264191645" stroke="#FFFFFFFF" fill="#F36619C5" stroke-width="15.0" /><polygon points="2550.0,3247.595264191645 2512.5,3312.547169475478 2437.5,3312.547169475478 2400.0,3247.595264191645 2437.5,3182.6433589078124 2512.5,3182.6433589078124" stroke="#FFFFFFFF" fill="#F36619BA" stroke-width="15.0" /><polygon points="75.0,3377.499074759311 37.50000000000001,3442.4509800431438 -37.499999999999986,3442.4509800431438 -75.0,3377.499074759311 -37.500000000000036,3312.5471694754783 37.50000000000001,3312.5471694754783" stroke="#FFFFFFFF" fill="#F36619CF" stroke-width="15.0" /><polygon points="187.5,3442.4509800431438 150.0,3507.4028853269765 75.00000000000001,3507.4028853269765 37.5,3442.4509800431438 74.99999999999997,3377.499074759311 150.0,3377.499074759311" stroke="#FFFFFFFF" fill="#404040DA" stroke-width="15.0" /><polygon points="300.0,3377.499074759311 262.5,3442.4509800431438 187.5,3442.4509800431438 150.0,3377.499074759311 187.49999999999997,3312.5471694754783 262.5,3312.5471694754783" stroke="#FFFFFFFF" fill="#F36619CF" stroke-width="15.0" /><polygon points="412.5,3442.4509800431438 375.0,3507.4028853269765 300.0,3507.4028853269765 262.5,3442.4509800431438 299.99999999999994,3377.499074759311 375.0,3377.499074759311" stroke="#FFFFFFFF" fill="#404040DA" stroke-width="15.0" /><polygon points="525.0,3377.499074759311 487.5,3442.4509800431438 412.5,3442.4509800431438 375.0,3377.499074759311 412.49999999999994,3312.5471694754783 487.5,3312.5471694754783" stroke="#FFFFFFFF" fill="#F36619CF" stroke-width="15.0" /><polygon points="637.5,3442.4509800431438 600.0,3507.4028853269765 525.0,3507.4028853269765 487.5,3442.4509800431438 525.0,3377.499074759311 600.0,3377.499074759311" stroke="#FFFFFFFF" fill="#F36619DA" stroke-width="15.0" /><polygon points="750.0,3377.499074759311 712.5,3442.4509800431438 637.5,3442.4509800431438 600.0,3377.499074759311 637.5,3312.5471694754783 712.5,3312.5471694754783" stroke="#FFFFFFFF" fill="#F36619CF" stroke-width="15.0" /><polygon points="862.5,3442.4509800431438 825.0,3507.4028853269765 750.0,3507.4028853269765 712.5,3442.4509800431438 750.0,3377.499074759311 825.0,3377.499074759311" stroke="#FFFFFFFF" fill="#F36619DA" stroke-width="15.0" /><polygon points="975.0,3377.499074759311 937.5,3442.4509800431438 862.5,3442.4509800431438 825.0,3377.499074759311 862.5,3312.5471694754783 937.5,3312.5471694754783" stroke="#FFFFFFFF" fill="#F36619CF" stroke-width="15.0" /><polygon points="1087.5,3442.4509800431438 1050.0,3507.4028853269765 975.0,3507.4028853269765 937.5,3442.4509800431438 975.0,3377.499074759311 1050.0,3377.499074759311" stroke="#FFFFFFFF" fill="#F36619DA" stroke-width="15.0" /><polygon points="1200.0,3377.499074759311 1162.5,3442.4509800431438 1087.5,3442.4509800431438 1050.0,3377.499074759311 1087.5,3312.5471694754783 1162.5,3312.5471694754783" stroke="#FFFFFFFF" fill="#F36619CF" stroke-width="15.0" /><polygon points="1312.5,3442.4509800431438 1275.0,3507.4028853269765 1200.0,3507.4028853269765 1162.5,3442.4509800431438 1200.0,3377.499074759311 1275.0,3377.499074759311" stroke="#FFFFFFFF" fill="#F36619DA" stroke-width="15.0" /><polygon points="1425.0,3377.499074759311 1387.5,3442.4509800431438 1312.5,3442.4509800431438 1275.0,3377.499074759311 1312.5,3312.5471694754783 1387.5,3312.5471694754783" stroke="#FFFFFFFF" fill="#F36619CF" stroke-width="15.0" /><polygon points="1537.5,3442.4509800431438 1500.0,3507.4028853269765 1425.0,3507.4028853269765 1387.5,3442.4509800431438 1425.0,3377.499074759311 1500.0,3377.499074759311" stroke="#FFFFFFFF" fill="#F36619DA" stroke-width="15.0" /><polygon points="1762.5,3442.4509800431438 1725.0,3507.4028853269765 1650.0,3507.4028853269765 1612.5,3442.4509800431438 1650.0,3377.499074759311 1725.0,3377.499074759311" stroke="#FFFFFFFF" fill="#F36619DA" stroke-width="15.0" /><polygon points="1875.0,3377.499074759311 1837.5,3442.4509800431438 1762.5,3442.4509800431438 1725.0,3377.499074759311 1762.5,3312.5471694754783 1837.5,3312.5471694754783" stroke="#FFFFFFFF" fill="#F36619CF" stroke-width="15.0" /><polygon points="1987.5,3442.4509800431438 1950.0,3507.4028853269765 1875.0,3507.4028853269765 1837.5,3442.4509800431438 1875.0,3377.499074759311 1950.0,3377.499074759311" stroke="#FFFFFFFF" fill="#F36619DA" stroke-width="15.0" /><polygon points="2212.5,3442.4509800431438 2175.0,3507.4028853269765 2100.0,3507.4028853269765 2062.5,3442.4509800431438 2100.0,3377.499074759311 2175.0,3377.499074759311" stroke="#FFFFFFFF" fill="#F36619DA" stroke-width="15.0" /><polygon points="2325.0,3377.499074759311 2287.5,3442.4509800431438 2212.5,3442.4509800431438 2175.0,3377.499074759311 2212.5,3312.5471694754783 2287.5,3312.5471694754783" stroke="#FFFFFFFF" fill="#F36619CF" stroke-width="15.0" /><polygon points="2437.5,3442.4509800431438 2400.0,3507.4028853269765 2325.0,3507.4028853269765 2287.5,3442.4509800431438 2325.0,3377.499074759311 2400.0,3377.499074759311" stroke="#FFFFFFFF" fill="#F36619DA" stroke-width="15.0" /><polygon points="2550.0,3377.499074759311 2512.5,3442.4509800431438 2437.5,3442.4509800431438 2400.0,3377.499074759311 2437.5,3312.5471694754783 2512.5,3312.5471694754783" stroke="#FFFFFFFF" fill="#F36619CF" stroke-width="15.0" /><polygon points="75.0,3507.4028853269765 37.50000000000001,3572.3547906108092 -37.499999999999986,3572.3547906108092 -75.0,3507.4028853269765 -37.500000000000036,3442.4509800431438 37.50000000000001,3442.4509800431438" stroke="#FFFFFFFF" fill="#F36619E5" stroke-width="15.0" /><polygon points="187.5,3572.3547906108092 150.0,3637.306695894642 75.00000000000001,3637.306695894642 37.5,3572.3547906108092 74.99999999999997,3507.4028853269765 150.0,3507.4028853269765" stroke="#FFFFFFFF" fill="#F36619E5" stroke-width="15.0" /><polygon points="300.0,3507.4028853269765 262.5,3572.3547906108092 187.5,3572.3547906108092 150.0,3507.4028853269765 187.49999999999997,3442.4509800431438 262.5,3442.4509800431438" stroke="#FFFFFFFF" fill="#F36619E5" stroke-width="15.0" /><polygon points="412.5,3572.3547906108092 375.0,3637.306695894642 300.0,3637.306695894642 262.5,3572.3547906108092 299.99999999999994,3507.4028853269765 375.0,3507.4028853269765" stroke="#FFFFFFFF" fill="#404040E5" stroke-width="15.0" /><polygon points="525.0,3507.4028853269765 487.5,3572.3547906108092 412.5,3572.3547906108092 375.0,3507.4028853269765 412.49999999999994,3442.4509800431438 487.5,3442.4509800431438" stroke="#FFFFFFFF" fill="#404040E5" stroke-width="15.0" /><polygon points="637.5,3572.3547906108092 600.0,3637.306695894642 525.0,3637.306695894642 487.5,3572.3547906108092 525.0,3507.4028853269765 600.0,3507.4028853269765" stroke="#FFFFFFFF" fill="#F36619E5" stroke-width="15.0" /><polygon points="750.0,3507.4028853269765 712.5,3572.3547906108092 637.5,3572.3547906108092 600.0,3507.4028853269765 637.5,3442.4509800431438 712.5,3442.4509800431438" stroke="#FFFFFFFF" fill="#F36619E5" stroke-width="15.0" /><polygon points="862.5,3572.3547906108092 825.0,3637.306695894642 750.0,3637.306695894642 712.5,3572.3547906108092 750.0,3507.4028853269765 825.0,3507.4028853269765" stroke="#FFFFFFFF" fill="#404040E5" stroke-width="15.0" /><polygon points="975.0,3507.4028853269765 937.5,3572.3547906108092 862.5,3572.3547906108092 825.0,3507.4028853269765 862.5,3442.4509800431438 937.5,3442.4509800431438" stroke="#FFFFFFFF" fill="#F36619E5" stroke-width="15.0" /><polygon points="1087.5,3572.3547906108092 1050.0,3637.306695894642 975.0,3637.306695894642 937.5,3572.3547906108092 975.0,3507.4028853269765 1050.0,3507.4028853269765" stroke="#FFFFFFFF" fill="#F36619E5" stroke-width="15.0" /><polygon points="1200.0,3507.4028853269765 1162.5,3572.3547906108092 1087.5,3572.3547906108092 1050.0,3507.4028853269765 1087.5,3442.4509800431438 1162.5,3442.4509800431438" stroke="#FFFFFFFF" fill="#F36619E5" stroke-width="15.0" /><polygon points="1312.5,3572.3547906108092 1275.0,3637.306695894642 1200.0,3637.306695894642 1162.5,3572.3547906108092 1200.0,3507.4028853269765 1275.0,3507.4028853269765" stroke="#FFFFFFFF" fill="#F36619E5" stroke-width="15.0" /><polygon points="1425.0,3507.4028853269765 1387.5,3572.3547906108092 1312.5,3572.3547906108092 1275.0,3507.4028853269765 1312.5,3442.4509800431438 1387.5,3442.4509800431438" stroke="#FFFFFFFF" fill="#F36619E5" stroke-width="15.0" /><polygon points="1537.5,3572.3547906108092 1500.0,3637.306695894642 1425.0,3637.306695894642 1387.5,3572.3547906108092 1425.0,3507.4028853269765 1500.0,3507.4028853269765" stroke="#FFFFFFFF" fill="#F36619E5" stroke-width="15.0" /><polygon points="1650.0,3507.4028853269765 1612.5,3572.3547906108092 1537.5,3572.3547906108092 1500.0,3507.4028853269765 1537.5,3442.4509800431438 1612.5,3442.4509800431438" stroke="#FFFFFFFF" fill="#F36619E5" stroke-width="15.0" /><polygon points="1762.5,3572.3547906108092 1725.0,3637.306695894642 1650.0,3637.306695894642 1612.5,3572.3547906108092 1650.0,3507.4028853269765 1725.0,3507.4028853269765" stroke="#FFFFFFFF" fill="#F36619E5" stroke-width="15.0" /><polygon points="1875.0,3507.4028853269765 1837.5,3572.3547906108092 1762.5,3572.3547906108092 1725.0,3507.4028853269765 1762.5,3442.4509800431438 1837.5,3442.4509800431438" stroke="#FFFFFFFF" fill="#F36619E5" stroke-width="15.0" /><polygon points="1987.5,3572.3547906108092 1950.0,3637.306695894642 1875.0,3637.306695894642 1837.5,3572.3547906108092 1875.0,3507.4028853269765 1950.0,3507.4028853269765" stroke="#FFFFFFFF" fill="#F36619E5" stroke-width="15.0" /><polygon points="2100.0,3507.4028853269765 2062.5,3572.3547906108092 1987.5,3572.3547906108092 1950.0,3507.4028853269765 1987.5,3442.4509800431438 2062.5,3442.4509800431438" stroke="#FFFFFFFF" fill="#F36619E5" stroke-width="15.0" /><polygon points="2212.5,3572.3547906108092 2175.0,3637.306695894642 2100.0,3637.306695894642 2062.5,3572.3547906108092 2100.0,3507.4028853269765 2175.0,3507.4028853269765" stroke="#FFFFFFFF" fill="#F36619E5" stroke-width="15.0" /><polygon points="2325.0,3507.4028853269765 2287.5,3572.3547906108092 2212.5,3572.3547906108092 2175.0,3507.4028853269765 2212.5,3442.4509800431438 2287.5,3442.4509800431438" stroke="#FFFFFFFF" fill="#F36619E5" stroke-width="15.0" /><polygon points="2550.0,3507.4028853269765 2512.5,3572.3547906108092 2437.5,3572.3547906108092 2400.0,3507.4028853269765 2437.5,3442.4509800431438 2512.5,3442.4509800431438" stroke="#FFFFFFFF" fill="#F36619E5" stroke-width="15.0" /></svg>