<?xml version="1.0" encoding="utf-8"?>
<!DOCTYPE svg PUBLIC "-//W3C//DTD SVG 1.0//EN" "http://www.w3.org/TR/2001/REC-SVG-20010904/DTD/svg10.dtd">
<svg version="1.0" xmlns="http://www.w3.org/2000/svg" width="1024px" height="1024px" viewBox="0 0 1024 1024" preserveAspectRatio="xMidYMid meet">
 <g fill="#fe7d02">
  <path d="M339.4 828.5 c0.3 -0.9 3.8 -6.1 7.8 -11.7 6.7 -9.2 11.4 -15.8 18.6 -26.2 5.1 -7.3 5.7 -8.2 11.6 -16.1 3.3 -4.4 6.4 -8.3 7 -8.7 0.6 -0.4 58 -0.8 127.6 -0.8 l126.5 0 7 9.6 c3.9 5.2 8.8 12 11 14.9 2.2 3 5 6.9 6.2 8.7 2.4 3.5 14.1 19.5 19.2 26.4 1.7 2.3 3.1 4.4 3.1 4.7 0 0.4 -77.9 0.7 -173.1 0.7 -155.6 0 -173.1 -0.2 -172.5 -1.5z"/>
  <path d="M115.5 787.5 c-3.8 -3 -8.1 -6.3 -9.5 -7.2 -5.6 -3.8 -29.8 -27.4 -32.6 -31.8 -1 -1.6 -3.9 -5.7 -6.5 -9 -5.4 -7.1 -11 -15.6 -13.6 -20.7 -9.8 -19.5 -13.8 -28.7 -16.8 -38.8 -0.9 -3 -2 -6.4 -2.5 -7.5 -0.8 -2.1 -2.1 -8.2 -4.1 -20.5 -1.7 -10 -1.8 -48.9 -0.1 -60.5 1.5 -10.7 3 -17.7 4.7 -22.5 0.7 -1.9 1.9 -5.5 2.6 -8 0.7 -2.5 1.8 -5.6 2.5 -7 0.7 -1.4 1.9 -4.3 2.7 -6.5 9 -24.1 24.2 -46.2 47.3 -69.1 l14.1 -14 0.7 -10 c0.7 -9.5 3.7 -31.6 5.1 -37.9 5.2 -22.9 19.4 -55.4 32.4 -74 6 -8.6 21.5 -26.6 29.7 -34.7 24.1 -23.4 53.9 -40.8 84.9 -49.5 5 -1.4 9.5 -2.9 10.1 -3.4 0.6 -0.5 2.9 -4.7 5.2 -9.3 8.6 -17.3 28.6 -44.5 45.8 -62.3 12.1 -12.5 38.7 -34.1 48.9 -39.7 1.7 -0.9 3.9 -2.2 5 -2.9 11.5 -7.3 20.8 -11.9 36.1 -18 41.9 -16.7 82 -23.2 121.4 -19.7 13.4 1.3 42.3 6.9 54.2 10.6 25 7.8 51.1 20.1 67 31.6 3.7 2.6 7.2 4.8 7.7 4.8 0.5 0 1.4 0.7 2.1 1.5 0.6 0.8 3.2 2.8 5.8 4.5 5.4 3.5 17.6 14.4 28.7 25.5 15.2 15.2 27.1 29.6 36.8 44.5 8.4 13 8.1 12.5 12.7 21.1 l4.1 7.6 9.2 2.3 c51.7 12.7 91.1 41 121.9 87.5 3.6 5.5 7.3 11.4 8.1 13 6.9 14 9.1 18.5 10.4 22 0.8 2.2 1.9 4.8 2.4 5.8 2.1 4 8.8 26.9 11.2 38.7 2.6 12.6 4.7 28.5 4.7 35.9 0 4.3 -0.1 4.1 9.1 12.1 11 9.6 23.3 22.2 29.5 30.5 6.6 8.8 14.4 20.2 14.4 21 0 0.3 1.1 2.2 2.4 4.3 1.2 2 4 7.5 6 12.1 10.9 24.8 16.4 47.8 18.2 76.6 0.9 13.9 -2.1 40 -6.2 54.5 -4.4 15.4 -5.8 19.6 -6.6 20.5 -0.4 0.5 -0.8 1.5 -0.8 2.3 0 4.2 -18.3 37.8 -25.4 46.5 -13.4 16.6 -24 27.6 -38.1 39.3 -9 7.5 -16.5 12.7 -17.2 12 -0.6 -0.6 0.4 -4.5 3.4 -13.6 1.7 -4.9 3.5 -17.1 4.2 -27.3 0.9 -12.4 0.1 -24.3 -2.4 -36.4 -0.8 -4 -1.5 -7.6 -1.5 -8 0 -0.5 1.7 -3.2 3.8 -6 9 -11.8 17.3 -31.4 21.6 -50.8 2.3 -9.9 2.6 -13.8 2.6 -29 0 -12.5 -0.5 -19.5 -1.6 -24.3 -3.3 -14.3 -4.8 -19.7 -5.4 -20.7 -0.4 -0.5 -1.7 -3.5 -2.8 -6.5 -6.1 -16.6 -17.7 -33.5 -33.3 -48.5 -8.2 -7.9 -15 -12.9 -30.3 -22.6 l-3.9 -2.5 0.2 -22.9 c0.2 -23.9 0.4 -22.3 -4.9 -48 -1.1 -5 -7.6 -24.3 -8.8 -25.8 -0.5 -0.7 -1.5 -2.8 -2.2 -4.7 -1.8 -4.8 -10.9 -19.3 -17 -27 -5 -6.3 -7.8 -9.5 -13.3 -15.1 -4.9 -5 -19.2 -16.9 -20.3 -16.9 -0.3 0 -2.4 -1.3 -4.7 -2.8 -14 -9.5 -36.8 -18.8 -54.2 -22.2 -3.3 -0.6 -8.8 -1.8 -12.2 -2.6 -3.4 -0.8 -7.3 -1.4 -8.7 -1.4 -2.9 0 -3.6 -1.1 -6.5 -9.5 -2.1 -6.4 -11.1 -24.6 -15.8 -32.1 -1.5 -2.4 -6.2 -9 -10.3 -14.6 -4.1 -5.5 -8.4 -11.3 -9.5 -12.8 -2.9 -3.9 -10.9 -12.4 -19.2 -20.3 -7.7 -7.4 -24.6 -20.7 -26.2 -20.7 -0.6 0 -1.4 -0.6 -1.8 -1.3 -1.2 -2 -19.8 -11.9 -30.9 -16.5 -14.1 -5.8 -25.1 -9.3 -34.9 -11.2 -2.7 -0.5 -8.1 -1.7 -12 -2.5 -4.5 -1 -14.8 -1.8 -28.5 -2.1 -22.1 -0.6 -24.5 -0.4 -51 4.6 -6.3 1.2 -26.4 7.5 -37.5 11.7 -5.8 2.3 -26.6 13.1 -32.8 17 -16.7 10.8 -43.3 36.2 -53.5 51.2 -3.7 5.3 -5.1 7.5 -10.6 16.8 -1.6 2.6 -3.9 6.4 -5.2 8.4 -1.3 1.9 -2.4 3.8 -2.4 4.3 0 0.4 -1.2 3.3 -2.7 6.4 -1.5 3.1 -3.8 9.1 -5.3 13.2 -3 8.6 -3.5 9 -15.5 11.5 -14.4 3 -16.9 3.7 -26.5 7 -14.3 5 -29 12.3 -38.5 19.2 -3.3 2.4 -7.6 5.4 -9.5 6.7 -1.9 1.3 -8 7 -13.6 12.8 -19.2 20 -31.7 42.9 -39.5 72.3 -3.1 11.9 -3.2 12.3 -3.6 41.5 -0.6 32.5 -0.1 30.3 -7.3 33.8 -10.6 5.3 -27.3 19.3 -36.5 30.8 -1.6 2 -3.9 4.9 -5.1 6.3 -2.7 3.3 -10.6 15.7 -12.7 19.6 -3.1 6.1 -8.6 21.2 -11.1 30.6 -6.3 23.3 -5.8 43.9 1.5 72.4 2.6 10.3 9.4 24.4 17.7 37.4 l5.5 8.4 -1.1 5.1 c-2.7 12.4 -3.5 22.5 -2.9 37 0.5 12.5 1.1 17.2 3.7 27.1 1.7 6.5 3.6 12.5 4.1 13.2 0.6 0.6 0.9 1.9 0.7 2.7 -0.2 1.1 -2.2 0 -7.3 -3.9z"/>
 </g>
 <g fill="#303030">
  <path d="M224.5 828.4 c-16.7 -2.9 -36.5 -16.1 -47.4 -31.6 -14.4 -20.2 -18.8 -39.3 -15.7 -67.6 0.9 -8.1 2.3 -19.2 3.1 -24.7 0.8 -5.5 2.2 -18.3 3 -28.5 0.9 -10.2 2 -21 2.5 -24 0.5 -3 1.9 -14.7 3 -26 1.1 -11.3 2.7 -25.9 3.5 -32.5 0.9 -6.6 2.4 -21.2 3.6 -32.5 4 -40.9 5.5 -50.9 9.3 -61.9 10 -28.7 24.5 -49.8 49.1 -71 1.8 -1.6 11.3 -8.1 17.5 -12.1 9.9 -6.3 27.7 -13.1 39 -14.9 4.2 -0.7 40.4 -1.1 103.2 -1.1 l96.7 0 0.3 -44.2 0.3 -44.3 3.4 -8.2 c6.9 -16.9 24.4 -30.2 39.7 -30.3 1.7 0 4.5 -0.7 6.3 -1.6 7.5 -3.7 14.9 -2.8 20.9 2.7 7.9 7.2 8.1 18.2 0.5 25.7 -4.1 4 -7.6 5 -19 5.4 -10.1 0.4 -10.3 0.4 -13.8 3.8 -1.9 1.9 -4 5 -4.5 7 -0.6 2 -1 20.4 -1 43.7 l0 40.2 102.3 0.4 c110.6 0.3 102.3 -0.1 117.7 5.6 13.7 4.9 32.5 16.3 44.1 26.7 24.4 21.9 41 51.8 46.9 84.4 1.1 6.3 3.2 22.8 4.5 36.5 1.4 13.8 2.7 25.7 3 26.5 0.2 0.8 1.6 12.8 3 26.7 1.4 13.9 2.7 25.8 3 26.5 0.3 0.7 1.6 12.3 3 25.7 1.4 13.3 2.9 27.1 3.5 30.5 0.5 3.4 1.7 14.5 2.5 24.7 0.9 10.1 2 19.9 2.4 21.6 1.1 3.8 -0.2 21 -2.3 31 -1.9 9 -8.1 22.1 -14.5 30.7 -5.4 7.3 -16.8 18.6 -18.7 18.6 -0.6 0 -1.7 0.7 -2.4 1.5 -1.9 2.2 -14.7 8.2 -21.5 10 -9.7 2.5 -23.6 3 -34.5 1 -22.3 -3.9 -39.8 -16.4 -56 -40.2 -0.8 -1.2 -6.9 -10.2 -13.5 -20 -6.6 -9.8 -12.2 -18 -12.5 -18.3 -0.6 -0.6 -19 -27.7 -22.5 -33.3 -0.5 -0.8 -3.5 -5 -6.5 -9.4 -3 -4.3 -8.5 -12.4 -12.3 -18 -4.6 -7 -7.5 -10.3 -8.8 -10.3 -1 0 -4.2 1 -7.1 2.2 -4.6 1.9 -7.2 2.2 -18.8 2.3 -12.6 0 -14 -0.2 -20.5 -2.8 -14.5 -5.9 -26.3 -17.2 -33.8 -32.1 l-3.8 -7.6 -41.4 0 -41.3 0 -4.6 8.4 c-2.6 4.7 -5.6 9.7 -6.9 11.1 -9.9 11.9 -17.1 17.1 -29 21 -7.8 2.5 -9.6 2.7 -19.4 2.3 -7.5 -0.4 -12.6 -1.2 -16.8 -2.7 -3.2 -1.1 -6.9 -2.1 -8.1 -2.1 -2 0 -6.7 5.7 -12.7 15.3 -1 1.6 -2.2 3.4 -2.8 4 -0.6 0.7 -3.3 4.8 -6.1 9.2 -2.8 4.4 -5.4 8.2 -5.8 8.5 -0.3 0.3 -1.7 2.3 -3 4.5 -1.3 2.2 -2.8 4.5 -3.3 5 -0.4 0.6 -1.6 2.2 -2.5 3.7 -0.9 1.4 -8.9 13.3 -17.7 26.3 -8.8 13.1 -18.6 27.6 -21.8 32.3 -10.5 15.6 -16.8 22.4 -26.7 29.1 -17.1 11.6 -36.9 15.4 -59.5 11.5z m489 -216.5 c8.7 -4.3 15.4 -14.9 15.5 -24.6 0.1 -10.4 -9.5 -24.4 -18.6 -27.1 -6.1 -1.8 -16.2 -1.5 -20.9 0.7 -12.1 5.5 -20.2 22.1 -16.5 33.7 2.6 8.1 10.1 16.2 17.8 19.1 5.6 2 16.7 1.2 22.7 -1.8z m-360.8 -2.1 c3.6 -3.7 3.7 -3.8 4.4 -14.5 0.4 -5.9 0.8 -16.5 0.8 -23.5 l0.1 -12.8 22.3 0 22.4 0 4 -2.9 c6.1 -4.4 7.3 -8.5 7.3 -24.9 0 -12.2 -0.3 -14.2 -2.4 -18.7 -1.8 -4 -3.2 -5.5 -6.8 -7.2 -4.3 -2.2 -5.7 -2.3 -25.5 -2.3 l-21.1 0 -0.4 -21.2 c-0.3 -13.5 -1 -22.4 -1.7 -24.3 -0.7 -1.6 -2.9 -4.3 -4.9 -6 l-3.5 -3 -18.1 0 -18.1 0 -3.7 2.8 c-2 1.6 -4.1 4.2 -4.7 5.9 -0.7 1.8 -1.1 11.8 -1.1 24.4 l0 21.4 -21.6 0 c-24.6 0 -28.2 0.8 -32.9 7.7 -2.4 3.6 -2.5 4.3 -2.5 19.8 0 14.7 0.2 16.3 2.3 19.9 4.2 7.5 6.2 8 31.7 8.6 l22.5 0.5 0.5 23.3 0.5 23.3 4.3 4 4.3 4 18.9 -0.3 19 -0.3 3.7 -3.7z m300.9 -54.1 c9.7 -5 16.6 -15.3 16.6 -24.8 0 -6 -4.2 -15.5 -9 -20.2 -10.9 -10.6 -28.5 -10.6 -38.8 0 -8.8 9 -11.5 21.8 -6.6 31.3 2.8 5.4 8.7 11.8 12.2 13.2 8 3.4 9.9 3.8 15.1 3.4 3.2 -0.2 7.5 -1.4 10.5 -2.9z m118 -0.2 c10.5 -4.7 15.5 -11.9 16.2 -23.7 0.5 -8 -2.2 -15 -8.4 -21.3 -5.9 -6 -10.5 -7.9 -19.4 -7.9 -6.2 -0.1 -8.4 0.4 -12.6 2.6 -9.9 5.2 -15.7 14.7 -15.7 25.8 0 8 1.8 12.5 7.4 18.5 8.7 9.4 20.1 11.5 32.5 6z m-278.1 -4.5 c6.2 -5.8 7.2 -14.7 2.4 -20.8 -3.5 -4.5 -6.7 -5.2 -22.7 -5.2 l-14.4 0 -3.8 3.8 c-5 5 -6 9.7 -3.4 16 1.2 2.9 3.3 5.5 5.4 7 3.3 2.2 4.1 2.3 18.7 2 14.6 -0.3 15.2 -0.4 17.8 -2.8z m74.1 0.1 c8.5 -6.3 8 -20.1 -0.7 -24.7 -3.9 -2 -29.8 -2 -33.7 0 -5 2.6 -7.5 6.2 -8 11.6 -0.4 4.2 0 5.6 2.2 9.1 4.1 6.2 6.8 6.9 23.1 6.6 13 -0.2 14.2 -0.4 17.1 -2.6z m141.5 -50.3 c3.9 -1.3 9.1 -5 13.1 -9.3 2.8 -3 6.8 -13.6 6.8 -18 0 -4.9 -3.5 -12.8 -7.7 -17.5 -14.6 -16.2 -38.9 -11.5 -48.1 9.3 -1.5 3.5 -1.6 11.9 -0.1 17.2 2.2 8 10.1 16.2 17.5 18.5 4.3 1.2 14.6 1.2 18.5 -0.2z"/>
  <path d="M265 385.8 c0.1 -2.6 4.1 -13.3 6.3 -16.5 3.3 -5 11.3 -10 19.7 -12.3 6.8 -1.8 10.3 -2 42.1 -2 32.3 0 35.2 0.1 41.4 2.1 7.8 2.4 14.8 8.1 17.6 14.4 l1.8 4 -4.2 0.7 c-2.3 0.3 -26.4 0.7 -53.4 0.7 l-49.3 0.1 -6.7 2.5 c-3.7 1.4 -8.7 3.7 -11 5.1 -2.9 1.7 -4.3 2.1 -4.3 1.2z"/>
  <path d="M755.5 385 c-1.6 -1.1 -6.6 -3.4 -11 -5.1 l-8 -3.2 -33.5 -0.2 c-74.9 -0.4 -72.9 -0.3 -72.3 -2.3 0.9 -3.5 7.9 -11.7 11.8 -13.9 8.2 -4.6 14.9 -5.3 50.7 -5.3 35.2 0 38.8 0.4 48.3 5 6.1 3 11.9 9.8 15.1 18 3.2 8.2 3 9.7 -1.1 7z"/>
 </g>
</svg>
