<?xml version="1.0" encoding="UTF-8" standalone="no"?>
<!DOCTYPE svg PUBLIC "-//W3C//DTD SVG 1.1//EN" "http://www.w3.org/Graphics/SVG/1.1/DTD/svg11.dtd">
<svg width="100%" height="100%" viewBox="0 0 1024 1024" version="1.1" xmlns="http://www.w3.org/2000/svg" xmlns:xlink="http://www.w3.org/1999/xlink" xml:space="preserve" xmlns:serif="http://www.serif.com/" style="fill-rule:evenodd;clip-rule:evenodd;stroke-linejoin:round;stroke-miterlimit:2;">
    <rect id="Artboard1" x="0" y="0" width="1024" height="1024" style="fill:none;"/>
    <g id="Artboard11" serif:id="Artboard1">
        <g id="Layer1">
            <g>
                <path d="M898.504,435.78L802.306,435.787L802.306,496.634L868.962,496.634C877.454,496.634 884.332,503.512 884.332,512.003C884.332,520.488 877.461,527.373 868.962,527.373L802.306,527.373L802.306,588.235L898.499,588.235C905.165,566.023 925.573,549.685 949.928,549.685C979.662,549.685 1003.84,573.872 1003.84,603.605C1003.84,633.332 979.662,657.518 949.928,657.518C925.564,657.518 905.164,641.188 898.499,618.976L802.306,618.976L802.306,679.823L868.962,679.823C877.454,679.823 884.332,686.701 884.332,695.192C884.332,703.677 877.461,710.562 868.962,710.562L802.306,710.562L802.306,725.259C802.306,767.743 767.739,802.31 725.247,802.31L710.55,802.31L710.55,868.974C710.55,877.458 703.679,884.344 695.181,884.344C686.689,884.344 679.811,877.466 679.811,868.974L679.811,802.31L618.964,802.31L618.957,898.509C641.168,905.175 657.5,925.576 657.5,949.931C657.5,979.657 633.32,1003.84 603.586,1003.84C573.853,1003.84 549.673,979.657 549.673,949.931C549.673,925.568 566.004,905.174 588.216,898.509L588.216,802.31L527.368,802.31L527.368,868.974C527.368,877.458 520.497,884.344 511.999,884.344C503.508,884.344 496.63,877.466 496.63,868.974L496.63,802.31L435.775,802.31L435.782,898.509C457.993,905.175 474.325,925.576 474.325,949.931C474.325,979.657 450.145,1003.84 420.412,1003.84C390.671,1003.84 366.479,979.657 366.479,949.931C366.479,925.574 382.816,905.174 405.036,898.509L405.036,802.31L344.167,802.31L344.167,868.974C344.167,877.458 337.296,884.344 328.797,884.344C320.306,884.344 313.428,877.466 313.428,868.974L313.428,802.31L298.731,802.31C256.254,802.31 221.687,767.743 221.687,725.259L221.687,710.562L155.015,710.562C146.524,710.562 139.646,703.684 139.646,695.192C139.646,686.708 146.517,679.823 155.015,679.823L221.687,679.823L221.687,618.976L125.481,618.976C118.815,641.18 98.421,657.518 74.066,657.518C44.332,657.518 20.153,633.332 20.153,603.605C20.153,573.87 44.332,549.677 74.066,549.677C98.421,549.677 118.815,566.008 125.481,588.228L221.687,588.228L221.687,527.373L155.015,527.373C146.524,527.373 139.646,520.495 139.646,512.003C139.646,503.519 146.517,496.634 155.015,496.634L221.694,496.634L221.687,435.779L125.481,435.779C118.815,457.984 98.421,474.322 74.066,474.322C44.332,474.322 20.153,450.135 20.153,420.409C20.153,390.675 44.332,366.488 74.066,366.488C98.421,366.488 118.816,382.819 125.481,405.039L221.687,405.039L221.687,344.191L155.016,344.191C146.524,344.191 139.646,337.313 139.646,328.822C139.646,320.337 146.517,313.452 155.016,313.452L221.694,313.452L221.694,298.748C221.694,256.264 256.261,221.704 298.738,221.704L313.435,221.697L313.435,155.026C313.435,146.542 320.306,139.656 328.805,139.656C337.296,139.656 344.174,146.534 344.174,155.026L344.16,221.697L405.029,221.697L405.029,125.491C382.817,118.825 366.472,98.432 366.472,74.076C366.472,44.343 390.671,20.156 420.405,20.156C450.139,20.156 474.325,44.343 474.318,74.076C474.318,98.432 457.988,118.826 435.775,125.491L435.782,221.697L496.63,221.697L496.63,155.026C496.63,146.542 503.501,139.656 511.999,139.656C520.491,139.656 527.369,146.534 527.369,155.026L527.369,221.704L588.223,221.697L588.223,125.492C566.012,118.825 549.681,98.424 549.681,74.076C549.681,44.343 573.86,20.156 603.594,20.156C633.327,20.156 657.507,44.343 657.507,74.076C657.507,98.432 641.177,118.826 618.964,125.492L618.964,221.697L679.812,221.697L679.812,155.026C679.812,146.542 686.683,139.657 695.181,139.657C703.672,139.657 710.55,146.535 710.55,155.026L710.55,221.705L725.247,221.705C767.739,221.705 802.306,256.264 802.306,298.749L802.306,313.453L868.963,313.453C877.454,313.453 884.332,320.331 884.332,328.822C884.332,337.306 877.461,344.191 868.963,344.191L802.306,344.191L802.306,405.039L898.504,405.039C905.171,382.827 925.579,366.489 949.934,366.489C979.668,366.489 1003.85,390.676 1003.85,420.409C1003.85,450.136 979.668,474.33 949.934,474.323C925.57,474.323 905.17,457.992 898.504,435.78ZM397.227,74.08C397.227,86.859 407.629,97.254 420.415,97.247C433.188,97.247 443.59,86.852 443.59,74.073C443.59,61.293 433.188,50.891 420.415,50.891C407.629,50.891 397.227,61.294 397.227,74.08ZM443.582,949.912C443.582,937.132 433.181,926.73 420.408,926.73C407.621,926.73 397.219,937.132 397.219,949.912C397.219,962.691 407.622,973.086 420.408,973.086C433.181,973.086 443.582,962.691 443.582,949.912ZM74.077,626.762C86.849,626.762 97.251,616.367 97.244,603.588C97.244,590.808 86.842,580.406 74.07,580.406C61.297,580.406 50.896,590.808 50.896,603.588C50.896,616.367 61.298,626.762 74.077,626.762ZM949.927,397.23C937.14,397.23 926.738,407.632 926.738,420.411C926.738,433.191 937.14,443.585 949.927,443.585C962.699,443.585 973.101,433.191 973.101,420.411C973.101,407.631 962.699,397.23 949.927,397.23ZM580.422,74.08C580.422,86.859 590.824,97.254 603.603,97.247C616.375,97.247 626.777,86.852 626.777,74.073C626.777,61.293 616.375,50.891 603.603,50.891C590.823,50.891 580.422,61.294 580.422,74.08ZM626.759,949.912C626.759,937.132 616.357,926.73 603.585,926.737C590.813,926.737 580.411,937.139 580.411,949.919C580.411,962.698 590.813,973.093 603.585,973.093C616.357,973.093 626.759,962.698 626.759,949.912ZM74.077,443.585C86.849,443.585 97.251,433.19 97.244,420.404C97.244,407.624 86.842,397.222 74.07,397.222C61.297,397.222 50.896,407.624 50.896,420.404C50.896,433.191 61.298,443.585 74.077,443.585ZM949.909,580.406C937.122,580.406 926.72,590.808 926.72,603.588C926.72,616.367 937.122,626.762 949.909,626.762C962.681,626.762 973.083,616.367 973.083,603.588C973.083,590.808 962.681,580.406 949.909,580.406Z" style="fill:rgb(192,192,192);"/>
                <path d="M888.964,449.78L816.306,449.786L816.306,482.634L868.962,482.634C885.189,482.634 898.332,495.777 898.332,512.003C898.332,528.216 885.202,541.373 868.962,541.373L816.306,541.373L816.306,574.235C816.306,574.235 888.959,574.235 888.959,574.235C899.906,551.477 923.019,535.685 949.928,535.685C987.383,535.685 1017.84,566.151 1017.84,603.605C1017.84,641.051 987.383,671.518 949.928,671.518C923.008,671.518 899.903,655.733 888.958,632.976L816.306,632.976L816.306,665.823L868.962,665.823C885.189,665.823 898.332,678.966 898.332,695.192C898.332,711.405 885.202,724.562 868.962,724.562L816.306,724.562L816.306,725.259C816.306,775.462 775.459,816.31 725.247,816.31L724.55,816.31L724.55,868.974C724.55,885.187 711.42,898.344 695.181,898.344C678.955,898.344 665.811,885.2 665.811,868.974C665.811,868.974 665.811,816.31 665.811,816.31L632.963,816.31C632.963,816.31 632.957,888.969 632.957,888.969C655.714,899.915 671.5,923.021 671.5,949.931C671.5,987.377 641.041,1017.84 603.586,1017.84C566.132,1017.84 535.673,987.377 535.673,949.931C535.673,923.013 551.458,899.912 574.216,888.968L574.216,816.31L541.368,816.31L541.368,868.974C541.368,885.187 528.239,898.344 511.999,898.344C495.773,898.344 482.63,885.2 482.63,868.974L482.63,816.31C482.63,816.31 449.776,816.31 449.776,816.31C449.776,816.31 449.781,888.968 449.781,888.968C472.539,899.914 488.325,923.02 488.325,949.931C488.325,987.377 457.866,1017.84 420.412,1017.84C382.949,1017.84 352.479,987.375 352.479,949.931C352.479,923.018 368.27,899.911 391.036,888.967C391.036,888.967 391.036,816.31 391.036,816.31L358.167,816.31L358.167,868.974C358.167,885.187 345.037,898.344 328.797,898.344C312.571,898.344 299.428,885.2 299.428,868.974L299.428,816.31L298.731,816.31C248.535,816.31 207.687,775.463 207.687,725.259C207.687,725.259 207.687,724.562 207.687,724.562L155.015,724.562C138.789,724.562 125.646,711.419 125.646,695.192C125.646,678.98 138.776,665.823 155.015,665.823L207.687,665.823C207.687,665.823 207.687,632.976 207.687,632.976C207.687,632.976 135.021,632.976 135.021,632.975C124.076,655.727 100.976,671.518 74.066,671.518C36.611,671.518 6.153,641.051 6.153,603.605C6.153,566.149 36.612,535.677 74.066,535.677C100.977,535.677 124.079,551.463 135.023,574.228C135.023,574.228 207.687,574.228 207.687,574.228C207.687,574.228 207.687,541.373 207.687,541.373L155.015,541.373C138.789,541.373 125.646,528.23 125.646,512.003C125.646,495.791 138.776,482.634 155.015,482.634C155.015,482.634 207.693,482.634 207.693,482.634L207.689,449.779C207.689,449.779 135.021,449.779 135.021,449.779C124.076,472.531 100.976,488.322 74.066,488.322C36.611,488.322 6.153,457.855 6.153,420.409C6.153,382.955 36.612,352.488 74.066,352.488C100.978,352.488 124.08,368.274 135.023,391.039L207.687,391.039C207.687,391.039 207.687,358.191 207.687,358.191L155.016,358.191C138.79,358.191 125.646,345.048 125.646,328.822C125.646,312.609 138.776,299.452 155.016,299.452L207.694,299.452L207.694,298.748C207.694,248.544 248.542,207.704 298.732,207.704L299.435,207.704L299.435,155.026C299.435,138.813 312.565,125.656 328.805,125.656C345.031,125.656 358.174,138.8 358.174,155.026L358.163,207.697L391.029,207.697C391.029,207.697 391.029,135.032 391.029,135.032C368.269,124.088 352.472,100.986 352.472,74.076C352.472,36.623 382.952,6.156 420.405,6.156C457.859,6.156 488.326,36.623 488.318,74.078C488.318,100.988 472.533,124.088 449.776,135.032C449.776,135.032 449.781,207.697 449.781,207.697C449.781,207.697 482.63,207.697 482.63,207.697L482.63,155.026C482.63,138.813 495.76,125.656 511.999,125.656C528.225,125.656 541.369,138.8 541.369,155.026C541.369,155.026 541.369,207.703 541.369,207.703L574.223,207.699C574.223,207.699 574.223,135.032 574.224,135.032C551.466,124.086 535.681,100.979 535.681,74.076C535.681,36.622 566.14,6.156 603.594,6.156C641.048,6.156 671.507,36.622 671.507,74.076C671.507,100.987 655.722,124.088 632.964,135.032L632.964,207.697C632.964,207.697 665.812,207.697 665.812,207.697L665.812,155.026C665.812,138.813 678.941,125.657 695.181,125.657C711.407,125.657 724.55,138.8 724.55,155.026L724.55,207.705L725.247,207.705C775.46,207.705 816.306,248.545 816.306,298.749L816.306,299.453L868.963,299.453C885.189,299.453 898.332,312.596 898.332,328.822C898.332,345.035 885.202,358.191 868.963,358.191L816.306,358.191L816.306,391.039C816.306,391.039 888.964,391.039 888.964,391.039C899.912,368.281 923.025,352.489 949.934,352.489C987.388,352.489 1017.85,382.955 1017.85,420.409C1017.85,457.855 987.388,488.33 949.933,488.323C923.014,488.322 899.909,472.537 888.964,449.78ZM898.504,435.78C905.17,457.992 925.57,474.323 949.934,474.323C979.668,474.33 1003.85,450.136 1003.85,420.409C1003.85,390.676 979.668,366.489 949.934,366.489C925.579,366.489 905.171,382.827 898.504,405.039L802.306,405.039L802.306,344.191L868.963,344.191C877.461,344.191 884.332,337.306 884.332,328.822C884.332,320.331 877.454,313.453 868.963,313.453L802.306,313.453L802.306,298.749C802.306,256.264 767.739,221.705 725.247,221.705L710.55,221.705L710.55,155.026C710.55,146.535 703.672,139.657 695.181,139.657C686.683,139.657 679.812,146.542 679.812,155.026L679.812,221.697L618.964,221.697L618.964,125.492C641.177,118.826 657.507,98.432 657.507,74.076C657.507,44.343 633.327,20.156 603.594,20.156C573.86,20.156 549.681,44.343 549.681,74.076C549.681,98.424 566.012,118.825 588.223,125.492L588.223,221.697L527.369,221.704L527.369,155.026C527.369,146.534 520.491,139.656 511.999,139.656C503.501,139.656 496.63,146.542 496.63,155.026L496.63,221.697L435.782,221.697L435.775,125.491C457.988,118.826 474.318,98.432 474.318,74.076C474.325,44.343 450.139,20.156 420.405,20.156C390.671,20.156 366.472,44.343 366.472,74.076C366.472,98.432 382.817,118.825 405.029,125.491L405.029,221.697L344.16,221.697L344.174,155.026C344.174,146.534 337.296,139.656 328.805,139.656C320.306,139.656 313.435,146.542 313.435,155.026L313.435,221.697L298.738,221.704C256.261,221.704 221.694,256.264 221.694,298.748L221.694,313.452L155.016,313.452C146.517,313.452 139.646,320.337 139.646,328.822C139.646,337.313 146.524,344.191 155.016,344.191L221.687,344.191L221.687,405.039L125.481,405.039C118.816,382.819 98.421,366.488 74.066,366.488C44.332,366.488 20.153,390.675 20.153,420.409C20.153,450.135 44.332,474.322 74.066,474.322C98.421,474.322 118.815,457.984 125.481,435.779L221.687,435.779L221.694,496.634L155.015,496.634C146.517,496.634 139.646,503.519 139.646,512.003C139.646,520.495 146.524,527.373 155.015,527.373L221.687,527.373L221.687,588.228L125.481,588.228C118.815,566.008 98.421,549.677 74.066,549.677C44.332,549.677 20.153,573.87 20.153,603.605C20.153,633.332 44.332,657.518 74.066,657.518C98.421,657.518 118.815,641.18 125.481,618.976L221.687,618.976L221.687,679.823L155.015,679.823C146.517,679.823 139.646,686.708 139.646,695.192C139.646,703.684 146.524,710.562 155.015,710.562L221.687,710.562L221.687,725.259C221.687,767.743 256.254,802.31 298.731,802.31L313.428,802.31L313.428,868.974C313.428,877.466 320.306,884.344 328.797,884.344C337.296,884.344 344.167,877.458 344.167,868.974L344.167,802.31L405.036,802.31L405.036,898.509C382.816,905.174 366.479,925.574 366.479,949.931C366.479,979.657 390.671,1003.84 420.412,1003.84C450.145,1003.84 474.325,979.657 474.325,949.931C474.325,925.576 457.993,905.175 435.782,898.509L435.775,802.31L496.63,802.31L496.63,868.974C496.63,877.466 503.508,884.344 511.999,884.344C520.497,884.344 527.368,877.458 527.368,868.974L527.368,802.31L588.216,802.31L588.216,898.509C566.004,905.174 549.673,925.568 549.673,949.931C549.673,979.657 573.853,1003.84 603.586,1003.84C633.32,1003.84 657.5,979.657 657.5,949.931C657.5,925.576 641.168,905.175 618.957,898.509L618.964,802.31L679.811,802.31L679.811,868.974C679.811,877.466 686.689,884.344 695.181,884.344C703.679,884.344 710.55,877.458 710.55,868.974L710.55,802.31L725.247,802.31C767.739,802.31 802.306,767.743 802.306,725.259L802.306,710.562L868.962,710.562C877.461,710.562 884.332,703.677 884.332,695.192C884.332,686.701 877.454,679.823 868.962,679.823L802.306,679.823L802.306,618.976L898.499,618.976C905.164,641.188 925.564,657.518 949.928,657.518C979.662,657.518 1003.84,633.332 1003.84,603.605C1003.84,573.872 979.662,549.685 949.928,549.685C925.573,549.685 905.165,566.023 898.499,588.235L802.306,588.235L802.306,527.373L868.962,527.373C877.461,527.373 884.332,520.488 884.332,512.003C884.332,503.512 877.454,496.634 868.962,496.634L802.306,496.634L802.306,435.787L898.504,435.78ZM949.927,397.23C962.699,397.23 973.101,407.631 973.101,420.411C973.101,433.191 962.699,443.585 949.927,443.585C937.14,443.585 926.738,433.191 926.738,420.411C926.738,407.632 937.14,397.23 949.927,397.23ZM949.927,411.23C944.861,411.23 940.738,415.348 940.738,420.411C940.738,425.473 944.862,429.585 949.927,429.585C954.983,429.585 959.101,425.47 959.101,420.411C959.101,415.351 954.984,411.23 949.927,411.23ZM626.759,949.912C626.759,962.698 616.357,973.093 603.585,973.093C590.813,973.093 580.411,962.698 580.411,949.919C580.411,937.139 590.813,926.737 603.585,926.737C616.357,926.73 626.759,937.132 626.759,949.912ZM612.759,949.912C612.759,944.855 608.647,940.735 603.593,940.737L603.585,940.737C598.527,940.737 594.411,944.859 594.411,949.919C594.411,954.978 598.529,959.093 603.585,959.093C608.642,959.093 612.759,954.975 612.759,949.912ZM74.077,443.585C61.298,443.585 50.896,433.191 50.896,420.404C50.896,407.624 61.297,397.222 74.07,397.222C86.842,397.222 97.244,407.624 97.244,420.404C97.251,433.19 86.849,443.585 74.077,443.585ZM74.077,429.585C79.131,429.585 83.247,425.471 83.244,420.412L83.244,420.404C83.244,415.343 79.127,411.222 74.07,411.222C69.012,411.222 64.896,415.344 64.896,420.404C64.896,425.468 69.016,429.585 74.077,429.585ZM580.422,74.08C580.422,61.294 590.823,50.891 603.603,50.891C616.375,50.891 626.777,61.293 626.777,74.073C626.777,86.852 616.375,97.247 603.603,97.247C590.824,97.254 580.422,86.859 580.422,74.08ZM594.422,74.08C594.422,79.137 598.538,83.25 603.595,83.247L603.603,83.247C608.659,83.247 612.777,79.132 612.777,74.073C612.777,69.012 608.661,64.891 603.603,64.891C598.54,64.891 594.422,69.014 594.422,74.08ZM397.227,74.08C397.227,61.294 407.629,50.891 420.415,50.891C433.188,50.891 443.59,61.293 443.59,74.073C443.59,86.852 433.188,97.247 420.415,97.247C407.629,97.254 397.227,86.859 397.227,74.08ZM411.227,74.08C411.227,79.138 415.347,83.25 420.408,83.247L420.415,83.247C425.472,83.247 429.59,79.132 429.59,74.073C429.59,69.012 425.473,64.891 420.415,64.891C415.349,64.891 411.227,69.013 411.227,74.08ZM443.582,949.912C443.582,962.691 433.181,973.086 420.408,973.086C407.622,973.086 397.219,962.691 397.219,949.912C397.219,937.132 407.621,926.73 420.408,926.73C433.181,926.73 443.582,937.132 443.582,949.912ZM429.582,949.912C429.582,944.851 425.466,940.73 420.408,940.73C415.343,940.73 411.219,944.849 411.219,949.912C411.219,954.973 415.344,959.086 420.408,959.086C425.465,959.086 429.582,954.971 429.582,949.912ZM74.077,626.762C61.298,626.762 50.896,616.367 50.896,603.588C50.896,590.808 61.297,580.406 74.07,580.406C86.842,580.406 97.244,590.808 97.244,603.588C97.251,616.367 86.849,626.762 74.077,626.762ZM74.077,612.762C79.13,612.762 83.247,608.651 83.244,603.596L83.244,603.588C83.244,598.527 79.127,594.406 74.07,594.406C69.012,594.406 64.896,598.527 64.896,603.588C64.896,608.648 69.017,612.762 74.077,612.762ZM949.909,580.406C962.681,580.406 973.083,590.808 973.083,603.588C973.083,616.367 962.681,626.762 949.909,626.762C937.122,626.762 926.72,616.367 926.72,603.588C926.72,590.808 937.122,580.406 949.909,580.406ZM949.909,594.406C944.843,594.406 940.72,598.525 940.72,603.588C940.72,608.649 944.844,612.762 949.909,612.762C954.965,612.762 959.083,608.647 959.083,603.588C959.083,598.527 954.966,594.406 949.909,594.406Z" style="fill:white;"/>
                <g id="Embedded" transform="matrix(1.81148,0,0,1.81148,-122.01,4.79278)">
                    <rect x="201.377" y="134.891" width="292.866" height="291.601" style="fill:rgb(192,192,192);"/>
                    <path d="M233.29,153.79L232.271,153.79C227.579,153.79 223.786,157.591 223.786,162.274C223.786,166.962 227.583,170.759 232.271,170.759L233.29,170.759C237.981,170.759 241.774,166.958 241.774,162.274C241.774,157.587 237.978,153.79 233.29,153.79Z" style="fill-rule:nonzero;"/>
                    <path d="M468.23,153.79L467.211,153.79C462.519,153.79 458.726,157.591 458.726,162.274C458.726,166.962 462.523,170.759 467.211,170.759L468.23,170.759C472.921,170.759 476.714,166.958 476.714,162.274C476.714,157.587 472.918,153.79 468.23,153.79Z" style="fill-rule:nonzero;"/>
                    <path d="M468.23,389.24L467.211,389.24C462.519,389.24 458.726,393.041 458.726,397.724C458.726,402.412 462.523,406.209 467.211,406.209L468.23,406.209C472.921,406.209 476.714,402.408 476.714,397.724C476.714,393.041 472.918,389.24 468.23,389.24Z" style="fill-rule:nonzero;"/>
                    <path d="M232.79,389.24L231.771,389.24C227.079,389.24 223.286,393.041 223.286,397.724C223.286,402.412 227.083,406.209 231.771,406.209L232.79,406.209C237.481,406.209 241.274,402.408 241.274,397.724C241.274,393.041 237.481,389.24 232.79,389.24Z" style="fill-rule:nonzero;"/>
                    <path d="M309.43,330.91C312.743,327.598 312.743,322.226 309.43,318.91L271.481,280.953C271.11,280.582 271.024,280.156 271.024,279.863C271.024,279.574 271.106,279.152 271.481,278.773L309.149,241.097C312.462,237.785 312.462,232.41 309.149,229.097C305.837,225.785 300.465,225.785 297.149,229.097L259.481,266.769C255.985,270.266 254.055,274.914 254.055,279.863C254.055,284.813 255.985,289.461 259.481,292.957L297.43,330.91C300.743,334.223 306.114,334.223 309.43,330.91L309.43,330.91Z" style="fill-rule:nonzero;"/>
                    <path d="M402.84,229.09C399.527,225.778 394.156,225.778 390.84,229.09C387.527,232.403 387.527,237.774 390.84,241.09L428.516,278.77C428.887,279.141 428.973,279.567 428.973,279.856C428.973,280.149 428.891,280.571 428.516,280.95L390.559,318.903C387.246,322.215 387.246,327.586 390.559,330.903C393.871,334.215 399.243,334.219 402.559,330.903L440.516,292.954C444.012,289.458 445.942,284.809 445.942,279.856C445.942,274.91 444.012,270.262 440.516,266.77L402.84,229.09Z" style="fill-rule:nonzero;"/>
                    <path d="M372.55,198.14C368.034,196.855 363.363,199.55 362.116,204.066L321.522,351.436C320.28,355.955 322.932,360.623 327.448,361.87C331.893,363.116 336.624,360.514 337.882,355.944L378.476,208.574C379.718,204.055 377.066,199.387 372.55,198.14Z" style="fill-rule:nonzero;"/>
                    <path d="M269.58,170.76L331.185,170.76C335.876,170.76 339.669,166.959 339.669,162.276C339.669,157.588 335.873,153.791 331.185,153.791L269.58,153.791C264.889,153.791 261.096,157.592 261.096,162.276C261.092,166.959 264.889,170.76 269.58,170.76Z" style="fill-rule:nonzero;"/>
                    <path d="M368.82,170.76L430.425,170.76C435.116,170.76 438.909,166.959 438.909,162.276C438.909,157.588 435.113,153.791 430.425,153.791L368.82,153.791C364.129,153.791 360.336,157.592 360.336,162.276C360.336,166.959 364.133,170.76 368.82,170.76Z" style="fill-rule:nonzero;"/>
                    <path d="M331.18,389.24L269.575,389.24C264.884,389.24 261.091,393.041 261.091,397.724C261.091,402.412 264.888,406.209 269.575,406.209L331.18,406.209C335.871,406.209 339.664,402.408 339.664,397.724C339.664,393.041 335.868,389.24 331.18,389.24Z" style="fill-rule:nonzero;"/>
                    <path d="M430.42,389.24L368.815,389.24C364.124,389.24 360.331,393.041 360.331,397.724C360.331,402.412 364.128,406.209 368.815,406.209L430.42,406.209C435.111,406.209 438.904,402.408 438.904,397.724C438.908,393.041 435.111,389.24 430.42,389.24Z" style="fill-rule:nonzero;"/>
                    <path d="M563.36,237.92C567.04,250.182 578.301,259.197 591.751,259.197C608.165,259.201 621.513,245.845 621.513,229.435C621.513,213.021 608.165,199.669 591.751,199.669C578.306,199.669 567.04,208.689 563.36,220.95L510.255,220.95L510.255,187.36L547.052,187.36C551.743,187.36 555.536,183.559 555.536,178.876C555.536,174.188 551.74,170.391 547.052,170.391L510.255,170.391L510.255,162.274C510.255,138.821 491.173,119.743 467.716,119.743L459.603,119.743L459.603,82.934C459.603,78.247 455.806,74.45 451.118,74.45C446.427,74.45 442.634,78.25 442.634,82.934L442.634,119.739L409.044,119.739L409.044,66.63C421.306,62.95 430.321,51.692 430.321,38.247C430.321,21.833 416.973,8.481 400.559,8.481C384.145,8.481 370.797,21.833 370.797,38.247C370.797,51.688 379.813,62.95 392.074,66.63L392.074,119.739L358.48,119.743L358.48,82.934C358.48,78.246 354.683,74.45 349.996,74.45C345.304,74.45 341.511,78.25 341.511,82.934L341.511,119.739L307.921,119.739L307.917,66.63C320.179,62.95 329.194,51.692 329.194,38.247C329.198,21.833 315.846,8.481 299.432,8.481C283.018,8.481 269.659,21.833 269.659,38.247C269.659,51.692 278.683,62.95 290.944,66.63L290.944,119.739L257.342,119.739L257.35,82.934C257.35,78.246 253.553,74.45 248.866,74.45C244.174,74.45 240.381,78.25 240.381,82.934L240.381,119.739L232.268,119.743C208.819,119.743 189.737,138.821 189.737,162.274L189.737,170.391L152.928,170.391C148.237,170.391 144.444,174.192 144.444,178.875C144.444,183.563 148.24,187.36 152.928,187.36L189.733,187.36L189.733,220.95L136.624,220.95C132.944,208.684 121.686,199.669 108.241,199.669C91.827,199.669 78.479,213.021 78.479,229.435C78.479,245.845 91.827,259.197 108.241,259.197C121.686,259.197 132.944,250.177 136.624,237.92L189.733,237.92L189.737,271.514L152.928,271.514C148.236,271.514 144.443,275.315 144.443,279.998C144.443,284.686 148.24,288.483 152.928,288.483L189.733,288.483L189.733,322.077L136.624,322.077C132.944,309.811 121.686,300.796 108.241,300.796C91.827,300.796 78.479,314.151 78.479,330.566C78.479,346.976 91.827,360.328 108.241,360.328C121.686,360.328 132.944,351.308 136.624,339.051L189.733,339.051L189.733,372.641L152.928,372.641C148.236,372.641 144.443,376.441 144.443,381.125C144.443,385.813 148.24,389.609 152.928,389.609L189.733,389.609L189.733,397.723C189.733,421.176 208.815,440.258 232.264,440.258L240.377,440.258L240.377,477.059C240.377,481.746 244.174,485.543 248.862,485.543C253.553,485.543 257.346,481.742 257.346,477.059L257.346,440.258L290.948,440.258L290.948,493.363C278.682,497.042 269.663,508.304 269.663,521.75C269.663,538.16 283.018,551.512 299.436,551.512C315.85,551.512 329.198,538.16 329.198,521.75C329.198,508.305 320.182,497.043 307.921,493.363L307.917,440.258L341.511,440.258L341.511,477.059C341.511,481.746 345.308,485.543 349.995,485.543C354.687,485.543 358.48,481.742 358.48,477.059L358.48,440.258L392.07,440.258L392.07,493.363C379.808,497.042 370.793,508.301 370.793,521.75C370.793,538.16 384.141,551.512 400.555,551.512C416.969,551.512 430.317,538.16 430.317,521.75C430.317,508.305 421.301,497.043 409.04,493.363L409.044,440.258L442.634,440.258L442.634,477.059C442.634,481.746 446.431,485.543 451.118,485.543C455.81,485.543 459.603,481.742 459.603,477.059L459.603,440.258L467.716,440.258C491.173,440.258 510.255,421.176 510.255,397.723L510.255,389.609L547.052,389.609C551.743,389.609 555.536,385.809 555.536,381.125C555.536,376.438 551.739,372.641 547.052,372.641L510.255,372.641L510.255,339.051L563.357,339.051C567.037,351.313 578.298,360.328 591.748,360.328C608.162,360.328 621.51,346.976 621.51,330.566C621.51,314.152 608.162,300.8 591.748,300.8C578.303,300.8 567.037,309.819 563.357,322.081L510.255,322.081L510.255,288.483L547.052,288.483C551.743,288.483 555.536,284.682 555.536,279.998C555.536,275.311 551.739,271.514 547.052,271.514L510.255,271.514L510.255,237.924L563.36,237.92ZM591.747,216.639C598.798,216.639 604.54,222.381 604.54,229.436C604.54,236.491 598.798,242.229 591.747,242.229C584.688,242.229 578.946,236.491 578.946,229.436C578.946,222.381 584.688,216.639 591.747,216.639ZM387.767,38.249C387.767,31.19 393.509,25.448 400.564,25.448C407.615,25.448 413.357,31.19 413.357,38.245C413.357,45.3 407.615,51.038 400.564,51.038C393.509,51.042 387.767,45.304 387.767,38.249ZM286.637,38.249C286.637,31.19 292.379,25.448 299.438,25.448C306.489,25.448 312.231,31.19 312.231,38.245C312.231,45.3 306.489,51.038 299.438,51.038C292.379,51.042 286.637,45.304 286.637,38.249ZM108.247,242.229C101.192,242.229 95.45,236.491 95.45,229.432C95.45,222.377 101.192,216.635 108.243,216.635C115.294,216.635 121.036,222.377 121.036,229.432C121.04,236.491 115.298,242.229 108.247,242.229ZM108.247,343.349C101.192,343.349 95.45,337.611 95.45,330.556C95.45,323.501 101.192,317.759 108.243,317.759C115.294,317.759 121.036,323.501 121.036,330.556C121.04,337.611 115.298,343.349 108.247,343.349ZM312.227,521.739C312.227,528.794 306.485,534.532 299.434,534.532C292.375,534.532 286.633,528.794 286.633,521.739C286.633,514.684 292.375,508.942 299.434,508.942C306.485,508.942 312.227,514.684 312.227,521.739ZM413.347,521.739C413.347,528.798 407.605,534.536 400.554,534.536C393.503,534.536 387.761,528.798 387.761,521.743C387.761,514.688 393.503,508.946 400.554,508.946C407.605,508.942 413.347,514.684 413.347,521.739ZM591.737,317.759C598.788,317.759 604.53,323.501 604.53,330.556C604.53,337.611 598.788,343.349 591.737,343.349C584.678,343.349 578.936,337.611 578.936,330.556C578.936,323.501 584.678,317.759 591.737,317.759ZM493.276,397.712C493.276,411.81 481.807,423.278 467.706,423.278L232.256,423.278C218.162,423.278 206.694,411.809 206.694,397.712L206.694,162.262C206.694,148.168 218.163,136.7 232.256,136.7L467.706,136.7C481.808,136.7 493.276,148.169 493.276,162.262L493.276,397.712Z" style="fill-rule:nonzero;"/>
                </g>
            </g>
        </g>
    </g>
</svg>
