<?xml version="1.0" encoding="UTF-8" standalone="no"?>
<!DOCTYPE svg PUBLIC "-//W3C//DTD SVG 1.1//EN" "http://www.w3.org/Graphics/SVG/1.1/DTD/svg11.dtd">
<svg width="100%" height="100%" viewBox="0 0 1024 1024" version="1.1" xmlns="http://www.w3.org/2000/svg" xmlns:xlink="http://www.w3.org/1999/xlink" xml:space="preserve" xmlns:serif="http://www.serif.com/" style="fill-rule:evenodd;clip-rule:evenodd;stroke-linecap:round;stroke-linejoin:round;stroke-miterlimit:1.5;">
    <rect id="Artboard1" x="0" y="0" width="1024" height="1024" style="fill:none;"/>
    <g id="Artboard11" serif:id="Artboard1">
        <g transform="matrix(2.00754,0,0,2.00754,-134.105,-49.4874)">
            <g id="Layer1">
                <g id="General">
                    <g transform="matrix(0.498123,0,0,0.498123,66.8009,24.6508)">
                        <path d="M951.149,77.242C965.123,77.258 978.518,82.818 988.399,92.691C998.272,102.572 1003.83,115.966 1003.85,129.941L1003.85,727.183C1003.83,741.157 998.272,754.552 988.399,764.433C978.518,774.306 965.123,779.866 951.149,779.881L630.264,779.881L646.897,858.928L652.528,858.928C671.16,858.944 689.015,866.356 702.19,879.529C715.365,892.703 722.776,910.559 722.791,929.192C722.791,933.85 720.941,938.32 717.647,941.613C714.353,944.907 709.883,946.758 705.225,946.758L318.775,946.758C314.117,946.758 309.647,944.907 306.353,941.613C303.059,938.32 301.209,933.85 301.209,929.192C301.225,910.56 308.637,892.704 321.81,879.529C334.983,866.354 352.84,858.944 371.472,858.928L377.103,858.928L393.736,779.881L72.851,779.881C58.877,779.866 45.482,774.306 35.601,764.433C25.728,754.552 20.168,741.157 20.153,727.183L20.153,129.941C20.168,115.966 25.728,102.572 35.601,92.691C45.482,82.818 58.877,77.258 72.851,77.242L951.149,77.242Z" style="fill:rgb(118,214,255);"/>
                        <path d="M658.3,845.13C678.534,846.533 697.655,855.197 712.089,869.629C727.887,885.426 736.773,906.838 736.791,929.18L736.791,929.192C736.791,937.562 733.465,945.594 727.547,951.513C721.628,957.431 713.596,960.758 705.225,960.758L318.775,960.758C310.404,960.758 302.372,957.431 296.454,951.513C290.535,945.595 287.209,937.562 287.209,929.192L287.209,929.18C287.228,906.839 296.114,885.428 311.91,869.63C326.343,855.196 345.464,846.532 365.7,845.13L376.483,793.881L72.851,793.881L72.835,793.881C55.155,793.861 38.207,786.828 25.706,774.336L25.698,774.328C13.206,761.826 6.173,744.879 6.153,727.199L6.153,727.183L6.153,129.941L6.153,129.925C6.173,112.244 13.206,95.297 25.698,82.795L25.706,82.787C38.208,70.296 55.155,63.262 72.835,63.242L72.851,63.242L951.149,63.242L951.164,63.242C968.845,63.262 985.793,70.296 998.294,82.787L998.302,82.795C1010.79,95.297 1017.83,112.244 1017.85,129.925L1017.85,129.941L1017.85,727.183L1017.85,727.199C1017.83,744.879 1010.79,761.827 998.302,774.328L998.294,774.336C985.792,786.828 968.845,793.861 951.165,793.881L951.149,793.881L647.517,793.881L658.3,845.13ZM951.149,77.242L72.851,77.242C58.877,77.258 45.482,82.818 35.601,92.691C25.728,102.572 20.168,115.966 20.153,129.941L20.153,727.183C20.168,741.157 25.728,754.552 35.601,764.433C45.482,774.306 58.877,779.866 72.851,779.881L393.736,779.881L377.103,858.928L371.472,858.928C352.84,858.944 334.983,866.354 321.81,879.529C308.637,892.704 301.225,910.56 301.209,929.192C301.209,933.85 303.059,938.32 306.353,941.613C309.647,944.907 314.117,946.758 318.775,946.758L705.225,946.758C709.883,946.758 714.353,944.907 717.647,941.613C720.941,938.32 722.791,933.85 722.791,929.192C722.776,910.559 715.365,892.703 702.19,879.529C689.015,866.356 671.16,858.944 652.528,858.928L646.897,858.928L630.264,779.881L951.149,779.881C965.123,779.866 978.518,774.306 988.399,764.433C998.272,754.552 1003.83,741.157 1003.85,727.183L1003.85,129.941C1003.83,115.966 998.272,102.572 988.399,92.691C978.518,82.818 965.123,77.258 951.149,77.242Z" style="fill:white;"/>
                    </g>
                    <rect x="86.629" y="75.932" width="469.52" height="282.271" style="fill:rgb(118,214,255);"/>
                    <path d="M86.629,350L89.047,399.65L555.098,401.612L556.149,350L86.629,350" style="fill:rgb(214,214,214);stroke:black;stroke-width:0.5px;"/>
                    <rect x="234.34" y="464.729" width="173.451" height="21.862" style="fill:rgb(214,214,214);"/>
                    <g transform="matrix(1,0,0,1,2,0)">
                        <rect x="268.454" y="411.58" width="104.245" height="53.149" style="fill:rgb(169,169,169);"/>
                    </g>
                    <g transform="matrix(1,0,0,1,-28.1603,-0.311051)">
                        <path d="M363.12,387.19L336.87,387.19C332.038,387.19 328.12,383.272 328.12,378.44C328.12,373.608 332.038,369.69 336.87,369.69L363.12,369.69C367.952,369.69 371.87,373.608 371.87,378.44C371.87,383.272 367.952,387.19 363.12,387.19Z" style="fill-rule:nonzero;"/>
                    </g>
                    <g transform="matrix(1,0,0,1,-28.1603,-0.311051)">
                        <path d="M568.75,63.438L131.25,63.438C124.289,63.446 117.617,66.215 112.695,71.133C107.777,76.055 105.007,82.727 105,89.688L105,387.188C105.008,394.149 107.777,400.821 112.695,405.743C117.617,410.661 124.289,413.431 131.25,413.439L291.09,413.439L282.805,452.814L280,452.814C270.719,452.821 261.824,456.513 255.262,463.076C248.7,469.638 245.008,478.533 245,487.814C245,490.134 245.922,492.361 247.563,494.001C249.203,495.642 251.43,496.564 253.75,496.564L446.25,496.564C448.57,496.564 450.797,495.642 452.438,494.001C454.078,492.36 455,490.134 455,487.814C454.992,478.532 451.301,469.638 444.738,463.076C438.175,456.514 429.281,452.822 420,452.814L417.195,452.814L408.91,413.439L568.75,413.439C575.711,413.431 582.383,410.661 587.305,405.743C592.223,400.821 594.993,394.149 595.001,387.188L595.001,89.688C594.993,82.727 592.223,76.055 587.305,71.133C582.383,66.215 575.711,63.446 568.75,63.438ZM131.25,80.938L568.75,80.938C573.582,80.942 577.496,84.856 577.5,89.688L577.5,343.438L122.5,343.438L122.5,89.688C122.504,84.856 126.418,80.942 131.25,80.938ZM435.15,479.058L264.85,479.058C266.381,476.398 268.592,474.187 271.252,472.652C273.909,471.117 276.928,470.308 279.998,470.308L419.998,470.308C423.069,470.308 426.088,471.117 428.745,472.652C431.405,474.187 433.616,476.398 435.147,479.058L435.15,479.058ZM399.314,452.808L300.689,452.808L308.978,413.433L391.025,413.433L399.314,452.808ZM568.754,395.933L131.254,395.933C126.422,395.929 122.508,392.015 122.504,387.183L122.504,360.933L577.504,360.933L577.504,387.183C577.5,392.015 573.586,395.929 568.754,395.933Z" style="fill-rule:nonzero;"/>
                    </g>
                    <g transform="matrix(1,0,0,1,-28.1603,-0.311051)">
                        <path d="M301.88,187.71C300.333,187.71 298.814,187.296 297.482,186.515L242.818,154.617C240.13,153.05 238.478,150.171 238.478,147.062C238.478,143.953 240.13,141.074 242.818,139.507L297.478,107.609L297.482,107.609C301.65,105.191 306.993,106.605 309.423,110.766C311.852,114.93 310.454,120.277 306.298,122.719L264.591,147.063L306.298,171.407C309.712,173.403 311.364,177.434 310.329,181.25C309.298,185.067 305.833,187.715 301.88,187.711L301.88,187.71Z" style="fill-rule:nonzero;"/>
                    </g>
                    <g transform="matrix(1,0,0,1,-28.1603,-0.311051)">
                        <path d="M398.12,187.71C394.167,187.714 390.702,185.066 389.671,181.249C388.636,177.433 390.288,173.401 393.702,171.405L435.409,147.061L393.702,122.717C391.698,121.545 390.241,119.631 389.651,117.385C389.061,115.143 389.389,112.756 390.557,110.753C392.991,106.581 398.35,105.174 402.518,107.608L457.182,139.506C459.87,141.072 461.522,143.951 461.522,147.061C461.522,150.17 459.87,153.049 457.182,154.615L402.518,186.513C401.186,187.295 399.667,187.709 398.12,187.709L398.12,187.71Z" style="fill-rule:nonzero;"/>
                    </g>
                    <g transform="matrix(1,0,0,1,-28.1603,-0.311051)">
                        <path d="M333.72,197.89C330.833,197.894 328.13,196.468 326.497,194.089C324.865,191.706 324.513,188.671 325.56,185.98L358.115,101.839C359.865,97.335 364.931,95.1 369.435,96.847C373.939,98.589 376.177,103.655 374.435,108.159L341.88,192.3L341.88,192.304C340.571,195.671 337.329,197.889 333.72,197.889L333.72,197.89Z" style="fill-rule:nonzero;"/>
                    </g>
                    <g transform="matrix(1,0,0,1,-28.1603,-0.311051)">
                        <path d="M201.7,236.25L183.747,236.25C178.915,236.25 174.997,232.332 174.997,227.5C174.997,222.668 178.915,218.75 183.747,218.75L201.7,218.75C206.532,218.75 210.45,222.668 210.45,227.5C210.45,232.332 206.532,236.25 201.7,236.25Z" style="fill-rule:nonzero;"/>
                    </g>
                    <g transform="matrix(1,0,0,1,-28.1603,-0.311051)">
                        <path d="M516.25,236.25L232.75,236.25C227.918,236.25 224,232.332 224,227.5C224,222.668 227.918,218.75 232.75,218.75L516.25,218.75C521.082,218.75 525,222.668 525,227.5C525,232.332 521.082,236.25 516.25,236.25Z" style="fill-rule:nonzero;"/>
                    </g>
                    <g transform="matrix(1,0,0,1,-28.1603,-0.311051)">
                        <path d="M201.7,280L183.747,280C178.915,280 174.997,276.082 174.997,271.25C174.997,266.418 178.915,262.5 183.747,262.5L201.7,262.5C206.532,262.5 210.45,266.418 210.45,271.25C210.45,276.082 206.532,280 201.7,280Z" style="fill-rule:nonzero;"/>
                    </g>
                    <g transform="matrix(1,0,0,1,-28.1603,-0.311051)">
                        <path d="M516.25,280L285.47,280C280.638,280 276.72,276.082 276.72,271.25C276.72,266.418 280.638,262.5 285.47,262.5L516.25,262.5C521.082,262.5 525,266.418 525,271.25C525,276.082 521.082,280 516.25,280Z" style="fill-rule:nonzero;"/>
                    </g>
                    <g transform="matrix(1,0,0,1,-28.1603,-0.311051)">
                        <path d="M253.75,280L232.746,280C227.914,280 223.996,276.082 223.996,271.25C223.996,266.418 227.914,262.5 232.746,262.5L253.75,262.5C258.582,262.5 262.5,266.418 262.5,271.25C262.5,276.082 258.582,280 253.75,280Z" style="fill-rule:nonzero;"/>
                    </g>
                    <g transform="matrix(1,0,0,1,-28.1603,-0.311051)">
                        <path d="M201.7,323.75L183.747,323.75C178.915,323.75 174.997,319.832 174.997,315C174.997,310.168 178.915,306.25 183.747,306.25L201.7,306.25C206.532,306.25 210.45,310.168 210.45,315C210.45,319.832 206.532,323.75 201.7,323.75Z" style="fill-rule:nonzero;"/>
                    </g>
                    <g transform="matrix(1,0,0,1,-28.1603,-0.311051)">
                        <path d="M516.25,323.75L492.188,323.75C487.356,323.75 483.438,319.832 483.438,315C483.438,310.168 487.356,306.25 492.188,306.25L516.25,306.25C521.082,306.25 525,310.168 525,315C525,319.832 521.082,323.75 516.25,323.75Z" style="fill-rule:nonzero;"/>
                    </g>
                    <g transform="matrix(1,0,0,1,-28.1603,-0.311051)">
                        <path d="M456.09,323.75L232.74,323.75C227.908,323.75 223.99,319.832 223.99,315C223.99,310.168 227.908,306.25 232.74,306.25L456.09,306.25C460.922,306.25 464.84,310.168 464.84,315C464.84,319.832 460.922,323.75 456.09,323.75Z" style="fill-rule:nonzero;"/>
                    </g>
                </g>
            </g>
        </g>
    </g>
</svg>
