<?xml version="1.0" encoding="UTF-8" standalone="no"?>
<!DOCTYPE svg PUBLIC "-//W3C//DTD SVG 1.1//EN" "http://www.w3.org/Graphics/SVG/1.1/DTD/svg11.dtd">
<svg width="100%" height="100%" viewBox="0 0 1024 1024" version="1.1" xmlns="http://www.w3.org/2000/svg" xmlns:xlink="http://www.w3.org/1999/xlink" xml:space="preserve" xmlns:serif="http://www.serif.com/" style="fill-rule:evenodd;clip-rule:evenodd;stroke-linecap:round;stroke-linejoin:round;stroke-miterlimit:1.5;">
    <rect id="Artboard1" x="0" y="0" width="1024" height="1024" style="fill:none;"/>
    <g id="Artboard11" serif:id="Artboard1">
        <g transform="matrix(1.98404,0,0,1.98404,-182.953,-44.3986)">
            <g id="Layer1">
                <g id="Legacy-Systems" serif:id="Legacy Systems">
                    <g transform="matrix(0.504023,0,0,0.504023,92.2126,22.3779)">
                        <path d="M995.803,677.791C1006.22,702.096 1006.22,726.4 997.539,750.705C988.859,773.273 971.499,792.369 947.194,802.786L610.404,950.348L504.506,993.749C502.77,995.485 499.298,995.485 497.562,995.485L495.826,995.485L238.893,965.973C237.157,967.709 235.421,967.709 233.685,967.709L37.513,967.709C27.097,967.709 20.153,960.765 20.153,950.348L20.153,606.614C20.153,596.198 27.097,589.253 37.513,589.253L398.608,589.253C402.08,589.253 403.816,589.253 407.288,590.99L556.587,677.791L757.967,589.253C768.383,584.045 782.271,580.573 796.16,580.573C829.144,580.573 860.393,597.934 877.753,625.71C886.433,622.238 896.849,620.502 909.002,620.502C947.194,620.502 981.915,643.071 995.803,677.791ZM639.695,678.234L593.024,698.624L596.365,700.533L639.695,678.234ZM822.2,507.66L400.344,507.66C389.928,507.66 382.984,500.716 384.72,492.036L384.72,163.925C386.456,162.189 386.456,162.189 386.456,160.453C386.456,158.717 388.192,156.981 388.192,156.981C388.192,155.245 388.192,153.509 389.928,153.509L544.435,31.987C544.435,30.251 546.171,30.251 546.171,30.251C547.907,30.251 547.907,28.515 549.643,28.515L822.2,28.515C832.616,28.515 839.56,35.459 839.56,45.875L839.56,490.3C839.56,500.716 832.616,507.66 822.2,507.66Z" style="fill:rgb(118,214,255);"/>
                        <path d="M1008.73,672.418L1008.75,672.449C1020.55,700.104 1020.6,727.758 1010.72,755.413C1010.69,755.519 1010.65,755.625 1010.61,755.73C1000.63,781.673 980.694,803.642 952.767,815.629L616.022,963.172C615.92,963.216 615.817,963.26 615.713,963.303C615.713,963.303 510.419,1006.46 510.429,1006.45C506.119,1008.65 500.772,1009.49 497.562,1009.49L495.826,1009.49C495.292,1009.49 494.759,1009.46 494.228,1009.39C494.228,1009.39 242.039,980.426 242.04,980.426C239.275,981.49 236.519,981.709 233.685,981.709L37.513,981.709C28.16,981.709 20.483,978.29 15.027,972.834C9.572,967.378 6.153,959.701 6.153,950.348L6.153,606.614C6.153,597.261 9.572,589.584 15.027,584.128C20.483,578.672 28.16,575.253 37.513,575.253L398.608,575.253C404.602,575.253 407.555,575.47 413.549,578.468C413.812,578.599 414.071,578.739 414.325,578.886L557.469,662.11C557.469,662.11 752.032,576.57 752.014,576.578C764.106,570.599 780.127,566.573 796.16,566.573C830.25,566.573 862.717,582.768 883.346,609.303C890.995,607.462 899.543,606.502 909.002,606.502C952.895,606.502 992.702,632.555 1008.73,672.418ZM995.803,677.791C981.915,643.071 947.194,620.502 909.002,620.502C896.849,620.502 886.433,622.238 877.753,625.71C860.393,597.934 829.144,580.573 796.16,580.573C782.271,580.573 768.383,584.045 757.967,589.253L556.587,677.791L407.288,590.99C403.816,589.253 402.08,589.253 398.608,589.253L37.513,589.253C27.097,589.253 20.153,596.198 20.153,606.614L20.153,950.348C20.153,960.765 27.097,967.709 37.513,967.709L233.685,967.709C235.421,967.709 237.157,967.709 238.893,965.973L495.826,995.485L497.562,995.485C499.298,995.485 502.77,995.485 504.506,993.749L610.404,950.348L947.194,802.786C971.499,792.369 988.859,773.273 997.539,750.705C1006.22,726.4 1006.22,702.096 995.803,677.791ZM373.288,155.844C373.655,154.754 374.115,153.707 374.605,152.741C375.302,149.213 376.819,146.181 378.692,144.231C379.992,142.878 381.525,141.68 383.401,140.831C383.401,140.831 532.452,23.6 532.452,23.601C534.83,19.484 538.848,17.673 541.923,16.876C544.096,15.676 546.907,14.515 549.643,14.515L822.2,14.515C831.553,14.515 839.23,17.934 844.686,23.389C850.141,28.845 853.56,36.522 853.56,45.875L853.56,490.3C853.56,499.652 850.141,507.33 844.686,512.785C839.23,518.241 831.553,521.66 822.2,521.66L400.344,521.66C380.375,521.66 368.311,507.37 370.72,490.863L370.72,163.925C370.72,161.012 371.628,158.192 373.288,155.844ZM545.483,16.282C545.92,16.251 546.171,16.251 546.171,16.251C545.942,16.251 545.713,16.262 545.483,16.282ZM822.2,507.66C832.616,507.66 839.56,500.716 839.56,490.3L839.56,45.875C839.56,35.459 832.616,28.515 822.2,28.515L549.643,28.515C547.907,28.515 547.907,30.251 546.171,30.251C546.171,30.251 544.435,30.251 544.435,31.987L389.928,153.509C388.192,153.509 388.192,155.245 388.192,156.981C388.192,156.981 386.456,158.717 386.456,160.453C386.456,162.189 386.456,162.189 384.72,163.925L384.72,492.036C382.984,500.716 389.928,507.66 400.344,507.66L822.2,507.66Z" style="fill:white;"/>
                    </g>
                    <g transform="matrix(1,0,0,1,20.1281,18.719)">
                        <path d="M483.943,29.027L350,27.959L276.07,86.696L275.269,249.53L483.943,249.53L483.943,29.027Z" style="fill:rgb(118,214,255);"/>
                    </g>
                    <g transform="matrix(1,0,0,1,28.1281,13.719)">
                        <ellipse cx="371.869" cy="168.803" rx="41.725" ry="45.228" style="fill:rgb(214,214,214);"/>
                    </g>
                    <g transform="matrix(1,0,0,1,20.1281,18.719)">
                        <rect x="378.787" y="27.959" width="70.816" height="38.844" style="fill:rgb(214,214,214);"/>
                    </g>
                    <g transform="matrix(1,0,0,1,20.1281,18.719)">
                        <path d="M191.476,312.487L196.304,483.515L329.002,496.626L565.564,388.183L566.098,349.651L542.014,324.831L508.998,326.505L471.363,305.952L357.543,364.526L265.858,310.04L191.476,312.487Z" style="fill:rgb(255,212,121);stroke:black;stroke-width:0.5px;"/>
                    </g>
                    <g transform="matrix(0.914476,0,0,1,33.5039,21.719)">
                        <rect x="82.242" y="305.952" width="109.234" height="176.693" style="fill:rgb(212,251,121);"/>
                    </g>
                    <path d="M594.12,364C587.12,346.5 569.62,335.125 550.37,335.125C544.245,335.125 538.995,336 534.62,337.75C525.87,323.75 510.12,315 493.495,315C486.495,315 479.495,316.75 474.245,319.375L372.745,364L297.495,320.25C295.745,319.375 294.87,319.375 293.12,319.375L111.12,319.375C105.87,319.375 102.37,322.875 102.37,328.125L102.37,501.375C102.37,506.625 105.87,510.125 111.12,510.125L209.995,510.125C210.87,510.125 211.745,510.125 212.62,509.25L342.12,524.125L342.995,524.125C343.87,524.125 345.62,524.125 346.495,523.25L399.87,501.375L569.62,427C581.87,421.75 590.62,412.125 594.995,400.75C599.37,388.5 599.37,376.25 594.12,364ZM481.24,335.125C484.74,333.375 488.24,332.5 493.49,332.5C503.115,332.5 512.74,337.75 517.99,344.75L415.61,389.375C413.86,387.625 412.11,386.75 409.485,385L391.11,374.5L481.24,335.125ZM201.24,492.625L119.865,492.625L119.865,336.875L201.24,336.875L201.24,492.625ZM562.62,411.25L392.87,485.625L341.245,506.625L218.745,492.625L218.745,336.875L290.495,336.875L400.745,400.75C405.995,404.25 409.495,408.625 411.245,413.875C412.995,419.125 412.12,425.25 408.62,430.5C405.12,435.75 400.745,439.25 395.495,441C390.245,442.75 384.12,441.875 378.87,438.375L266.87,373.625C262.495,371 257.245,372.75 254.62,377.125C251.995,381.5 253.745,386.75 258.12,389.375L370.12,454.125C376.245,457.625 383.245,459.375 390.245,459.375C393.745,459.375 397.245,458.5 400.745,457.625C410.37,455 419.12,448 424.37,439.25C429.62,429.625 431.37,419.125 428.745,409.5C427.87,407.75 427.87,406 426.995,404.25L535.495,357L538.995,355.25C542.495,353.5 545.995,352.625 551.245,352.625C563.495,352.625 574.87,359.625 579.245,371C585.37,386.75 578.37,404.25 562.62,411.25Z" style="fill-rule:nonzero;"/>
                    <path d="M160.12,398.12C165.37,398.12 168.87,394.62 168.87,389.37L168.87,377.12C168.87,371.87 165.37,368.37 160.12,368.37C154.87,368.37 151.37,371.87 151.37,377.12L151.37,389.37C151.37,394.62 154.87,398.12 160.12,398.12Z" style="fill-rule:nonzero;"/>
                    <path d="M293.995,278.25L506.62,278.25C511.87,278.25 515.37,274.75 515.37,269.5L515.37,45.5C515.37,40.25 511.87,36.75 506.62,36.75L369.245,36.75C368.37,36.75 368.37,37.625 367.495,37.625C367.495,37.625 366.62,37.625 366.62,38.5L288.745,99.75C287.87,99.75 287.87,100.625 287.87,101.5C287.87,101.5 286.995,102.375 286.995,103.25C286.995,104.125 286.995,104.125 286.12,105L286.12,270.375C285.245,274.75 288.745,278.25 293.995,278.25ZM497.88,260.75L302.76,260.75L302.76,111.13L374.51,54.255L391.135,54.255L391.135,85.755C391.135,91.005 394.635,94.505 399.885,94.505L469.01,94.505C474.26,94.505 477.76,91.005 477.76,85.755L477.76,54.255L497.885,54.255L497.88,260.75ZM408.63,54.25L460.255,54.25L460.255,77L408.63,77L408.63,54.25Z" style="fill-rule:nonzero;"/>
                    <path d="M399.88,131.25C371.88,131.25 349.13,154 349.13,182C349.13,210 371.88,232.75 399.88,232.75C427.88,232.75 450.63,210 450.63,182C450.63,154 427.88,131.25 399.88,131.25ZM399.88,215.25C381.505,215.25 366.63,200.375 366.63,182C366.63,163.625 381.505,148.75 399.88,148.75C418.255,148.75 433.13,163.625 433.13,182C433.13,200.375 418.255,215.25 399.88,215.25Z" style="fill-rule:nonzero;"/>
                </g>
            </g>
        </g>
    </g>
</svg>
