<?xml version="1.0" encoding="UTF-8" standalone="no"?>
<!DOCTYPE svg PUBLIC "-//W3C//DTD SVG 1.1//EN" "http://www.w3.org/Graphics/SVG/1.1/DTD/svg11.dtd">
<svg width="100%" height="100%" viewBox="0 0 1024 1024" version="1.1" xmlns="http://www.w3.org/2000/svg" xmlns:xlink="http://www.w3.org/1999/xlink" xml:space="preserve" xmlns:serif="http://www.serif.com/" style="fill-rule:evenodd;clip-rule:evenodd;stroke-linecap:round;stroke-linejoin:round;stroke-miterlimit:1.5;">
    <rect id="Artboard1" x="0" y="0" width="1024" height="1024" style="fill:none;"/>
    <g id="Artboard11" serif:id="Artboard1">
        <g transform="matrix(1.84902,0,0,1.84902,-135.147,-5.72015)">
            <g id="Layer1">
                <g id="AI---ML" serif:id="AI / ML">
                    <g transform="matrix(0.540826,0,0,0.540826,73.091,3.09361)">
                        <path d="M990.471,183.705C998.726,191.96 1003.85,203.393 1003.85,216.005C1003.85,228.616 998.726,240.05 990.471,248.306C982.215,256.562 970.782,261.683 958.17,261.683C951.446,261.683 945.046,260.231 939.297,257.609L846.622,352.871C843.769,356.244 839.515,358.389 834.762,358.389L788.738,358.389L788.738,411.896L833.513,411.896C842.086,411.896 849.041,418.851 849.041,427.425C849.041,435.998 842.086,442.954 833.513,442.954L788.738,442.954L788.738,496.461L981.536,496.461C990.109,496.461 997.065,503.416 997.065,511.989C997.065,520.563 990.109,527.518 981.536,527.518L788.738,527.518L788.738,581.025L833.513,581.025C842.086,581.025 849.041,587.981 849.041,596.554C849.041,605.128 842.086,612.083 833.513,612.083L788.738,612.083L788.738,665.59L883.493,665.59C885.79,659.22 889.474,653.506 894.161,648.826C902.417,640.571 913.85,635.449 926.462,635.449C939.073,635.449 950.507,640.57 958.763,648.826C967.018,657.082 972.139,668.514 972.139,681.127C972.139,693.738 967.018,705.171 958.763,713.427C950.507,721.683 939.074,726.804 926.462,726.804C913.851,726.804 902.417,721.683 894.161,713.427C889.474,708.74 885.798,703.034 883.493,696.663L788.738,696.663L788.738,714.85C788.738,735.117 780.425,753.578 767.042,766.983L766.941,767.084C753.55,780.439 735.095,788.746 714.843,788.746L696.67,788.746L696.67,828.261L787.988,917.101C794.026,914.154 800.816,912.493 807.98,912.493C820.591,912.493 832.024,917.614 840.28,925.87C848.536,934.125 853.657,945.558 853.657,958.17C853.657,970.782 848.536,982.215 840.28,990.471C832.025,998.726 820.592,1003.85 807.98,1003.85C795.369,1003.85 783.935,998.726 775.679,990.471C767.424,982.215 762.303,970.782 762.303,958.17C762.303,951.446 763.754,945.046 766.376,939.297L671.115,846.622C667.742,843.769 665.596,839.515 665.596,834.762L665.596,788.753L612.089,788.753L612.089,833.513C612.089,842.086 605.134,849.041 596.56,849.041C587.987,849.041 581.032,842.086 581.032,833.513L581.032,788.753L527.525,788.753L527.525,981.551C527.525,990.124 520.569,997.08 511.996,997.08C503.422,997.08 496.467,990.124 496.467,981.551L496.467,788.753L442.96,788.753L442.96,833.513C442.96,842.086 436.004,849.041 427.431,849.041C418.858,849.041 411.902,842.086 411.902,833.513L411.902,788.753L358.395,788.753L358.395,883.501C364.766,885.798 370.479,889.481 375.159,894.169C383.415,902.424 388.536,913.857 388.536,926.469C388.536,939.08 383.415,950.514 375.159,958.77C366.904,967.025 355.471,972.147 342.859,972.147C330.248,972.147 318.814,967.026 310.558,958.77C302.302,950.514 297.181,939.082 297.181,926.469C297.181,913.858 302.302,902.425 310.558,894.169C315.246,889.481 320.952,885.805 327.322,883.501L327.322,788.753L309.135,788.753C288.868,788.753 270.407,780.44 257.002,767.057L256.901,766.956C243.546,753.565 235.24,735.11 235.24,714.858L235.24,696.671L195.739,696.671L106.899,787.988C109.846,794.027 111.507,800.816 111.507,807.98C111.507,820.591 106.386,832.025 98.13,840.281C89.875,848.536 78.442,853.657 65.83,853.657C53.219,853.657 41.785,848.536 33.529,840.281C25.274,832.025 20.153,820.592 20.153,807.98C20.153,795.369 25.274,783.935 33.529,775.68C41.785,767.424 53.218,762.303 65.83,762.303C72.554,762.303 78.954,763.755 84.703,766.377L177.378,671.115C180.231,667.742 184.485,665.597 189.238,665.597L235.232,665.597L235.232,612.09L190.48,612.09C181.907,612.09 174.951,605.134 174.951,596.561C174.951,587.987 181.907,581.032 190.48,581.032L235.232,581.032L235.232,527.525L42.453,527.525C33.879,527.525 26.924,520.569 26.924,511.996C26.924,503.423 33.879,496.467 42.453,496.467L235.232,496.467L235.232,442.96L190.48,442.96C181.907,442.96 174.951,436.005 174.951,427.431C174.951,418.858 181.907,411.903 190.48,411.903L235.232,411.903L235.232,358.396L140.499,358.396C138.202,364.766 134.519,370.479 129.831,375.16C121.576,383.415 110.143,388.536 97.531,388.536C84.918,388.536 73.486,383.415 65.23,375.16C56.975,366.904 51.853,355.471 51.853,342.859C51.853,330.248 56.974,318.814 65.23,310.558C73.486,302.303 84.918,297.182 97.531,297.182C110.143,297.182 121.575,302.303 129.831,310.558C134.519,315.246 138.195,320.952 140.499,327.322L235.232,327.322L235.232,309.15C235.232,288.883 243.545,270.422 256.928,257.017L257.03,256.916C270.421,243.561 288.875,235.254 309.128,235.254L327.314,235.254L327.314,195.739L235.997,106.899C229.959,109.846 223.169,111.507 216.005,111.507C203.394,111.507 191.96,106.386 183.704,98.13C175.449,89.875 170.328,78.442 170.328,65.83C170.328,53.219 175.449,41.785 183.704,33.529C191.96,25.274 203.393,20.153 216.005,20.153C228.616,20.153 240.05,25.274 248.306,33.529C256.561,41.785 261.682,53.218 261.682,65.83C261.682,72.554 260.23,78.954 257.609,84.703L352.87,177.378C356.243,180.231 358.389,184.485 358.389,189.238L358.389,235.247L411.896,235.247L411.896,190.487C411.896,181.914 418.851,174.959 427.424,174.959C435.998,174.959 442.953,181.914 442.953,190.487L442.953,235.247L496.46,235.247L496.46,42.449C496.46,33.876 503.416,26.92 511.989,26.92C520.562,26.92 527.518,33.876 527.518,42.449L527.518,235.247L581.025,235.247L581.025,190.487C581.025,181.914 587.98,174.959 596.554,174.959C605.127,174.959 612.083,181.914 612.083,190.487L612.083,235.247L665.59,235.247L665.59,140.499C659.219,138.202 653.506,134.519 648.826,129.831C640.57,121.576 635.449,110.143 635.449,97.531C635.449,84.918 640.57,73.486 648.826,65.23C657.081,56.974 668.514,51.853 681.126,51.853C693.737,51.853 705.171,56.974 713.427,65.23C721.683,73.486 726.803,84.918 726.803,97.531C726.803,110.143 721.683,121.575 713.427,129.831C708.739,134.519 703.033,138.195 696.663,140.499L696.663,235.247L714.835,235.247C735.102,235.247 753.563,243.56 766.968,256.943L767.07,257.044C780.424,270.435 788.731,288.89 788.731,309.142L788.731,327.315L828.261,327.315L917.101,235.997C914.154,229.959 912.493,223.169 912.493,216.005C912.493,203.395 917.614,191.961 925.87,183.705C934.125,175.449 945.558,170.328 958.17,170.328C970.782,170.328 982.215,175.449 990.471,183.705ZM680.708,112.174L681.517,112.174C685.396,112.065 688.891,110.447 691.448,107.89C694.077,105.261 695.731,101.592 695.731,97.555C695.731,93.517 694.077,89.848 691.448,87.219C688.819,84.59 685.15,82.936 681.113,82.936C677.075,82.936 673.406,84.59 670.777,87.219C668.148,89.848 666.494,93.517 666.494,97.555C666.494,101.592 668.148,105.262 670.777,107.89C673.319,110.433 676.829,112.051 680.708,112.174ZM332.514,936.801C335.144,939.43 338.813,941.084 342.85,941.084C346.888,941.084 350.557,939.43 353.186,936.801C355.815,934.172 357.469,930.503 357.469,926.465C357.469,922.428 355.815,918.758 353.186,916.129C350.643,913.587 347.133,911.969 343.254,911.846L342.46,911.846C338.581,911.955 335.085,913.573 332.529,916.129C329.9,918.759 328.246,922.428 328.246,926.465C328.246,930.503 329.9,934.172 332.529,936.801L332.514,936.801ZM51.221,807.983C51.221,812.021 52.875,815.69 55.504,818.319C58.133,820.948 61.802,822.602 65.839,822.602C69.877,822.602 73.546,820.948 76.175,818.319C78.804,815.69 80.458,812.021 80.458,807.983C80.458,803.946 78.804,800.276 76.175,797.647C73.546,795.018 69.877,793.364 65.839,793.364C61.802,793.364 58.133,795.018 55.504,797.647C52.875,800.276 51.221,803.946 51.221,807.983ZM936.792,691.465C939.421,688.836 941.075,685.167 941.075,681.129C941.075,677.092 939.421,673.423 936.792,670.794C934.163,668.165 930.494,666.511 926.456,666.511C922.419,666.511 918.749,668.165 916.12,670.794C913.578,673.336 911.96,676.846 911.837,680.725L911.837,681.52C911.946,685.398 913.564,688.894 916.12,691.451C918.75,694.08 922.419,695.734 926.456,695.734C930.494,695.734 934.163,694.08 936.792,691.451L936.792,691.465ZM216.019,51.232C211.982,51.232 208.313,52.886 205.684,55.515C203.055,58.144 201.401,61.813 201.401,65.85C201.401,69.888 203.055,73.557 205.684,76.186C208.313,78.815 211.982,80.469 216.019,80.469C220.057,80.469 223.726,78.815 226.355,76.186C228.984,73.557 230.638,69.888 230.638,65.85C230.638,61.813 228.984,58.144 226.355,55.515C223.726,52.886 220.057,51.232 216.019,51.232ZM87.205,332.531C84.575,335.16 82.921,338.829 82.921,342.867C82.921,346.904 84.575,350.573 87.205,353.202C89.834,355.831 93.503,357.485 97.54,357.485C101.578,357.485 105.247,355.831 107.876,353.202C110.418,350.66 112.036,347.15 112.159,343.271L112.159,342.476C112.051,338.598 110.433,335.102 107.876,332.545C105.247,329.916 101.578,328.262 97.54,328.262C93.503,328.262 89.833,329.916 87.205,332.545L87.205,332.531ZM972.789,216.005C972.789,211.968 971.135,208.299 968.506,205.67C965.877,203.041 962.208,201.387 958.171,201.387C954.133,201.387 950.464,203.041 947.835,205.67C945.206,208.299 943.552,211.968 943.552,216.005C943.552,220.043 945.206,223.712 947.835,226.341C950.464,228.97 954.133,230.624 958.171,230.624C962.208,230.624 965.877,228.97 968.506,226.341C971.135,223.712 972.789,220.043 972.789,216.005ZM807.972,972.792C812.01,972.792 815.679,971.138 818.308,968.509C820.937,965.88 822.591,962.211 822.591,958.173C822.591,954.136 820.937,950.467 818.308,947.838C815.679,945.209 812.01,943.555 807.972,943.555C803.935,943.555 800.265,945.209 797.636,947.838C795.008,950.467 793.353,954.136 793.353,958.173C793.353,962.211 795.007,965.88 797.636,968.509C800.266,971.138 803.935,972.792 807.972,972.792Z" style="fill:rgb(214,214,214);"/>
                        <path d="M246.872,247.286L246.6,247.57L246.474,247.716L246.304,247.9L246.189,248.044L246.121,248.122L245.727,248.625L246.189,248.044L246.474,247.716L246.872,247.286L247.127,247.019L247.144,247.005L253.027,261.235C251.861,262.597 250.743,264.002 249.676,265.446C245.305,261.338 241.309,255.399 245.227,249.343L245.514,248.922L245.688,248.673L245.654,248.717L245.514,248.922L245.301,249.225L245.227,249.343C242.712,253.163 242.198,258.044 243.996,262.38C244.89,264.534 246.281,266.379 248.004,267.804C239.952,279.634 235.232,293.879 235.232,309.15L235.232,327.322L140.499,327.322C138.195,320.952 134.519,315.246 129.831,310.558C121.575,302.303 110.143,297.182 97.531,297.182C84.918,297.182 73.486,302.303 65.23,310.558C56.974,318.814 51.853,330.248 51.853,342.859C51.853,355.471 56.975,366.904 65.23,375.16C73.486,383.415 84.918,388.536 97.531,388.536C110.143,388.536 121.576,383.415 129.831,375.16C134.519,370.479 138.202,364.766 140.499,358.396L235.232,358.396L235.232,411.903L190.48,411.903C181.907,411.903 174.951,418.858 174.951,427.431C174.951,436.005 181.907,442.96 190.48,442.96L235.232,442.96L235.232,496.467L42.453,496.467C33.879,496.467 26.924,503.423 26.924,511.996C26.924,520.569 33.879,527.525 42.453,527.525L235.232,527.525L235.232,581.032L190.48,581.032C181.907,581.032 174.951,587.987 174.951,596.561C174.951,605.134 181.907,612.09 190.48,612.09L235.232,612.09L235.232,665.597L189.238,665.597C184.485,665.597 180.231,667.742 177.378,671.115L84.703,766.377C78.954,763.755 72.554,762.303 65.83,762.303C53.218,762.303 41.785,767.424 33.529,775.68C25.274,783.935 20.153,795.369 20.153,807.98C20.153,820.592 25.274,832.025 33.529,840.281C41.785,848.536 53.219,853.657 65.83,853.657C78.442,853.657 89.875,848.536 98.13,840.281C106.386,832.025 111.507,820.591 111.507,807.98C111.507,800.816 109.846,794.027 106.899,787.988L195.739,696.671L235.24,696.671L235.24,714.858C235.24,735.11 243.546,753.565 256.901,766.956L257.002,767.057C258.668,768.72 260.411,770.304 262.226,771.804C259.629,776.777 257.002,781.057 257.002,781.057L247.004,776.858L256.901,780.956L246.988,776.842C231.101,760.912 221.24,738.95 221.24,714.858C221.24,714.858 221.24,710.671 221.24,710.671C221.24,710.671 201.651,710.671 201.651,710.671C201.651,710.671 123.151,791.36 123.151,791.359C124.683,796.637 125.507,802.216 125.507,807.98C125.507,824.456 118.816,839.394 108.03,850.18C97.244,860.966 82.308,867.657 65.83,867.657C49.354,867.657 34.416,860.966 23.63,850.18C12.844,839.395 6.153,824.458 6.153,807.98C6.153,791.504 12.844,776.566 23.63,765.78C34.415,754.994 49.352,748.303 65.83,748.303C71.027,748.303 76.076,748.969 80.887,750.221C80.887,750.221 167.057,661.646 167.05,661.655C172.468,655.486 180.402,651.597 189.238,651.597C189.238,651.597 221.232,651.597 221.232,651.597C221.232,651.597 221.232,626.09 221.232,626.09L190.48,626.09C174.177,626.09 160.951,612.863 160.951,596.561C160.951,580.258 174.177,567.032 190.48,567.032C190.48,567.032 221.232,567.032 221.232,567.032L221.232,541.525L42.453,541.525C26.15,541.525 12.924,528.299 12.924,511.996C12.924,495.693 26.15,482.467 42.453,482.467C42.453,482.467 221.232,482.467 221.232,482.467C221.232,482.467 221.232,456.96 221.232,456.96L190.48,456.96C174.177,456.96 160.951,443.734 160.951,427.431C160.951,411.129 174.177,397.903 190.48,397.903C190.48,397.903 221.232,397.903 221.232,397.903L221.232,372.396C221.232,372.396 149.401,372.396 149.401,372.395C146.747,377.049 143.485,381.309 139.728,385.061C128.943,395.846 114.007,402.536 97.531,402.536C81.053,402.536 66.117,395.845 55.331,385.059C44.545,374.273 37.853,359.337 37.853,342.859C37.853,326.383 44.545,311.445 55.33,300.659C66.116,289.873 81.053,283.182 97.531,283.182C114.008,283.182 128.944,289.873 139.731,300.659C143.487,304.415 146.745,308.672 149.397,313.322C149.397,313.322 221.232,313.322 221.232,313.322L221.232,309.15C221.232,285.041 231.101,263.072 247.021,247.126L246.872,247.286ZM257.002,781.057C261.245,781.057 265.174,779.142 267.789,775.982C279.619,784.034 293.864,788.753 309.135,788.753L327.322,788.753L327.322,883.501C320.952,885.805 315.246,889.481 310.558,894.169C302.302,902.425 297.181,913.858 297.181,926.469C297.181,939.082 302.302,950.514 310.558,958.77C318.814,967.026 330.248,972.147 342.859,972.147C355.471,972.147 366.904,967.025 375.159,958.77C383.415,950.514 388.536,939.08 388.536,926.469C388.536,913.857 383.415,902.424 375.159,894.169C370.479,889.481 364.766,885.798 358.395,883.501L358.395,788.753L411.902,788.753L411.902,833.513C411.902,842.086 418.858,849.041 427.431,849.041C436.004,849.041 442.96,842.086 442.96,833.513L442.96,788.753L496.467,788.753L496.467,981.551C496.467,990.124 503.422,997.08 511.996,997.08C520.569,997.08 527.525,990.124 527.525,981.551L527.525,788.753L581.032,788.753L581.032,833.513C581.032,842.086 587.987,849.041 596.56,849.041C605.134,849.041 612.089,842.086 612.089,833.513L612.089,788.753L665.596,788.753L665.596,834.762C665.596,839.515 667.742,843.769 671.115,846.622L766.376,939.297C763.754,945.046 762.303,951.446 762.303,958.17C762.303,970.782 767.424,982.215 775.679,990.471C783.935,998.726 795.369,1003.85 807.98,1003.85C820.592,1003.85 832.025,998.726 840.28,990.471C848.536,982.215 853.657,970.782 853.657,958.17C853.657,945.558 848.536,934.125 840.28,925.87C832.024,917.614 820.591,912.493 807.98,912.493C800.816,912.493 794.026,914.154 787.988,917.101L696.67,828.261L696.67,788.746L714.843,788.746C733.06,788.746 749.822,782.025 762.753,770.955L766.852,780.869L766.892,780.893C766.638,779.888 765.403,775.069 763.839,770.007C764.901,769.062 765.935,768.087 766.941,767.084L767.042,766.983C780.425,753.578 788.738,735.117 788.738,714.85L788.738,696.663L883.493,696.663C885.798,703.034 889.474,708.74 894.161,713.427C902.417,721.683 913.851,726.804 926.462,726.804C939.074,726.804 950.507,721.683 958.763,713.427C967.018,705.171 972.139,693.738 972.139,681.127C972.139,668.514 967.018,657.082 958.763,648.826C950.507,640.57 939.073,635.449 926.462,635.449C913.85,635.449 902.417,640.571 894.161,648.826C889.474,653.506 885.79,659.22 883.493,665.59L788.738,665.59L788.738,612.083L833.513,612.083C842.086,612.083 849.041,605.128 849.041,596.554C849.041,587.981 842.086,581.025 833.513,581.025L788.738,581.025L788.738,527.518L981.536,527.518C990.109,527.518 997.065,520.563 997.065,511.989C997.065,503.416 990.109,496.461 981.536,496.461L788.738,496.461L788.738,442.954L833.513,442.954C842.086,442.954 849.041,435.998 849.041,427.425C849.041,418.851 842.086,411.896 833.513,411.896L788.738,411.896L788.738,358.389L834.762,358.389C839.515,358.389 843.769,356.244 846.622,352.871L939.297,257.609C945.046,260.231 951.446,261.683 958.17,261.683C970.782,261.683 982.215,256.562 990.471,248.306C998.726,240.05 1003.85,228.616 1003.85,216.005C1003.85,203.393 998.726,191.96 990.471,183.705C982.215,175.449 970.782,170.328 958.17,170.328C945.558,170.328 934.125,175.449 925.87,183.705C917.614,191.961 912.493,203.395 912.493,216.005C912.493,223.169 914.154,229.959 917.101,235.997L828.261,327.315L788.731,327.315L788.731,309.142C788.731,288.89 780.424,270.435 767.07,257.044L766.968,256.943C753.563,243.56 735.102,235.247 714.835,235.247L696.663,235.247L696.663,140.499C703.033,138.195 708.739,134.519 713.427,129.831C721.683,121.575 726.803,110.143 726.803,97.531C726.803,84.918 721.683,73.486 713.427,65.23C705.171,56.974 693.737,51.853 681.126,51.853C668.514,51.853 657.081,56.974 648.826,65.23C640.57,73.486 635.449,84.918 635.449,97.531C635.449,110.143 640.57,121.576 648.826,129.831C653.506,134.519 659.219,138.202 665.59,140.499L665.59,235.247L612.083,235.247L612.083,190.487C612.083,181.914 605.127,174.959 596.554,174.959C587.98,174.959 581.025,181.914 581.025,190.487L581.025,235.247L527.518,235.247L527.518,42.449C527.518,33.876 520.562,26.92 511.989,26.92C503.416,26.92 496.46,33.876 496.46,42.449L496.46,235.247L442.953,235.247L442.953,190.487C442.953,181.914 435.998,174.959 427.424,174.959C418.851,174.959 411.896,181.914 411.896,190.487L411.896,235.247L358.389,235.247L358.389,189.238C358.389,184.485 356.243,180.231 352.87,177.378L257.609,84.703C260.23,78.954 261.682,72.554 261.682,65.83C261.682,53.218 256.561,41.785 248.306,33.529C240.05,25.274 228.616,20.153 216.005,20.153C203.393,20.153 191.96,25.274 183.704,33.529C175.449,41.785 170.328,53.219 170.328,65.83C170.328,78.442 175.449,89.875 183.704,98.13C191.96,106.386 203.394,111.507 216.005,111.507C223.169,111.507 229.959,109.846 235.997,106.899L327.314,195.739L327.314,235.254L309.128,235.254C288.875,235.254 270.421,243.561 257.03,256.916L256.928,257.017C255.892,258.054 254.887,259.122 253.913,260.219C251.725,253.094 248.86,245.352 247.144,247.005L247.143,247.003C263.073,231.116 285.035,221.254 309.128,221.254L313.314,221.254C313.314,221.254 313.314,201.651 313.314,201.651C313.314,201.651 232.626,123.151 232.626,123.151C227.348,124.683 221.769,125.507 216.005,125.507C199.529,125.507 184.591,118.816 173.805,108.03C163.019,97.244 156.328,82.308 156.328,65.83C156.328,49.354 163.019,34.416 173.805,23.63C184.591,12.844 199.527,6.153 216.005,6.153C232.481,6.153 247.419,12.844 258.205,23.63C268.991,34.415 275.682,49.352 275.682,65.83C275.682,71.027 275.016,76.076 273.764,80.887C273.764,80.887 362.339,167.057 362.331,167.05C368.5,172.468 372.389,180.402 372.389,189.238C372.389,189.238 372.389,221.247 372.389,221.247L397.896,221.247L397.896,190.487C397.896,174.185 411.122,160.959 427.424,160.959C443.727,160.959 456.953,174.185 456.953,190.487C456.953,190.487 456.953,221.247 456.953,221.247L482.46,221.247L482.46,42.449C482.46,26.146 495.686,12.92 511.989,12.92C528.292,12.92 541.518,26.146 541.518,42.449C541.518,42.449 541.518,221.247 541.518,221.247L567.025,221.247L567.025,190.487C567.025,174.185 580.251,160.959 596.554,160.959C612.856,160.959 626.083,174.185 626.083,190.487C626.083,190.487 626.083,221.247 626.083,221.247L651.59,221.247C651.59,221.247 651.59,149.401 651.59,149.401C646.936,146.747 642.676,143.485 638.924,139.728C628.139,128.943 621.449,114.007 621.449,97.531C621.449,81.053 628.14,66.117 638.926,55.331C649.712,44.544 664.649,37.853 681.126,37.853C697.602,37.853 712.54,44.544 723.326,55.33C734.112,66.116 740.803,81.053 740.803,97.531C740.803,114.008 734.112,128.944 723.326,139.731C719.57,143.487 715.313,146.745 710.663,149.397C710.663,149.397 710.663,221.247 710.663,221.247L714.835,221.247C738.944,221.247 760.913,231.115 776.86,247.035L776.864,247.04L776.871,247.047L776.879,247.056L776.98,247.165L776.982,247.158C792.869,263.088 802.731,285.05 802.731,309.142C802.731,309.142 802.731,313.315 802.731,313.315C802.731,313.315 822.349,313.315 822.349,313.315C822.349,313.315 900.849,232.626 900.849,232.626C899.317,227.348 898.493,221.77 898.493,216.005C898.493,199.529 905.184,184.592 915.97,173.805C926.756,163.02 941.692,156.328 958.17,156.328C974.648,156.328 989.584,163.019 1000.37,173.805C1011.16,184.591 1017.85,199.528 1017.85,216.005C1017.85,232.481 1011.16,247.419 1000.37,258.205C989.585,268.991 974.648,275.683 958.17,275.683C952.973,275.683 947.924,275.017 943.113,273.764C943.113,273.764 856.943,362.339 856.95,362.331C851.532,368.5 843.598,372.389 834.762,372.389C834.762,372.389 802.738,372.389 802.738,372.389C802.738,372.389 802.738,397.896 802.738,397.896L833.513,397.896C849.815,397.896 863.041,411.122 863.041,427.425C863.041,443.727 849.815,456.954 833.513,456.954C833.513,456.954 802.738,456.954 802.738,456.954L802.738,482.461L981.536,482.461C997.839,482.461 1011.07,495.687 1011.07,511.989C1011.07,528.292 997.839,541.518 981.536,541.518C981.536,541.518 802.738,541.518 802.738,541.518C802.738,541.518 802.738,567.025 802.738,567.025L833.513,567.025C849.815,567.025 863.041,580.251 863.041,596.554C863.041,612.857 849.815,626.083 833.513,626.083C833.513,626.083 802.738,626.083 802.738,626.083L802.738,651.59C802.738,651.59 874.592,651.59 874.592,651.59C877.245,646.936 880.508,642.676 884.264,638.924C895.05,628.14 909.985,621.449 926.462,621.449C942.938,621.449 957.876,628.141 968.662,638.926C979.448,649.712 986.139,664.649 986.139,681.127C986.139,697.603 979.448,712.54 968.662,723.327C957.876,734.112 942.94,740.804 926.462,740.804C909.986,740.804 895.048,734.113 884.262,723.327C880.506,719.571 877.248,715.314 874.596,710.663L802.738,710.663L802.738,714.85C802.738,738.959 792.87,760.928 776.95,776.874L776.938,776.886L776.816,777.002L776.827,776.997C760.897,792.884 738.935,802.746 714.843,802.746L710.67,802.746C710.67,802.746 710.67,822.349 710.67,822.349C710.67,822.349 791.359,900.849 791.359,900.849C796.637,899.317 802.215,898.493 807.98,898.493C824.456,898.493 839.394,905.184 850.18,915.97C860.966,926.756 867.657,941.692 867.657,958.17C867.657,974.648 860.966,989.584 850.18,1000.37C839.394,1011.16 824.457,1017.85 807.98,1017.85C791.504,1017.85 776.566,1011.16 765.78,1000.37C754.994,989.585 748.303,974.648 748.303,958.17C748.303,952.973 748.968,947.924 750.221,943.113C750.221,943.113 661.646,856.943 661.654,856.95C655.485,851.532 651.596,843.598 651.596,834.762C651.596,834.762 651.596,802.753 651.596,802.753L626.089,802.753L626.089,833.513C626.089,849.815 612.863,863.041 596.56,863.041C580.258,863.041 567.032,849.815 567.032,833.513C567.032,833.513 567.032,802.753 567.032,802.753L541.525,802.753L541.525,981.551C541.525,997.854 528.298,1011.08 511.996,1011.08C495.693,1011.08 482.467,997.854 482.467,981.551C482.467,981.551 482.467,802.753 482.467,802.753L456.96,802.753L456.96,833.513C456.96,849.815 443.734,863.041 427.431,863.041C411.128,863.041 397.902,849.815 397.902,833.513C397.902,833.513 397.902,802.753 397.902,802.753L372.395,802.753C372.395,802.753 372.395,874.599 372.395,874.599C377.049,877.253 381.309,880.515 385.061,884.272C395.845,895.057 402.536,909.993 402.536,926.469C402.536,942.945 395.845,957.883 385.059,968.669C374.273,979.455 359.336,986.147 342.859,986.147C326.383,986.147 311.445,979.455 300.659,968.67C289.873,957.884 283.181,942.947 283.181,926.469C283.181,909.993 289.872,895.056 300.658,884.269C304.414,880.513 308.672,877.255 313.322,874.603L313.322,802.753L309.135,802.753C285.026,802.753 263.057,792.885 247.111,776.965C249.736,779.585 253.293,781.057 257.002,781.057ZM766.941,781.084L766.914,780.978L766.897,780.978L766.941,781.084ZM766.941,781.084L767.195,780.979L767.19,780.98L766.941,781.084ZM83.252,345.962C84.511,346.332 85.834,346.529 87.19,346.53L82.934,342.27C82.934,342.267 82.934,342.264 82.934,342.26L87.194,346.521L83.714,338.118C84.447,335.987 85.657,334.079 87.205,332.531L87.205,332.545C89.833,329.916 93.503,328.262 97.54,328.262C101.578,328.262 105.247,329.916 107.876,332.545C110.433,335.102 112.051,338.598 112.159,342.476L112.159,343.271C112.036,347.15 110.418,350.66 107.876,353.202C105.247,355.831 101.578,357.485 97.54,357.485C93.503,357.485 89.834,355.831 87.205,353.202C85.266,351.264 83.858,348.761 83.252,345.962ZM97.048,342.498C96.969,342.599 96.921,342.727 96.921,342.867C96.921,343.037 96.993,343.191 97.104,343.302C97.215,343.414 97.369,343.485 97.54,343.485C97.711,343.485 97.865,343.414 97.976,343.303C98.077,343.202 98.138,343.066 98.159,342.913C98.159,342.913 98.159,342.802 98.158,342.797C98.138,342.66 98.07,342.538 97.976,342.445C97.865,342.334 97.711,342.262 97.54,342.262C97.37,342.262 97.215,342.333 97.104,342.444L97.048,342.498ZM932.263,694.531L926.892,681.566C927.003,681.454 927.075,681.3 927.075,681.129C927.075,680.959 927.004,680.804 926.892,680.693C926.781,680.582 926.627,680.511 926.456,680.511C926.286,680.511 926.131,680.582 926.02,680.693C925.92,680.794 925.858,680.93 925.837,681.083C925.837,681.083 925.837,681.194 925.838,681.198C925.858,681.336 925.926,681.458 926.02,681.551C926.131,681.662 926.285,681.734 926.456,681.734C926.627,681.734 926.781,681.663 926.892,681.552C924.246,684.198 922.825,687.725 922.801,691.323L922.792,691.451L922.797,691.602L922.795,691.758L922.814,692.083C922.858,693.291 923.032,694.391 923.309,695.392C920.531,694.78 918.047,693.377 916.12,691.451C913.564,688.894 911.946,685.398 911.837,681.52L911.837,680.725C911.96,676.846 913.578,673.336 916.12,670.794C918.749,668.165 922.419,666.511 926.456,666.511C930.494,666.511 934.163,668.165 936.792,670.794C939.421,673.423 941.075,677.092 941.075,681.129C941.075,685.167 939.421,688.836 936.792,691.465L936.792,691.451C935.505,692.738 933.969,693.791 932.263,694.531ZM923.361,695.403C923.04,694.311 922.858,693.197 922.814,692.083L922.797,691.602L922.801,691.323C922.964,690.19 925.479,692.53 928.332,695.614C927.718,695.693 927.092,695.734 926.456,695.734C925.395,695.734 924.359,695.62 923.361,695.403ZM972.789,216.005C972.789,220.043 971.135,223.712 968.506,226.341C965.877,228.97 962.208,230.624 958.171,230.624C954.133,230.624 950.464,228.97 947.835,226.341C945.206,223.712 943.552,220.043 943.552,216.005C943.552,211.968 945.206,208.299 947.835,205.67C950.464,203.041 954.133,201.387 958.171,201.387C962.208,201.387 965.877,203.041 968.506,205.67C971.135,208.299 972.789,211.968 972.789,216.005ZM958.789,216.005C958.789,215.835 958.718,215.681 958.607,215.57C958.496,215.458 958.341,215.387 958.171,215.387C958,215.387 957.846,215.458 957.735,215.569C957.624,215.68 957.552,215.835 957.552,216.005C957.552,216.176 957.623,216.33 957.734,216.441C957.846,216.553 958,216.624 958.171,216.624C958.341,216.624 958.496,216.553 958.607,216.442C958.718,216.331 958.789,216.176 958.789,216.005ZM680.708,112.174C676.829,112.051 673.319,110.433 670.777,107.89C668.148,105.262 666.494,101.592 666.494,97.555C666.494,93.517 668.148,89.848 670.777,87.219C673.406,84.59 677.075,82.936 681.113,82.936C685.15,82.936 688.819,84.59 691.448,87.219C694.077,89.848 695.731,93.517 695.731,97.555C695.731,101.592 694.077,105.261 691.448,107.89C688.891,110.447 685.396,112.065 681.517,112.174L680.708,112.174ZM681.062,98.173L681.066,98.174C681.066,98.174 681.191,98.174 681.196,98.173C681.333,98.153 681.455,98.085 681.549,97.991C681.66,97.88 681.731,97.725 681.731,97.555C681.731,97.384 681.66,97.23 681.549,97.119C681.438,97.008 681.283,96.936 681.113,96.936C680.942,96.936 680.788,97.007 680.677,97.118C680.565,97.23 680.494,97.384 680.494,97.555C680.494,97.725 680.565,97.88 680.676,97.991C680.777,98.091 680.913,98.152 681.062,98.173ZM216.019,51.232C220.057,51.232 223.726,52.886 226.355,55.515C228.984,58.144 230.638,61.813 230.638,65.85C230.638,69.888 228.984,73.557 226.355,76.186C223.726,78.815 220.057,80.469 216.019,80.469C211.982,80.469 208.313,78.815 205.684,76.186C203.055,73.557 201.401,69.888 201.401,65.85C201.401,61.813 203.055,58.144 205.684,55.515C208.313,52.886 211.982,51.232 216.019,51.232ZM216.019,65.232C215.849,65.232 215.694,65.303 215.583,65.414C215.472,65.525 215.401,65.68 215.401,65.85C215.401,66.021 215.472,66.175 215.583,66.286C215.694,66.397 215.849,66.469 216.019,66.469C216.19,66.469 216.344,66.398 216.455,66.287C216.567,66.176 216.638,66.021 216.638,65.85C216.638,65.68 216.567,65.525 216.456,65.414C216.345,65.303 216.19,65.232 216.019,65.232ZM807.972,972.792C803.935,972.792 800.266,971.138 797.636,968.509C795.007,965.88 793.353,962.211 793.353,958.173C793.353,954.136 795.008,950.467 797.636,947.838C800.265,945.209 803.935,943.555 807.972,943.555C812.01,943.555 815.679,945.209 818.308,947.838C820.937,950.467 822.591,954.136 822.591,958.173C822.591,962.211 820.937,965.88 818.308,968.509C815.679,971.138 812.01,972.792 807.972,972.792ZM807.972,958.792C808.143,958.792 808.297,958.721 808.408,958.61C808.519,958.499 808.591,958.344 808.591,958.173C808.591,958.003 808.52,957.848 808.409,957.737C808.297,957.626 808.143,957.555 807.972,957.555C807.802,957.555 807.647,957.626 807.536,957.737C807.425,957.848 807.353,958.003 807.353,958.173C807.353,958.344 807.425,958.498 807.536,958.609C807.647,958.72 807.801,958.792 807.972,958.792ZM332.514,936.801L332.529,936.801C329.9,934.172 328.246,930.503 328.246,926.465C328.246,922.428 329.9,918.759 332.529,916.129C335.085,913.573 338.581,911.955 342.46,911.846L343.254,911.846C347.133,911.969 350.643,913.587 353.186,916.129C355.815,918.758 357.469,922.428 357.469,926.465C357.469,930.503 355.815,934.172 353.186,936.801C350.557,939.43 346.888,941.084 342.85,941.084C338.813,941.084 335.144,939.43 332.514,936.801ZM342.475,926.952C342.578,927.035 342.708,927.084 342.85,927.084C343.021,927.084 343.175,927.013 343.286,926.902C343.397,926.79 343.469,926.636 343.469,926.465C343.469,926.295 343.397,926.14 343.286,926.029C343.186,925.929 343.049,925.868 342.897,925.846C342.897,925.846 342.786,925.846 342.781,925.847C342.644,925.867 342.522,925.935 342.428,926.029C342.317,926.14 342.246,926.295 342.246,926.465C342.246,926.636 342.317,926.79 342.428,926.901L342.475,926.952ZM51.221,807.983C51.221,803.946 52.875,800.276 55.504,797.647C58.133,795.018 61.802,793.364 65.839,793.364C69.877,793.364 73.546,795.018 76.175,797.647C78.804,800.276 80.458,803.946 80.458,807.983C80.458,812.021 78.804,815.69 76.175,818.319C73.546,820.948 69.877,822.602 65.839,822.602C61.802,822.602 58.133,820.948 55.504,818.319C52.875,815.69 51.221,812.021 51.221,807.983ZM65.221,807.983C65.221,808.154 65.292,808.308 65.403,808.419C65.514,808.53 65.669,808.602 65.839,808.602C66.01,808.602 66.164,808.53 66.275,808.419C66.387,808.308 66.458,808.154 66.458,807.983C66.458,807.813 66.387,807.658 66.276,807.547C66.165,807.436 66.01,807.364 65.839,807.364C65.669,807.364 65.515,807.436 65.403,807.547C65.292,807.658 65.221,807.812 65.221,807.983Z" style="fill:white;"/>
                    </g>
                    <g transform="matrix(1,0,0,1,0,-4)">
                        <rect x="213.746" y="146.882" width="271.627" height="270.353" style="fill:rgb(214,214,214);"/>
                    </g>
                    <path d="M288.633,350L330.167,373.349L350,350L377.205,373.366L416.491,350L423.948,305.079L438.68,279.997L426.734,237.233L402.061,203.943L362.857,188.333L350,196.874L331.36,187.265L313.477,203.014L294.404,206.859L288.265,231.95L268.501,269.112L273.257,300.887L288.633,350Z" style="fill:rgb(255,138,216);stroke:black;stroke-width:0.54px;"/>
                    <path d="M189.92,30.801C187.736,30.801 185.752,31.696 184.33,33.117C182.908,34.539 182.014,36.524 182.014,38.707C182.014,40.891 182.908,42.875 184.33,44.297C185.752,45.719 187.736,46.613 189.92,46.613C192.104,46.613 194.088,45.719 195.51,44.297C196.932,42.875 197.826,40.891 197.826,38.707C197.826,36.524 196.932,34.539 195.51,33.117C194.088,31.696 192.104,30.801 189.92,30.801ZM382.63,327.821C381.474,323.348 384.157,318.774 388.63,317.614C393.103,316.458 397.677,319.141 398.837,323.614C399.888,327.68 399.837,331.86 398.79,335.712C397.732,339.614 395.653,343.251 392.72,346.189C389.782,349.126 386.146,351.201 382.243,352.259C378.395,353.306 374.212,353.357 370.145,352.306C365.672,351.15 362.989,346.572 364.145,342.099C365.301,337.626 369.879,334.943 374.352,336.099C375.485,336.392 376.7,336.365 377.852,336.052C378.95,335.755 379.996,335.154 380.84,334.306C381.688,333.459 382.289,332.416 382.586,331.318C382.899,330.166 382.922,328.951 382.633,327.818L382.63,327.821ZM401.857,277.255C402.564,277.743 403.201,278.345 403.748,279.068C406.552,282.743 405.849,288.009 402.173,290.813C399.396,292.931 396.076,294.048 392.736,294.142C389.388,294.22 386.017,293.294 383.126,291.329C380.244,289.364 378.134,286.579 376.99,283.431L376.959,283.345C374.068,282.638 371.271,281.458 368.712,279.833C364.798,277.353 363.638,272.161 366.119,268.243C368.599,264.329 373.791,263.169 377.709,265.649C379.291,266.653 381.068,267.231 382.83,267.341C384.65,267.458 386.513,267.13 388.209,266.348C389.896,265.567 391.345,264.372 392.416,262.923C393.482,261.481 394.201,259.762 394.455,257.934C395.068,253.352 399.291,250.137 403.873,250.751C408.455,251.364 411.67,255.587 411.056,260.169C410.416,264.852 408.588,269.216 405.869,272.896C404.697,274.478 403.357,275.939 401.869,277.247L401.857,277.255ZM363.138,228.415C367.7,227.692 371.994,230.809 372.716,235.372C373.439,239.934 370.322,244.228 365.759,244.95C363.755,245.274 362.161,246.028 361.017,247.173C359.88,248.309 359.005,249.97 358.396,252.134L358.396,347.239C358.884,350.633 360.197,353.746 362.095,356.282C364.025,358.868 366.618,360.911 369.614,362.063C372.536,363.188 375.654,363.391 378.591,362.739C381.501,362.098 384.279,360.59 386.56,358.321C388.208,356.594 390.568,355.575 393.126,355.723C395.189,355.84 397.236,355.332 399.013,354.321C400.876,353.254 402.478,351.641 403.572,349.637C404.708,347.555 405.251,345.172 405.204,342.832C405.15,340.578 404.548,338.368 403.439,336.438C402.611,335.246 402.083,333.825 401.97,332.278C401.634,327.66 405.099,323.625 409.716,323.289C410.634,323.223 411.509,322.762 412.157,322.071C412.919,321.262 413.427,320.125 413.505,318.856C413.591,317.532 413.24,316.297 412.591,315.375C412.189,314.805 411.654,314.328 411.036,314.028L409.693,313.77C405.169,312.778 402.306,308.285 403.298,303.762C404.197,299.66 407.966,296.93 412.029,297.188C412.665,297.18 413.31,297.254 413.954,297.399L414.697,297.582C416.786,297.781 418.837,297.41 420.622,296.559C422.818,295.512 424.697,293.715 425.861,291.371C427.025,289.043 427.318,286.469 426.826,284.07C426.337,281.684 425.04,279.422 423.056,277.727C419.982,275.086 419.185,270.516 421.384,266.965C423.076,264.234 423.958,261.133 423.997,258.062C424.037,254.969 423.251,251.844 421.638,249.086C420.017,246.32 417.681,244.097 414.978,242.617C412.271,241.14 409.15,240.394 405.943,240.527C402.736,240.66 399.7,241.691 397.118,243.398C394.544,245.097 392.415,247.5 391.052,250.375C389.079,254.555 384.075,256.348 379.896,254.375C375.716,252.402 373.923,247.398 375.896,243.219C378.607,237.512 382.802,232.77 387.873,229.414C392.244,226.523 397.311,224.617 402.697,223.992C403.029,223.019 403.166,222 403.119,221.004C403.025,219 402.181,216.996 400.619,215.461C399.025,213.894 396.935,213.039 394.826,212.949C392.689,212.855 390.506,213.519 388.76,214.941C385.174,217.859 379.896,217.316 376.979,213.73C374.209,210.324 374.557,205.383 377.686,202.394C369.631,196.476 363.202,195.984 358.401,200.937L358.401,229.589C359.897,229.081 361.475,228.691 363.143,228.417L363.138,228.415ZM301.158,323.614C302.314,319.141 306.892,316.458 311.365,317.614C315.838,318.77 318.521,323.348 317.365,327.821C317.072,328.954 317.099,330.169 317.412,331.321C317.709,332.419 318.31,333.465 319.158,334.309C320.006,335.157 321.049,335.758 322.146,336.055C323.299,336.368 324.513,336.391 325.646,336.102C330.119,334.946 334.693,337.63 335.853,342.102C337.009,346.575 334.326,351.149 329.853,352.309C325.787,353.36 321.607,353.309 317.755,352.262C313.853,351.204 310.216,349.126 307.278,346.192C304.341,343.255 302.267,339.618 301.208,335.715C300.161,331.867 300.11,327.684 301.161,323.617L301.158,323.614ZM334.236,244.95C329.674,244.227 326.556,239.938 327.279,235.372C328.002,230.809 332.291,227.692 336.857,228.415C338.525,228.684 340.103,229.075 341.599,229.587L341.599,200.935C336.791,195.982 330.369,196.47 322.314,202.392C325.443,205.38 325.795,210.321 323.021,213.728C320.103,217.314 314.826,217.857 311.24,214.939C309.494,213.517 307.311,212.857 305.174,212.947C303.065,213.04 300.975,213.892 299.381,215.458C297.818,216.993 296.975,218.997 296.881,221.001C296.834,222.001 296.975,223.017 297.303,223.99C302.686,224.618 307.752,226.525 312.127,229.411C317.201,232.763 321.392,237.509 324.104,243.216C326.077,247.396 324.283,252.404 320.104,254.372C315.924,256.345 310.916,254.552 308.948,250.372C307.585,247.494 305.456,245.095 302.881,243.396C300.303,241.689 297.264,240.658 294.092,240.525C290.85,240.392 287.729,241.138 285.026,242.615C282.319,244.095 279.987,246.318 278.366,249.083C276.752,251.841 275.963,254.962 276.006,258.06C276.045,261.13 276.924,264.232 278.62,266.962C280.815,270.513 280.022,275.083 276.94,277.716C274.963,279.415 273.667,281.677 273.178,284.068C272.69,286.47 272.979,289.041 274.131,291.376C275.307,293.712 277.186,295.509 279.381,296.556C281.167,297.408 283.217,297.779 285.307,297.58L286.049,297.396C286.69,297.251 287.338,297.177 287.975,297.185C292.038,296.927 295.807,299.658 296.706,303.759C297.698,308.283 294.835,312.775 290.311,313.767L288.967,314.025C288.354,314.33 287.815,314.806 287.413,315.373C286.764,316.291 286.413,317.529 286.499,318.853C286.577,320.123 287.088,321.259 287.846,322.068C288.495,322.755 289.366,323.22 290.292,323.287C291.588,323.4 292.885,323.795 294.069,324.529C297.999,326.955 299.221,332.123 296.795,336.052C295.538,338.083 294.858,340.439 294.799,342.79C294.745,345.146 295.288,347.54 296.432,349.638C297.522,351.642 299.124,353.255 300.991,354.322C302.768,355.333 304.815,355.841 306.877,355.724C309.206,355.599 311.581,356.423 313.338,358.216C315.647,360.552 318.459,362.091 321.409,362.739C324.241,363.368 327.237,363.208 330.081,362.189L330.393,362.064C333.389,360.911 335.983,358.868 337.913,356.283C339.811,353.755 341.116,350.642 341.612,347.255L341.612,252.134C341.002,249.97 340.131,248.31 338.991,247.173C337.846,246.029 336.252,245.275 334.248,244.951L334.236,244.95ZM323.037,283.345L323.006,283.431C321.861,286.579 319.752,289.365 316.869,291.329C313.978,293.294 310.607,294.22 307.291,294.142C303.916,294.048 300.596,292.931 297.818,290.814C294.142,288.009 293.439,282.743 296.244,279.068C296.795,278.345 297.428,277.744 298.135,277.255C296.646,275.947 295.303,274.486 294.135,272.904C291.416,269.228 289.592,264.861 288.947,260.177C288.334,255.595 291.545,251.372 296.131,250.759C300.713,250.145 304.935,253.356 305.549,257.942C305.799,259.766 306.521,261.489 307.588,262.931C308.658,264.38 310.107,265.575 311.795,266.356C313.486,267.138 315.353,267.466 317.174,267.349C318.932,267.235 320.713,266.661 322.295,265.657C326.209,263.177 331.404,264.333 333.885,268.251C336.365,272.165 335.209,277.36 331.291,279.841C328.732,281.47 325.932,282.646 323.045,283.353L323.037,283.345ZM303.861,196.243C321.978,178.251 337.361,174.673 349.994,185.509C362.627,174.673 378.014,178.255 396.127,196.243C402.061,196.653 407.869,199.098 412.357,203.512C417.041,208.114 419.56,214.121 419.845,220.207C419.939,222.219 419.791,224.243 419.396,226.235C420.627,226.723 421.818,227.293 422.974,227.922C428.31,230.84 432.88,235.184 436.064,240.621C439.252,246.078 440.799,252.195 440.728,258.262C440.681,262.223 439.935,266.188 438.506,269.942C440.845,273.188 442.439,276.876 443.228,280.723C444.451,286.708 443.736,293.086 440.888,298.825C438.236,304.189 434.021,308.376 429.009,311.059C429.994,313.844 430.443,316.868 430.24,319.962C429.888,325.227 427.713,329.997 424.365,333.548C423.392,334.579 422.326,335.505 421.177,336.317C421.627,338.294 421.885,340.305 421.939,342.321L421.939,342.426C422.056,347.633 420.841,352.914 418.267,357.633C415.634,362.469 411.806,366.333 407.345,368.879C403.865,370.872 399.962,372.102 395.904,372.419C391.838,375.731 387.127,377.989 382.201,379.071C376.123,380.419 369.674,380.008 363.615,377.68C358.256,375.629 353.623,372.243 349.998,367.946C346.373,372.247 341.737,375.633 336.412,377.68L335.924,377.852C329.983,380.028 323.713,380.387 317.787,379.071C312.861,377.985 308.158,375.731 304.088,372.419C300.026,372.102 296.123,370.872 292.647,368.88C288.19,366.333 284.358,362.469 281.725,357.634C279.139,352.899 277.92,347.587 278.053,342.357C278.108,340.306 278.366,338.294 278.819,336.317C277.666,335.505 276.596,334.579 275.623,333.548C272.276,329.997 270.1,325.228 269.748,319.962C269.545,316.868 269.995,313.845 270.979,311.06C265.967,308.376 261.752,304.189 259.1,298.857C256.248,293.083 255.534,286.709 256.76,280.72C257.545,276.872 259.143,273.184 261.483,269.939C260.053,266.181 259.307,262.22 259.26,258.259C259.186,252.192 260.737,246.075 263.924,240.618C267.104,235.18 271.674,230.836 277.014,227.919C278.17,227.29 279.362,226.723 280.592,226.231C280.194,224.239 280.049,222.216 280.143,220.204C280.428,214.118 282.948,208.114 287.631,203.509C292.124,199.099 297.928,196.649 303.861,196.239L303.861,196.243ZM599.201,119.915C599.201,117.731 598.306,115.747 596.885,114.325C595.463,112.903 593.478,112.009 591.295,112.009C589.111,112.009 587.127,112.903 585.705,114.325C584.283,115.747 583.389,117.731 583.389,119.915C583.389,122.099 584.283,124.083 585.705,125.505C587.127,126.927 589.111,127.821 591.295,127.821C593.478,127.821 595.463,126.927 596.885,125.505C598.307,124.083 599.201,122.099 599.201,119.915ZM608.764,102.446C613.228,106.911 615.998,113.094 615.998,119.915C615.998,126.735 613.228,132.919 608.764,137.384C604.299,141.849 598.116,144.618 591.295,144.618C587.658,144.618 584.197,143.833 581.088,142.415L530.967,193.935C529.424,195.759 527.123,196.92 524.552,196.92L499.661,196.92L499.661,225.858L523.876,225.858C528.513,225.858 532.275,229.619 532.275,234.256C532.275,238.893 528.513,242.654 523.876,242.654L499.661,242.654L499.661,271.592L603.931,271.592C608.568,271.592 612.33,275.354 612.33,279.991C612.33,284.628 608.568,288.389 603.931,288.389L499.661,288.389L499.661,317.327L523.876,317.327C528.513,317.327 532.275,321.089 532.275,325.726C532.275,330.362 528.513,334.124 523.876,334.124L499.661,334.124L499.661,363.062L550.907,363.062C552.15,359.617 554.142,356.527 556.677,353.996C561.142,349.531 567.325,346.761 574.146,346.761C580.966,346.761 587.15,349.531 591.615,353.996C596.08,358.46 598.849,364.644 598.849,371.465C598.849,378.285 596.08,384.469 591.615,388.934C587.15,393.398 580.967,396.168 574.146,396.168C567.326,396.168 561.142,393.399 556.677,388.934C554.142,386.398 552.154,383.313 550.907,379.867L499.661,379.867L499.661,389.703C499.661,400.664 495.165,410.648 487.927,417.898L487.873,417.953C480.631,425.176 470.65,429.668 459.697,429.668L449.869,429.668L449.869,451.039L499.256,499.086C502.521,497.492 506.193,496.594 510.068,496.594C516.888,496.594 523.072,499.363 527.537,503.828C532.001,508.293 534.771,514.476 534.771,521.297C534.771,528.118 532.002,534.301 527.537,538.766C523.072,543.231 516.889,546 510.068,546C503.247,546 497.064,543.231 492.599,538.766C488.134,534.301 485.364,528.118 485.364,521.297C485.364,517.66 486.149,514.199 487.567,511.09L436.047,460.969C434.223,459.426 433.063,457.125 433.063,454.555L433.063,429.672L404.125,429.672L404.125,453.879C404.125,458.516 400.363,462.277 395.727,462.277C391.09,462.277 387.328,458.516 387.328,453.879L387.328,429.672L358.39,429.672L358.39,533.942C358.39,538.579 354.628,542.34 349.992,542.34C345.355,542.34 341.593,538.579 341.593,533.942L341.593,429.672L312.655,429.672L312.655,453.879C312.655,458.516 308.894,462.277 304.257,462.277C299.62,462.277 295.859,458.516 295.859,453.879L295.859,429.672L266.921,429.672L266.921,480.914C270.366,482.156 273.456,484.148 275.987,486.683C280.452,491.148 283.221,497.331 283.221,504.152C283.221,510.973 280.452,517.156 275.987,521.621C271.522,526.086 265.339,528.856 258.518,528.856C251.698,528.856 245.514,526.086 241.049,521.621C236.584,517.157 233.815,510.973 233.815,504.152C233.815,497.332 236.584,491.148 241.049,486.683C243.584,484.148 246.67,482.16 250.115,480.914L250.115,429.672L240.279,429.672C229.318,429.672 219.334,425.176 212.084,417.938L212.03,417.883C204.807,410.641 200.315,400.66 200.315,389.707L200.315,379.871L178.952,379.871L130.905,429.258C132.499,432.524 133.397,436.196 133.397,440.07C133.397,446.891 130.627,453.074 126.163,457.539C121.698,462.004 115.515,464.774 108.694,464.774C101.873,464.774 95.69,462.004 91.225,457.539C86.76,453.075 83.99,446.891 83.99,440.07C83.99,433.25 86.76,427.066 91.225,422.601C95.689,418.137 101.873,415.367 108.694,415.367C112.33,415.367 115.791,416.152 118.901,417.57L169.022,366.05C170.565,364.226 172.865,363.066 175.436,363.066L200.311,363.066L200.311,334.128L176.108,334.128C171.471,334.128 167.709,330.366 167.709,325.729C167.709,321.093 171.471,317.331 176.108,317.331L200.311,317.331L200.311,288.393L96.051,288.393C91.414,288.393 87.652,284.631 87.652,279.994C87.652,275.358 91.414,271.596 96.051,271.596L200.311,271.596L200.311,242.658L176.108,242.658C171.471,242.658 167.709,238.896 167.709,234.26C167.709,229.623 171.471,225.861 176.108,225.861L200.311,225.861L200.311,196.923L149.077,196.923C147.834,200.369 145.842,203.458 143.307,205.99C138.842,210.454 132.659,213.224 125.838,213.224C119.017,213.224 112.834,210.455 108.369,205.99C103.904,201.525 101.135,195.342 101.135,188.521C101.135,181.7 103.904,175.517 108.369,171.052C112.834,166.587 119.017,163.817 125.838,163.817C132.659,163.817 138.842,166.587 143.307,171.052C145.842,173.587 147.831,176.673 149.077,180.118L200.311,180.118L200.311,170.29C200.311,159.329 204.807,149.345 212.045,142.095L212.099,142.04C219.342,134.818 229.322,130.325 240.275,130.325L250.111,130.325L250.111,108.954L200.724,60.907C197.459,62.501 193.787,63.4 189.912,63.4C183.092,63.4 176.908,60.63 172.443,56.165C167.978,51.7 165.209,45.517 165.209,38.696C165.209,31.876 167.978,25.692 172.443,21.227C176.908,16.762 183.091,13.993 189.912,13.993C196.733,13.993 202.916,16.762 207.381,21.227C211.846,25.692 214.616,31.875 214.616,38.696C214.616,42.333 213.83,45.794 212.413,48.903L263.933,99.024C265.757,100.567 266.917,102.868 266.917,105.438L266.917,130.321L295.855,130.321L295.855,106.114C295.855,101.478 299.617,97.716 304.253,97.716C308.89,97.716 312.652,101.478 312.652,106.114L312.652,130.321L341.59,130.321L341.59,26.051C341.59,21.415 345.351,17.653 349.988,17.653C354.625,17.653 358.387,21.415 358.387,26.051L358.387,130.321L387.325,130.321L387.325,106.114C387.325,101.478 391.086,97.716 395.723,97.716C400.36,97.716 404.121,101.478 404.121,106.114L404.121,130.321L433.059,130.321L433.059,79.079C429.614,77.837 426.524,75.845 423.993,73.31C419.528,68.845 416.759,62.662 416.759,55.841C416.759,49.02 419.528,42.837 423.993,38.372C428.458,33.907 434.641,31.137 441.462,31.137C448.282,31.137 454.466,33.907 458.931,38.372C463.396,42.837 466.165,49.02 466.165,55.841C466.165,62.662 463.396,68.845 458.931,73.31C456.396,75.845 453.31,77.833 449.865,79.079L449.865,130.321L459.693,130.321C470.654,130.321 480.638,134.817 487.888,142.055L487.942,142.11C495.165,149.352 499.657,159.333 499.657,170.286L499.657,180.114L521.036,180.114L569.083,130.727C567.489,127.461 566.591,123.789 566.591,119.915C566.591,113.095 569.361,106.911 573.825,102.446C578.29,97.981 584.473,95.212 591.294,95.212C598.115,95.212 604.298,97.981 608.763,102.446L608.764,102.446ZM579.733,377.056C581.154,375.634 582.049,373.65 582.049,371.466C582.049,369.283 581.154,367.298 579.733,365.876C578.311,364.455 576.326,363.56 574.143,363.56C571.959,363.56 569.975,364.455 568.553,365.876C567.178,367.251 566.303,369.15 566.237,371.247L566.237,371.677C566.295,373.775 567.17,375.665 568.553,377.048C569.975,378.47 571.959,379.365 574.143,379.365C576.326,379.365 578.311,378.47 579.733,377.048L579.733,377.056ZM100.793,440.072C100.793,442.256 101.687,444.24 103.109,445.662C104.531,447.084 106.515,447.978 108.699,447.978C110.882,447.978 112.867,447.084 114.289,445.662C115.71,444.24 116.605,442.256 116.605,440.072C116.605,437.888 115.71,435.904 114.289,434.482C112.867,433.06 110.882,432.166 108.699,432.166C106.515,432.166 104.531,433.06 103.109,434.482C101.687,435.904 100.793,437.888 100.793,440.072ZM217.113,389.705C217.113,396.088 219.718,401.881 223.894,406.057C228.101,410.264 233.894,412.869 240.277,412.869L459.687,412.869C466.07,412.869 471.863,410.264 476.039,406.088C480.246,401.881 482.851,396.088 482.851,389.705L482.851,170.295C482.851,163.912 480.246,158.119 476.07,153.943C471.863,149.736 466.07,147.131 459.687,147.131L240.277,147.131C233.894,147.131 228.101,149.736 223.925,153.912C219.718,158.119 217.113,163.912 217.113,170.295L217.113,389.705ZM120.254,182.935C118.832,184.357 117.937,186.341 117.937,188.525C117.937,190.708 118.832,192.693 120.254,194.115C121.675,195.536 123.66,196.431 125.843,196.431C128.027,196.431 130.011,195.536 131.433,194.115C132.808,192.74 133.683,190.841 133.75,188.743L133.75,188.314C133.691,186.216 132.816,184.326 131.433,182.943C130.011,181.521 128.027,180.626 125.843,180.626C123.66,180.626 121.675,181.521 120.254,182.943L120.254,182.935ZM510.064,529.205C512.247,529.205 514.232,528.31 515.653,526.889C517.075,525.467 517.97,523.482 517.97,521.299C517.97,519.115 517.075,517.131 515.653,515.709C514.231,514.287 512.247,513.393 510.064,513.393C507.88,513.393 505.896,514.287 504.474,515.709C503.052,517.131 502.157,519.115 502.157,521.299C502.157,523.482 503.052,525.467 504.474,526.889C505.896,528.31 507.88,529.205 510.064,529.205ZM252.924,509.74C254.345,511.162 256.33,512.056 258.513,512.056C260.697,512.056 262.681,511.162 264.103,509.74C265.525,508.318 266.42,506.334 266.42,504.15C266.42,501.967 265.525,499.982 264.103,498.56C262.728,497.185 260.83,496.31 258.732,496.244L258.302,496.244C256.205,496.303 254.314,497.178 252.931,498.56C251.509,499.982 250.615,501.967 250.615,504.15C250.615,506.334 251.509,508.318 252.931,509.74L252.924,509.74ZM441.236,63.76L441.673,63.76C443.771,63.701 445.661,62.826 447.044,61.444C448.466,60.022 449.361,58.037 449.361,55.854C449.361,53.67 448.466,51.686 447.044,50.264C445.622,48.842 443.638,47.948 441.454,47.948C439.271,47.948 437.286,48.842 435.865,50.264C434.443,51.686 433.548,53.67 433.548,55.854C433.548,58.037 434.443,60.022 435.865,61.444C437.24,62.819 439.138,63.694 441.236,63.76Z" style="fill-rule:nonzero;"/>
                </g>
            </g>
        </g>
    </g>
</svg>
