<?xml version="1.0" encoding="UTF-8" standalone="no"?>
<!DOCTYPE svg PUBLIC "-//W3C//DTD SVG 1.1//EN" "http://www.w3.org/Graphics/SVG/1.1/DTD/svg11.dtd">
<svg width="100%" height="100%" viewBox="0 0 1024 1024" version="1.1" xmlns="http://www.w3.org/2000/svg" xmlns:xlink="http://www.w3.org/1999/xlink" xml:space="preserve" xmlns:serif="http://www.serif.com/" style="fill-rule:evenodd;clip-rule:evenodd;stroke-linecap:round;stroke-linejoin:round;stroke-miterlimit:1.5;">
    <rect id="Artboard1" x="0" y="0" width="1024" height="1024" style="fill:none;"/>
    <g id="Artboard11" serif:id="Artboard1">
        <g transform="matrix(1.87369,0,0,1.87369,-143.795,-29.027)">
            <g id="Layer1">
                <g id="Data-Science" serif:id="Data Science">
                    <g transform="matrix(0.533707,0,0,0.533707,76.7444,15.4919)">
                        <path d="M413.414,968.443C413.55,969.293 413.62,970.165 413.62,971.053C413.62,980.121 406.294,987.448 397.225,987.448L167.699,987.448C158.63,987.448 151.304,980.121 151.304,971.053C151.304,925.85 188.075,889.079 233.278,889.079L245.325,889.079L270.905,874.456C313.692,849.997 341.695,806.315 346.943,757.922L102.127,757.922C56.924,757.922 20.153,721.151 20.153,675.948L20.153,118.526C20.153,73.323 56.924,36.552 102.127,36.552L921.865,36.552C946.029,36.552 967.784,47.06 982.8,63.747L984.936,63.747L984.936,66.218C996.736,80.421 1003.84,98.659 1003.84,118.526L1003.84,331.658C1003.84,340.723 996.517,348.048 987.453,348.053L987.444,348.053C986.591,348.052 985.753,347.987 984.936,347.862L984.936,381.033C985.756,380.907 986.597,380.842 987.453,380.842C996.521,380.842 1003.85,388.169 1003.85,397.237L1003.85,675.948C1003.85,695.82 996.741,714.062 984.936,728.267L984.936,729.989L983.464,729.989C968.43,747.103 946.392,757.922 921.873,757.922L677.057,757.922C682.306,806.323 710.308,849.995 753.095,874.456L778.668,889.079L790.715,889.079C835.917,889.079 872.689,925.85 872.689,971.053C872.689,980.121 865.362,987.448 856.294,987.448L462.819,987.448C453.751,987.448 446.425,980.121 446.425,971.053C446.425,970.165 446.495,969.293 446.63,968.443L413.414,968.443Z" style="fill:rgb(118,214,255);"/>
                        <path d="M989.533,50.519C994.175,52.132 997.707,56.12 998.672,61.029C1010.7,77.066 1017.84,96.978 1017.84,118.526L1017.84,331.658C1017.84,344.401 1010.03,355.289 998.936,359.813L998.936,369.079C1010.04,373.6 1017.85,384.49 1017.85,397.237L1017.85,675.948C1017.85,697.657 1010.61,717.706 998.41,733.804C997.287,737.779 994.452,741.035 990.753,742.727C973.299,760.727 948.869,771.922 921.873,771.922L693.547,771.922C701.992,809.595 725.799,842.725 760.044,862.302L782.388,875.079L790.715,875.079C843.637,875.079 886.689,918.13 886.689,971.053C886.689,987.865 873.106,1001.45 856.294,1001.45L462.819,1001.45C450.037,1001.45 439.122,993.596 434.623,982.443L425.422,982.443C420.923,993.596 410.008,1001.45 397.225,1001.45L167.699,1001.45C150.887,1001.45 137.304,987.865 137.304,971.053C137.304,918.13 180.355,875.079 233.278,875.079L241.606,875.079L263.957,862.301C298.201,842.726 322.008,809.591 330.453,771.922L102.127,771.922C49.204,771.922 6.153,728.871 6.153,675.948L6.153,118.526C6.153,65.603 49.204,22.552 102.127,22.552L921.865,22.552C948.241,22.552 972.168,33.24 989.533,50.519ZM413.414,968.443L446.63,968.443C446.495,969.293 446.425,970.165 446.425,971.053C446.425,980.121 453.751,987.448 462.819,987.448L856.294,987.448C865.362,987.448 872.689,980.121 872.689,971.053C872.689,925.85 835.917,889.079 790.715,889.079L778.668,889.079L753.095,874.456C710.308,849.995 682.306,806.323 677.057,757.922L921.873,757.922C946.392,757.922 968.43,747.103 983.464,729.989L984.936,729.989L984.936,728.267C996.741,714.062 1003.85,695.82 1003.85,675.948L1003.85,397.237C1003.85,388.169 996.521,380.842 987.453,380.842C986.597,380.842 985.756,380.907 984.936,381.033L984.936,347.862C985.753,347.987 986.591,348.052 987.444,348.053L987.453,348.053C996.517,348.048 1003.84,340.723 1003.84,331.658L1003.84,118.526C1003.84,98.659 996.736,80.421 984.936,66.218L984.936,63.747L982.8,63.747C967.784,47.06 946.029,36.552 921.865,36.552L102.127,36.552C56.924,36.552 20.153,73.323 20.153,118.526L20.153,675.948C20.153,721.151 56.924,757.922 102.127,757.922L346.943,757.922C341.695,806.315 313.692,849.997 270.905,874.456L245.325,889.079L233.278,889.079C188.075,889.079 151.304,925.85 151.304,971.053C151.304,980.121 158.63,987.448 167.699,987.448L397.225,987.448C406.294,987.448 413.62,980.121 413.62,971.053C413.62,970.165 413.55,969.293 413.414,968.443Z" style="fill:white;"/>
                    </g>
                    <g transform="matrix(1.01461,0,0,1,-1.4877,-4)">
                        <rect x="101.845" y="53.514" width="493.36" height="355.578" style="fill:rgb(118,214,255);"/>
                    </g>
                    <g transform="matrix(0.5127,0,0,0.5127,87.5,26.2476)">
                        <path d="M117.942,604.262L165.032,654.083L192.932,628.247L238.315,647.746L244.355,678.522L303.08,676.386L311.647,649.285L360.388,627.958L381.633,649.8L430.645,608.058L408.619,574.389L424.283,531.355L456.319,528.231L460.224,465.827L428.188,458.799L410.618,415.728L424.284,377.853L386.894,344.942L354.326,359.572L306.937,342.754L298.738,311.126L243.203,308.393L239.689,341.192L200.842,362.439L165.7,341.744L124.086,383.246L144.685,419.692L127.114,458.738L91.653,464.571L87.097,527.317L128.832,528.488L144.567,574.594L117.942,604.262Z" style="fill:rgb(192,192,192);stroke:black;stroke-width:1.04px;"/>
                    </g>
                    <g transform="matrix(0.5127,0,0,0.5127,94.6778,30.3491)">
                        <ellipse cx="258.679" cy="485.365" rx="71.507" ry="71.367" style="fill:rgb(118,214,255);"/>
                    </g>
                    <g transform="matrix(0.5127,0,0,0.5127,87.5,26.2476)">
                        <rect x="105.044" y="177.375" width="60.912" height="57.008" style="fill:rgb(142,250,0);"/>
                    </g>
                    <g transform="matrix(0.5127,0,0,0.5127,87.5,24.1968)">
                        <rect x="240.363" y="153.603" width="64.68" height="80.779" style="fill:rgb(142,250,0);"/>
                    </g>
                    <g transform="matrix(0.5127,0,0,0.5127,87.5,26.2476)">
                        <rect x="373.326" y="104.38" width="70.681" height="130.002" style="fill:rgb(142,250,0);"/>
                    </g>
                    <g transform="matrix(1,0,0,0.923971,0,31.1028)">
                        <path d="M274.068,412.579L258.009,462.954L222.666,497.37L188.962,499.772L169.744,542.5L530.239,542.5L531.307,515.439L508.073,499.473L481.696,497.62L439.592,449.409L430.282,409.092L274.068,412.579Z" style="fill:rgb(214,214,214);stroke:black;stroke-width:0.55px;"/>
                    </g>
                    <path d="M603.75,201.25C608.59,201.25 612.5,197.34 612.5,192.5L612.5,78.75C612.5,54.625 592.875,35 568.75,35L131.25,35C107.125,35 87.5,54.625 87.5,78.75L87.5,376.25C87.5,400.375 107.125,420 131.25,420L261.91,420C259.109,445.828 244.164,469.141 221.328,482.195L207.676,490L201.246,490C177.121,490 157.496,509.625 157.496,533.75C157.496,538.59 161.407,542.5 166.246,542.5L288.746,542.5C293.586,542.5 297.496,538.59 297.496,533.75C297.496,528.91 293.586,525 288.746,525L176.496,525C180.11,514.816 189.84,507.5 201.25,507.5L498.75,507.5C510.16,507.5 519.891,514.816 523.504,525L323.754,525C318.915,525 315.004,528.91 315.004,533.75C315.004,538.59 318.915,542.5 323.754,542.5L533.754,542.5C538.594,542.5 542.504,538.59 542.504,533.75C542.504,509.625 522.879,490 498.754,490L492.325,490L478.677,482.195C455.841,469.14 440.896,445.832 438.095,420L568.755,420C592.88,420 612.505,400.375 612.505,376.25L612.505,227.5C612.505,222.66 608.594,218.75 603.755,218.75C598.915,218.75 595.005,222.66 595.005,227.5L595.005,376.25C595.005,390.723 583.228,402.5 568.755,402.5L131.255,402.5C116.782,402.5 105.005,390.723 105.005,376.25L105.005,78.75C105.005,64.277 116.782,52.5 131.255,52.5L568.755,52.5C583.228,52.5 595.005,64.277 595.005,78.75L595.005,192.5C595.005,197.34 598.915,201.25 603.755,201.25L603.75,201.25ZM420.39,420C422.859,447.695 436.917,473.148 458.874,490L241.134,490C263.095,473.148 277.15,447.695 279.618,420L420.39,420Z" style="fill-rule:nonzero;"/>
                    <path d="M323.75,306.25C328.59,306.25 332.5,302.34 332.5,297.5L332.5,262.5C332.5,257.66 328.59,253.75 323.75,253.75L310.922,253.75C309.383,248.859 307.422,244.125 305.031,239.582L314.113,230.5C317.535,227.078 317.535,221.547 314.113,218.129L289.367,193.383C285.946,189.961 280.414,189.961 276.996,193.383L267.914,202.465C263.364,200.086 258.629,198.117 253.746,196.574L253.75,183.75C253.75,178.911 249.84,175 245,175L210,175C205.161,175 201.25,178.911 201.25,183.75L201.25,196.578C196.36,198.117 191.625,200.078 187.082,202.469L178,193.387C174.578,189.965 169.047,189.965 165.629,193.387L140.883,218.133C137.461,221.555 137.461,227.086 140.883,230.504L149.965,239.586C147.579,244.125 145.618,248.859 144.079,253.75L131.251,253.75C126.411,253.75 122.501,257.66 122.501,262.5L122.501,297.5C122.501,302.34 126.411,306.25 131.251,306.25L144.079,306.25C145.618,311.141 147.579,315.875 149.969,320.418L140.887,329.5C137.465,332.922 137.465,338.453 140.887,341.871C144.309,345.293 149.84,345.293 153.258,341.871L167.074,328.055C169.961,325.168 170.469,320.661 168.289,317.203C164.082,310.508 161.055,303.23 159.305,295.555C158.391,291.578 154.848,288.75 150.762,288.75L140,288.75L140,271.25L150.762,271.25C154.848,271.25 158.383,268.422 159.293,264.442C161.043,256.77 164.07,249.489 168.277,242.794C170.457,239.329 169.949,234.833 167.062,231.942L159.434,224.313L171.805,211.942L179.433,219.571C182.32,222.465 186.836,222.965 190.285,220.785C196.981,216.578 204.258,213.551 211.933,211.801C215.922,210.891 218.75,207.348 218.75,203.262L218.75,192.5L236.25,192.5L236.25,203.262C236.25,207.348 239.078,210.883 243.058,211.793C250.73,213.543 258.011,216.57 264.706,220.778C268.163,222.957 272.66,222.457 275.558,219.563L283.187,211.934L295.558,224.305L287.929,231.934C285.043,234.82 284.535,239.328 286.715,242.786C290.922,249.481 293.949,256.759 295.699,264.434C296.609,268.422 300.152,271.25 304.238,271.25L315,271.25L315,288.75L304.238,288.75C300.152,288.75 296.617,291.578 295.707,295.559C293.957,303.231 290.93,310.512 286.723,317.207C284.543,320.672 285.051,325.168 287.937,328.059L295.566,335.688L283.195,348.059L275.566,340.43C272.672,337.535 268.164,337.035 264.714,339.215C258.019,343.422 250.741,346.449 243.066,348.199C239.078,349.11 236.25,352.652 236.25,356.739L236.25,367.501L218.75,367.501L218.75,356.739C218.75,352.653 215.922,349.117 211.941,348.207C204.269,346.457 196.988,343.43 190.293,339.223C186.836,337.043 182.332,337.543 179.441,340.438L165.625,354.254C162.203,357.676 162.203,363.207 165.625,366.625C169.047,370.047 174.578,370.047 177.996,366.625L187.078,357.543C191.629,359.922 196.364,361.89 201.246,363.433L201.25,376.249C201.25,381.089 205.16,384.999 210,384.999L245,384.999C249.84,384.999 253.75,381.089 253.75,376.249L253.75,363.421C258.641,361.882 263.375,359.921 267.918,357.531L277,366.613C280.422,370.035 285.953,370.035 289.371,366.613L314.117,341.867C317.539,338.445 317.539,332.914 314.117,329.496L305.035,320.414C307.414,315.863 309.383,311.129 310.926,306.246L323.75,306.25Z" style="fill-rule:nonzero;"/>
                    <path d="M227.5,323.75C251.625,323.75 271.25,304.125 271.25,280C271.25,255.875 251.625,236.25 227.5,236.25C203.375,236.25 183.75,255.875 183.75,280C183.75,304.125 203.375,323.75 227.5,323.75ZM227.5,253.75C241.973,253.75 253.75,265.527 253.75,280C253.75,294.473 241.973,306.25 227.5,306.25C213.027,306.25 201.25,294.473 201.25,280C201.25,265.527 213.027,253.75 227.5,253.75Z" style="fill-rule:nonzero;"/>
                    <path d="M453.08,90.781C450.053,87.012 444.557,86.39 440.779,89.418L397.029,124.418C394.955,126.078 393.748,128.59 393.748,131.25C393.748,133.91 394.955,136.422 397.029,138.082L440.779,173.082C442.396,174.379 444.322,175 446.24,175C448.814,175 451.349,173.871 453.084,171.719C456.103,167.937 455.482,162.433 451.72,159.418L416.505,131.25L451.716,103.082C455.486,100.066 456.099,94.562 453.08,90.781L453.08,90.781Z" style="fill-rule:nonzero;"/>
                    <path d="M574.22,124.42L530.47,89.42C526.689,86.393 521.197,87.029 518.169,90.783C515.15,94.565 515.771,100.069 519.532,103.084L554.743,131.252L519.532,159.42C515.763,162.448 515.15,167.952 518.169,171.721C519.9,173.881 522.438,175.003 525.009,175.003C526.927,175.003 528.849,174.381 530.47,173.085L574.22,138.085C576.294,136.424 577.501,133.913 577.501,131.253C577.501,128.592 576.294,126.081 574.22,124.421L574.22,124.42Z" style="fill-rule:nonzero;"/>
                    <path d="M469.42,174.45C470.443,174.817 471.475,175.001 472.498,175.001C476.033,175.001 479.377,172.841 480.697,169.329L506.947,99.329C508.635,94.798 506.354,89.755 501.83,88.059C497.299,86.387 492.248,88.645 490.56,93.176L464.31,163.176C462.611,167.703 464.904,172.742 469.42,174.449L469.42,174.45Z" style="fill-rule:nonzero;"/>
                    <path d="M358.75,227.5C358.75,232.34 362.66,236.25 367.5,236.25L402.5,236.25C407.34,236.25 411.25,232.34 411.25,227.5C411.25,222.66 407.34,218.75 402.5,218.75L367.5,218.75C362.66,218.75 358.75,222.66 358.75,227.5Z" style="fill-rule:nonzero;"/>
                    <path d="M446.25,227.5C446.25,232.332 442.332,236.25 437.5,236.25C432.668,236.25 428.75,232.332 428.75,227.5C428.75,222.668 432.668,218.75 437.5,218.75C442.332,218.75 446.25,222.668 446.25,227.5" style="fill-rule:nonzero;"/>
                    <path d="M481.25,262.5C481.25,257.66 477.34,253.75 472.5,253.75L437.5,253.75C432.66,253.75 428.75,257.66 428.75,262.5C428.75,267.34 432.66,271.25 437.5,271.25L472.5,271.25C477.34,271.25 481.25,267.34 481.25,262.5Z" style="fill-rule:nonzero;"/>
                    <path d="M516.25,262.5C516.25,267.332 512.332,271.25 507.5,271.25C502.668,271.25 498.75,267.332 498.75,262.5C498.75,257.668 502.668,253.75 507.5,253.75C512.332,253.75 516.25,257.668 516.25,262.5" style="fill-rule:nonzero;"/>
                    <path d="M376.25,297.5C376.25,302.332 372.332,306.25 367.5,306.25C362.668,306.25 358.75,302.332 358.75,297.5C358.75,292.668 362.668,288.75 367.5,288.75C372.332,288.75 376.25,292.668 376.25,297.5" style="fill-rule:nonzero;"/>
                    <path d="M455,297.5C455,302.332 451.082,306.25 446.25,306.25C441.418,306.25 437.5,302.332 437.5,297.5C437.5,292.668 441.418,288.75 446.25,288.75C451.082,288.75 455,292.668 455,297.5" style="fill-rule:nonzero;"/>
                    <path d="M542.5,297.5C542.5,302.332 538.582,306.25 533.75,306.25C528.918,306.25 525,302.332 525,297.5C525,292.668 528.918,288.75 533.75,288.75C538.582,288.75 542.5,292.668 542.5,297.5" style="fill-rule:nonzero;"/>
                    <path d="M490,332.5C490,337.332 486.082,341.25 481.25,341.25C476.418,341.25 472.5,337.332 472.5,332.5C472.5,327.668 476.418,323.75 481.25,323.75C486.082,323.75 490,327.668 490,332.5" style="fill-rule:nonzero;"/>
                    <path d="M472.5,236.25L498.75,236.25C503.59,236.25 507.5,232.34 507.5,227.5C507.5,222.66 503.59,218.75 498.75,218.75L472.5,218.75C467.66,218.75 463.75,222.66 463.75,227.5C463.75,232.34 467.66,236.25 472.5,236.25Z" style="fill-rule:nonzero;"/>
                    <path d="M568.75,218.75L533.75,218.75C528.91,218.75 525,222.66 525,227.5C525,232.34 528.91,236.25 533.75,236.25L568.75,236.25C573.59,236.25 577.5,232.34 577.5,227.5C577.5,222.66 573.59,218.75 568.75,218.75Z" style="fill-rule:nonzero;"/>
                    <path d="M367.5,271.25L402.5,271.25C407.34,271.25 411.25,267.34 411.25,262.5C411.25,257.66 407.34,253.75 402.5,253.75L367.5,253.75C362.66,253.75 358.75,257.66 358.75,262.5C358.75,267.34 362.66,271.25 367.5,271.25Z" style="fill-rule:nonzero;"/>
                    <path d="M568.75,253.75L542.5,253.75C537.66,253.75 533.75,257.66 533.75,262.5C533.75,267.34 537.66,271.25 542.5,271.25L568.75,271.25C573.59,271.25 577.5,267.34 577.5,262.5C577.5,257.66 573.59,253.75 568.75,253.75Z" style="fill-rule:nonzero;"/>
                    <path d="M507.5,297.5C507.5,292.66 503.59,288.75 498.75,288.75L481.25,288.75C476.41,288.75 472.5,292.66 472.5,297.5C472.5,302.34 476.41,306.25 481.25,306.25L498.75,306.25C503.59,306.25 507.5,302.34 507.5,297.5Z" style="fill-rule:nonzero;"/>
                    <path d="M402.5,288.75C397.66,288.75 393.75,292.66 393.75,297.5C393.75,302.34 397.66,306.25 402.5,306.25L411.25,306.25C416.09,306.25 420,302.34 420,297.5C420,292.66 416.09,288.75 411.25,288.75L402.5,288.75Z" style="fill-rule:nonzero;"/>
                    <path d="M577.5,297.5C577.5,302.332 573.582,306.25 568.75,306.25C563.918,306.25 560,302.332 560,297.5C560,292.668 563.918,288.75 568.75,288.75C573.582,288.75 577.5,292.668 577.5,297.5" style="fill-rule:nonzero;"/>
                    <path d="M367.5,341.25L446.25,341.25C451.09,341.25 455,337.34 455,332.5C455,327.66 451.09,323.75 446.25,323.75L367.5,323.75C362.66,323.75 358.75,327.66 358.75,332.5C358.75,337.34 362.66,341.25 367.5,341.25Z" style="fill-rule:nonzero;"/>
                    <path d="M516.25,341.25L568.75,341.25C573.59,341.25 577.5,337.34 577.5,332.5C577.5,327.66 573.59,323.75 568.75,323.75L516.25,323.75C511.41,323.75 507.5,327.66 507.5,332.5C507.5,337.34 511.41,341.25 516.25,341.25Z" style="fill-rule:nonzero;"/>
                    <path d="M175,157.5C179.84,157.5 183.75,153.59 183.75,148.75L183.75,113.75C183.75,108.91 179.84,105 175,105L140,105C135.16,105 131.25,108.91 131.25,113.75L131.25,148.75C131.25,153.59 135.16,157.5 140,157.5L175,157.5ZM148.75,122.5L166.25,122.5L166.25,140L148.75,140L148.75,122.5Z" style="fill-rule:nonzero;"/>
                    <path d="M210,157.5L245,157.5C249.84,157.5 253.75,153.59 253.75,148.75L253.75,96.25C253.75,91.41 249.84,87.5 245,87.5L210,87.5C205.16,87.5 201.25,91.41 201.25,96.25L201.25,148.75C201.25,153.59 205.16,157.5 210,157.5ZM218.75,105L236.25,105L236.25,140L218.75,140L218.75,105Z" style="fill-rule:nonzero;"/>
                    <path d="M315,157.5C319.84,157.5 323.75,153.59 323.75,148.75L323.75,78.75C323.75,73.91 319.84,70 315,70L280,70C275.16,70 271.25,73.91 271.25,78.75L271.25,148.75C271.25,153.59 275.16,157.5 280,157.5C284.84,157.5 288.75,153.59 288.75,148.75L288.75,87.5L306.25,87.5L306.25,148.75C306.25,153.59 310.16,157.5 315,157.5Z" style="fill-rule:nonzero;"/>
                </g>
            </g>
        </g>
    </g>
</svg>
