<?xml version="1.0" encoding="UTF-8" standalone="no"?>
<!DOCTYPE svg PUBLIC "-//W3C//DTD SVG 1.1//EN" "http://www.w3.org/Graphics/SVG/1.1/DTD/svg11.dtd">
<svg width="100%" height="100%" viewBox="0 0 1024 1024" version="1.1" xmlns="http://www.w3.org/2000/svg" xmlns:xlink="http://www.w3.org/1999/xlink" xml:space="preserve" xmlns:serif="http://www.serif.com/" style="fill-rule:evenodd;clip-rule:evenodd;stroke-linecap:round;stroke-linejoin:round;stroke-miterlimit:1.5;">
    <rect id="Artboard1" x="0" y="0" width="1024" height="1024" style="fill:none;"/>
    <g id="Artboard11" serif:id="Artboard1">
        <g transform="matrix(1.87368,0,0,1.87368,-143.794,-12.6291)">
            <g id="Layer1">
                <g id="Game-Development" serif:id="Game Development">
                    <g transform="matrix(0.53371,0,0,0.53371,76.7443,6.7403)">
                        <path d="M36.547,20.16L987.453,20.16C991.8,20.16 995.972,21.888 999.046,24.961C1002.12,28.035 1003.85,32.207 1003.85,36.555L1003.85,790.709C1003.85,795.057 1002.12,799.229 999.046,802.303C995.972,805.377 991.8,807.104 987.453,807.104L793.658,807.104L774.315,874.982L774.315,987.445C774.315,991.793 772.587,995.965 769.513,999.039C766.439,1002.11 762.267,1003.84 757.92,1003.84L626.763,1003.84C622.415,1003.84 618.243,1002.11 615.169,999.039C612.095,995.965 610.368,991.793 610.368,987.445L610.368,887.438C594.683,884.159 580.279,876.416 568.89,865.145C557.444,853.792 549.627,839.3 546.429,823.499L477.571,823.499C474.307,839.213 466.512,853.624 455.153,864.961C443.787,876.291 429.353,884.049 413.632,887.277L413.632,987.445C413.632,991.793 411.905,995.965 408.831,999.039C405.757,1002.11 401.585,1003.84 397.237,1003.84L266.08,1003.84C261.733,1003.84 257.561,1002.11 254.487,999.039C251.413,995.965 249.685,991.793 249.685,987.445L249.685,874.982L230.342,807.104L36.547,807.104C32.2,807.104 28.028,805.377 24.954,802.303C21.88,799.229 20.153,795.057 20.153,790.709L20.153,36.555C20.153,27.501 27.494,20.16 36.547,20.16Z" style="fill:rgb(118,214,255);"/>
                        <path d="M36.547,6.16L987.453,6.16C995.512,6.16 1003.25,9.363 1008.95,15.062C1014.64,20.761 1017.85,28.495 1017.85,36.555L1017.85,790.709C1017.85,798.769 1014.64,806.503 1008.95,812.202C1003.25,817.901 995.513,821.104 987.453,821.104L804.226,821.104L788.315,876.937L788.315,987.445C788.315,995.505 785.112,1003.24 779.413,1008.94C773.714,1014.64 765.98,1017.84 757.92,1017.84L626.763,1017.84C618.703,1017.84 610.969,1014.64 605.27,1008.94C599.571,1003.24 596.368,995.505 596.368,987.445C596.368,987.445 596.368,898.113 596.368,898.113C582.382,893.402 569.602,885.547 559.042,875.095L559.032,875.085C548.378,864.519 540.407,851.632 535.7,837.499C535.7,837.499 488.253,837.499 488.253,837.499C483.524,851.532 475.598,864.335 465.043,874.87L465.036,874.876C454.482,885.397 441.667,893.286 427.632,897.983L427.632,987.445C427.632,995.505 424.429,1003.24 418.73,1008.94C413.031,1014.64 405.297,1017.84 397.237,1017.84L266.08,1017.84C258.02,1017.84 250.286,1014.64 244.587,1008.94C238.888,1003.24 235.685,995.505 235.685,987.445L235.685,876.937C235.685,876.937 219.774,821.104 219.774,821.104L36.547,821.104C28.488,821.104 20.753,817.901 15.055,812.202C9.356,806.503 6.153,798.769 6.153,790.709L6.153,36.555C6.153,19.77 19.763,6.16 36.547,6.16ZM36.547,20.16C27.494,20.16 20.153,27.501 20.153,36.555L20.153,790.709C20.153,795.057 21.88,799.229 24.954,802.303C28.028,805.377 32.2,807.104 36.547,807.104L230.342,807.104L249.685,874.982L249.685,987.445C249.685,991.793 251.413,995.965 254.487,999.039C257.561,1002.11 261.733,1003.84 266.08,1003.84L397.237,1003.84C401.585,1003.84 405.757,1002.11 408.831,999.039C411.905,995.965 413.632,991.793 413.632,987.445L413.632,887.277C429.353,884.049 443.787,876.291 455.153,864.961C466.512,853.624 474.307,839.213 477.571,823.499L546.429,823.499C549.627,839.3 557.444,853.792 568.89,865.145C580.279,876.416 594.683,884.159 610.368,887.438L610.368,987.445C610.368,991.793 612.095,995.965 615.169,999.039C618.243,1002.11 622.415,1003.84 626.763,1003.84L757.92,1003.84C762.267,1003.84 766.439,1002.11 769.513,999.039C772.587,995.965 774.315,991.793 774.315,987.445L774.315,874.982L793.658,807.104L987.453,807.104C991.8,807.104 995.972,805.377 999.046,802.303C1002.12,799.229 1003.85,795.057 1003.85,790.709L1003.85,36.555C1003.85,32.207 1002.12,28.035 999.046,24.961C995.972,21.888 991.8,20.16 987.453,20.16L36.547,20.16Z" style="fill:white;"/>
                    </g>
                    <rect x="100.017" y="25.887" width="501.69" height="402.366" style="fill:rgb(118,214,255);"/>
                    <g>
                        <path d="M138.659,252.389L269.684,252.301L242.284,197.679L159.702,203.057L138.659,252.389Z" style="fill:rgb(255,38,0);stroke:black;stroke-width:0.53px;"/>
                        <path d="M167.551,252.389L236.237,252.389L235.541,148.738L203.384,132.684L169.615,159.268L167.551,252.389Z" style="fill:white;stroke:black;stroke-width:0.53px;"/>
                        <path d="M186.658,280L201.251,301.6L222.382,280L223.416,252.389L183.353,252.389L186.658,280Z" style="fill:rgb(255,212,121);stroke:black;stroke-width:0.53px;"/>
                    </g>
                    <g transform="matrix(1,0,0,1,145.829,-68.4036)">
                        <path d="M138.659,252.389L269.684,252.301L242.284,197.679L159.702,203.057L138.659,252.389Z" style="fill:rgb(255,38,0);stroke:black;stroke-width:0.53px;"/>
                        <path d="M167.551,252.389L236.237,252.389L235.541,148.738L203.384,132.684L169.615,159.268L167.551,252.389Z" style="fill:white;stroke:black;stroke-width:0.53px;"/>
                        <path d="M186.658,280L201.251,301.6L222.382,280L223.416,252.389L183.353,252.389L186.658,280Z" style="fill:rgb(255,212,121);stroke:black;stroke-width:0.53px;"/>
                    </g>
                    <g transform="matrix(1,0,0,1,290.065,1.59645)">
                        <path d="M138.659,252.389L269.684,252.301L242.284,197.679L159.702,203.057L138.659,252.389Z" style="fill:rgb(255,38,0);stroke:black;stroke-width:0.53px;"/>
                        <path d="M167.551,252.389L236.237,252.389L235.541,148.738L203.384,132.684L169.615,159.268L167.551,252.389Z" style="fill:white;stroke:black;stroke-width:0.53px;"/>
                        <path d="M186.658,280L201.251,301.6L222.382,280L223.416,252.389L183.353,252.389L186.658,280Z" style="fill:rgb(255,212,121);stroke:black;stroke-width:0.53px;"/>
                    </g>
                    <path d="M268.62,341.568L303.858,333.197L420.028,334.646L441.063,350L449.731,472.779L400.712,472.763L373.999,437.363L328.051,438.397L316.165,465.27L252.555,474.678L252.555,362.674L268.62,341.568Z" style="fill:rgb(214,214,214);stroke:black;stroke-width:0.53px;"/>
                    <path d="M253.681,372.955L201.251,413.022L220.343,472.575L220.724,534.153L289.114,532.481L292.884,476.644L279.974,446.929L303.858,422.428L301.912,401.803L279.974,396.635L258.443,418.826L253.681,372.955Z" style="fill:rgb(255,212,121);stroke:black;stroke-width:0.53px;"/>
                    <path d="M410.694,534.153L479.907,534.153L479.821,472.552L498.751,414.392L446.686,372.955L448.632,416.323L420.028,398.114L400.712,403.54L401.228,424.987L420.028,445.508L410.115,473.486L410.694,534.153Z" style="fill:rgb(255,212,121);stroke:black;stroke-width:0.53px;"/>
                    <path d="M603.758,17.5L96.25,17.5C91.418,17.5 87.5,21.418 87.5,26.25L87.5,428.75C87.5,431.07 88.422,433.297 90.063,434.938C91.703,436.578 93.93,437.5 96.25,437.5L199.68,437.5L210.004,473.727L210.004,533.75C210.004,536.07 210.926,538.297 212.567,539.938C214.207,541.578 216.434,542.5 218.754,542.5L288.754,542.5C291.074,542.5 293.301,541.578 294.942,539.938C296.582,538.297 297.504,536.07 297.504,533.75L297.504,480.289C305.895,478.566 313.598,474.426 319.664,468.379C325.727,462.328 329.887,454.637 331.629,446.25L368.379,446.25C370.086,454.684 374.258,462.418 380.367,468.477C386.445,474.493 394.133,478.625 402.504,480.375L402.504,533.75C402.504,536.07 403.426,538.297 405.067,539.938C406.707,541.578 408.934,542.5 411.254,542.5L481.254,542.5C483.574,542.5 485.801,541.578 487.442,539.938C489.082,538.297 490.004,536.07 490.004,533.75L490.004,473.727L500.328,437.5L603.758,437.5C606.078,437.5 608.305,436.578 609.946,434.938C611.586,433.297 612.508,431.07 612.508,428.75L612.508,26.25C612.508,23.93 611.586,21.703 609.946,20.063C608.305,18.422 606.078,17.5 603.758,17.5ZM271.69,449.05L280.003,473.898L280.003,525L227.503,525L227.503,472.5C227.522,471.699 227.405,470.898 227.151,470.137L212.799,419.825L212.803,419.825C211.869,416.481 212.959,412.895 215.604,410.637L245.002,386.137L245.002,422.977C244.99,426.516 247.138,429.708 250.427,431.024C253.685,432.395 257.447,431.673 259.963,429.188L280.963,408.102C282.595,406.423 284.838,405.473 287.177,405.473C289.517,405.473 291.759,406.423 293.388,408.102C295.049,409.704 295.966,411.923 295.927,414.227C295.967,416.555 295.052,418.801 293.388,420.438L273.786,440.04L273.79,440.04C271.439,442.403 270.626,445.892 271.689,449.052L271.69,449.05ZM405.21,463.05C400.491,461.917 396.167,459.531 392.698,456.136C387.764,451.191 384.995,444.488 384.999,437.499C384.999,435.179 384.077,432.952 382.436,431.311C380.796,429.671 378.569,428.749 376.249,428.749L323.749,428.749C318.917,428.749 314.999,432.667 314.999,437.499C314.979,443.405 312.979,449.14 309.311,453.772C305.647,458.405 300.53,461.67 294.788,463.049L289.976,448.611L305.812,432.861C312.456,426.217 315.05,416.537 312.617,407.463C310.187,398.385 303.097,391.299 294.023,388.869C284.948,386.436 275.269,389.029 268.625,395.674L262.5,401.885L262.5,367.498C262.519,360.541 265.293,353.877 270.21,348.959C275.128,344.041 281.792,341.267 288.749,341.248L411.249,341.248C418.206,341.267 424.87,344.041 429.788,348.959C434.706,353.877 437.48,360.541 437.499,367.498L437.499,401.885L431.288,395.674C424.644,389.045 414.968,386.467 405.909,388.904C396.847,391.346 389.776,398.432 387.358,407.498C384.94,416.565 387.542,426.232 394.186,432.861L410.023,448.611L405.21,463.05ZM487.198,419.823L472.846,470.135L472.85,470.135C472.596,470.897 472.479,471.698 472.498,472.498L472.498,524.998L419.998,524.998L419.998,473.896L428.311,449.044L428.311,449.048C429.373,445.888 428.561,442.4 426.209,440.037L406.607,420.435L406.611,420.435C404.947,418.798 404.033,416.552 404.072,414.224C404.033,411.919 404.951,409.7 406.611,408.099C408.236,406.438 410.459,405.505 412.779,405.505C415.099,405.505 417.322,406.438 418.947,408.099L440.033,429.185L440.037,429.185C442.553,431.669 446.314,432.392 449.572,431.021C452.861,429.704 455.01,426.513 454.998,422.974L454.998,386.224L484.396,410.724C487.044,412.938 488.142,416.501 487.197,419.821L487.198,419.823ZM594.998,419.999L504.873,419.999C505.756,411.346 502.279,402.819 495.6,397.249L454.561,363.038C453.479,352.288 448.455,342.327 440.456,335.069C432.456,327.811 422.05,323.78 411.249,323.749L288.749,323.749C277.948,323.78 267.542,327.811 259.542,335.069C251.542,342.327 246.519,352.288 245.437,363.038L204.398,397.249C197.718,402.819 194.242,411.347 195.124,419.999L104.999,419.999L104.999,34.999L594.999,34.999L594.998,419.999Z" style="fill-rule:nonzero;"/>
                    <rect x="341.25" y="105" width="17.5" height="17.5" style="fill-rule:nonzero;"/>
                    <path d="M427.79,179.81L393.751,111.646L393.751,96.248C393.735,87.99 389.849,80.217 383.251,75.248L355.251,54.248C352.149,51.885 347.853,51.885 344.751,54.248L316.751,75.248C310.153,80.217 306.267,87.99 306.251,96.248L306.251,111.646L272.212,179.81C270.849,182.517 270.985,185.74 272.571,188.326C274.157,190.908 276.97,192.49 280.001,192.498L323.751,192.498L323.751,209.998C323.747,211.716 324.267,213.396 325.239,214.81L342.739,241.06C344.337,243.517 347.067,245.001 350.001,245.001C352.935,245.001 355.665,243.517 357.263,241.06L374.763,214.81C375.735,213.396 376.255,211.716 376.251,209.998L376.251,192.498L420.001,192.498C423.032,192.49 425.845,190.908 427.431,188.326C429.017,185.74 429.153,182.517 427.79,179.81L427.79,179.81ZM306.25,174.998L294.176,174.998L306.25,150.85L306.25,174.998ZM358.75,207.373L350,220.498L341.25,207.373L341.25,192.498L358.75,192.498L358.75,207.373ZM376.25,174.998L358.75,174.998L358.75,148.748L341.25,148.748L341.25,174.998L323.75,174.998L323.75,96.248C323.77,93.498 325.063,90.912 327.25,89.248L350,72.186L372.75,89.248C374.938,90.912 376.231,93.498 376.25,96.248L376.25,174.998ZM393.75,174.998L393.75,150.85L405.824,174.998L393.75,174.998Z" style="fill-rule:nonzero;"/>
                    <path d="M279.04,249.81L245.001,181.646L245.001,166.248C244.985,157.99 241.099,150.217 234.501,145.248L206.501,124.248C203.399,121.885 199.103,121.885 196.001,124.248L168.001,145.248C161.403,150.217 157.517,157.99 157.501,166.248L157.501,181.646L123.462,249.81C122.099,252.517 122.235,255.74 123.821,258.326C125.407,260.908 128.22,262.49 131.251,262.498L175.001,262.498L175.001,279.998C174.997,281.716 175.517,283.396 176.489,284.81L193.989,311.06C195.587,313.517 198.317,315.001 201.251,315.001C204.185,315.001 206.915,313.517 208.513,311.06L226.013,284.81C226.985,283.396 227.505,281.716 227.501,279.998L227.501,262.498L271.251,262.498C274.282,262.49 277.095,260.908 278.681,258.326C280.267,255.74 280.403,252.517 279.04,249.81L279.04,249.81ZM157.5,244.998L145.426,244.998L157.5,220.85L157.5,244.998ZM210,277.373L201.25,290.498L192.5,277.373L192.5,262.498L210,262.498L210,277.373ZM227.5,244.998L210,244.998L210,218.748L192.5,218.748L192.5,244.998L175,244.998L175,166.248C175.02,163.498 176.313,160.912 178.5,159.248L201.25,142.186L224,159.248C226.188,160.912 227.481,163.498 227.5,166.248L227.5,244.998ZM245,244.998L245,220.85L257.074,244.998L245,244.998Z" style="fill-rule:nonzero;"/>
                    <rect x="192.5" y="175" width="17.5" height="17.5" style="fill-rule:nonzero;"/>
                    <rect x="490" y="175" width="17.5" height="17.5" style="fill-rule:nonzero;"/>
                    <path d="M576.54,249.81L542.501,181.646L542.501,166.248C542.485,157.99 538.599,150.217 532.001,145.248L504.001,124.248C500.899,121.885 496.603,121.885 493.501,124.248L465.501,145.248C458.903,150.217 455.017,157.99 455.001,166.248L455.001,181.646L420.962,249.81C419.599,252.517 419.735,255.74 421.321,258.326C422.907,260.908 425.72,262.49 428.751,262.498L472.501,262.498L472.501,279.998C472.497,281.716 473.017,283.396 473.989,284.81L491.489,311.06C493.087,313.517 495.817,315.001 498.751,315.001C501.685,315.001 504.415,313.517 506.013,311.06L523.513,284.81C524.485,283.396 525.005,281.716 525.001,279.998L525.001,262.498L568.751,262.498C571.782,262.49 574.595,260.908 576.181,258.326C577.767,255.74 577.903,252.517 576.54,249.81L576.54,249.81ZM455,244.998L442.926,244.998L455,220.85L455,244.998ZM507.5,277.373L498.75,290.498L490,277.373L490,262.498L507.5,262.498L507.5,277.373ZM525,244.998L507.5,244.998L507.5,218.748L490,218.748L490,244.998L472.5,244.998L472.5,166.248C472.52,163.498 473.813,160.912 476,159.248L498.75,142.186L521.5,159.248C523.688,160.912 524.981,163.498 525,166.248L525,244.998ZM542.5,244.998L542.5,220.85L554.574,244.998L542.5,244.998Z" style="fill-rule:nonzero;"/>
                    <rect x="341.25" y="262.5" width="17.5" height="17.5" style="fill-rule:nonzero;"/>
                    <rect x="140" y="280" width="17.5" height="17.5" style="fill-rule:nonzero;"/>
                    <rect x="245" y="280" width="17.5" height="17.5" style="fill-rule:nonzero;"/>
                    <rect x="288.75" y="210" width="17.5" height="17.5" style="fill-rule:nonzero;"/>
                    <rect x="393.75" y="210" width="17.5" height="17.5" style="fill-rule:nonzero;"/>
                    <rect x="437.5" y="280" width="17.5" height="17.5" style="fill-rule:nonzero;"/>
                    <rect x="542.5" y="280" width="17.5" height="17.5" style="fill-rule:nonzero;"/>
                    <rect x="192.5" y="332.5" width="17.5" height="17.5" style="fill-rule:nonzero;"/>
                    <rect x="490" y="332.5" width="17.5" height="17.5" style="fill-rule:nonzero;"/>
                    <rect x="490" y="52.5" width="17.5" height="17.5" style="fill-rule:nonzero;"/>
                    <rect x="525" y="52.5" width="17.5" height="17.5" style="fill-rule:nonzero;"/>
                    <rect x="560" y="52.5" width="17.5" height="17.5" style="fill-rule:nonzero;"/>
                    <path d="M140,70L166.25,70L166.25,52.5L131.25,52.5C126.418,52.5 122.5,56.418 122.5,61.25L122.5,96.25L140,96.25L140,70Z" style="fill-rule:nonzero;"/>
                    <rect x="122.5" y="113.75" width="17.5" height="17.5" style="fill-rule:nonzero;"/>
                </g>
            </g>
        </g>
    </g>
</svg>
